<svg id="레이어_2" data-name="레이어 2" xmlns="http://www.w3.org/2000/svg" viewBox="0 0 257.75 65.45"><defs><style>.cls-1{fill:#024894;}</style></defs><path class="cls-1" d="M197.32,417.65a1.28,1.28,0,1,0,.53,1.76,1.22,1.22,0,0,0-.53-1.76" transform="translate(-177.66 -362.49)"/><path class="cls-1" d="M184.56,399.24a1.22,1.22,0,0,0-1.46-1.11,1.33,1.33,0,1,0,1.46,1.11" transform="translate(-177.66 -362.49)"/><path class="cls-1" d="M210.39,427.94a32.73,32.73,0,1,0-32.73-32.72,32.76,32.76,0,0,0,32.73,32.72m-19.21-10.45a.82.82,0,0,1,0-.67l.58-1.86c.09-.29-.07-.42-.34-.32l-1.8.73a.85.85,0,0,1-.67.05c-.09-.08-.09-.38,0-.67l1.17-3.34a.33.33,0,0,1,.58-.14h0a.89.89,0,0,1,.22.88l-.48,1.35c-.1.28,0,.42.32.3l1.35-.56a.89.89,0,0,1,.82.08.86.86,0,0,1,.14.81l-.45,1.39c-.09.29.06.42.33.3l1.3-.59a.91.91,0,0,1,.9.14h0a.34.34,0,0,1-.09.6l-3.24,1.43c-.27.12-.57.15-.66.07m10.49-4a2.26,2.26,0,0,0,3.09-.71c1.73-2.79,4.07-5,4.88-5a5.79,5.79,0,0,1,2.25,2.09c.89,1.14,3,3.82,5.69,2a7.76,7.76,0,0,0,1.84-2.06c.59-.86,1.6-2.28,2.27-2.25.23,0,1.59.68,3.69,3.61A21.89,21.89,0,0,1,193,408.5c.61-2,2-4.76,3.47-5.9,1.94.33,5,3.23,6.14,5.5-.73.93-1.28,1.78-1.62,2.31a2.25,2.25,0,0,0,.72,3.09m-6.43-20.08c-.07,2.26.19,3.27-1.27,5.65a34.41,34.41,0,0,0-3,6.34A21.94,21.94,0,0,1,188.87,391c1.59-.21,3.42-.86,4.44-.77,1.86.18,2,1,1.93,3.21m3.55,26.52a2.42,2.42,0,1,1-1-3.05,2.25,2.25,0,0,1,1,3.05m5.58.28-.94,2.95a.5.5,0,0,1-.58.39,1.26,1.26,0,0,1-.64-.63l-1-2.26c-.13-.27-.29-.27-.38,0l-.48,1.52a.54.54,0,0,1-.67.36.53.53,0,0,1-.33-.67l.93-3a.51.51,0,0,1,.62-.37,1.24,1.24,0,0,1,.68.64l.92,2.12c.12.27.29.26.39,0l.44-1.41a.53.53,0,1,1,1,.32m9.11,2.82a2.07,2.07,0,0,1,0,.41,1.19,1.19,0,0,1-.29.57,1.48,1.48,0,0,1-.57.37,2.64,2.64,0,0,1-.92.15h-.05a2.81,2.81,0,0,1-1-.12A1.5,1.5,0,0,1,210,424a1.18,1.18,0,0,1-.29-.49,4.61,4.61,0,0,1-.12-1.08l0-1.56h0c0-.39.21-.74.54-.76h0c.33,0,.56.35.57.75v.92c0,.37,0,.94,0,1.25l0,.11a.59.59,0,0,0,.26.36,1.12,1.12,0,0,0,.57.13h0a1.07,1.07,0,0,0,.55-.14.51.51,0,0,0,.2-.32,3.35,3.35,0,0,0,0-.63v-.07l0-1.63v0a.68.68,0,0,1,.53-.76h0c.31,0,.53.36.54.74l0,.86v.16c0,.38,0,.87,0,1.19m5.67,0a1.31,1.31,0,0,1-.87-.21l-2-1.42c-.24-.18-.39-.08-.31.21l.38,1.55a.53.53,0,0,1-.38.65.54.54,0,0,1-.64-.4l-.74-3a.53.53,0,0,1,.34-.65,1.33,1.33,0,0,1,.91.2l1.89,1.33c.25.17.39.07.32-.21l-.36-1.44a.53.53,0,1,1,1-.25l.74,3a.51.51,0,0,1-.3.64m2.77-.9,0-.07,0,.07h0c-.3.13-.65-.1-.81-.46l-1.17-2.57,0,0a.67.67,0,0,1,.18-.9h0c.3-.12.63.11.8.46l1.18,2.59h0a.67.67,0,0,1-.19.91m3.68-1.91h0l-.11.06a1,1,0,0,1-1-.16L222,418.2a.82.82,0,0,1-.2-.22.37.37,0,0,1,.1-.52h0a1,1,0,0,1,1,.16l1.54,1.23c.14.11.24.13.29.1s.08-.12,0-.29l-.35-1.93a1,1,0,0,1,.32-1h0a.35.35,0,0,1,.49.16.77.77,0,0,1,.1.28l.49,3.13a1.09,1.09,0,0,1-.26.9Zm5-3.86-1.5,1.32a.54.54,0,0,1-.77-.05l-2.05-2.32a.54.54,0,0,1,.05-.77l1.47-1.3c.22-.19.52-.23.66-.07s.07.45-.16.65l-.68.61a.45.45,0,1,0,.58.65l.62-.54a.48.48,0,0,1,.66-.07c.14.16.07.45-.16.65l-.61.54a.54.54,0,0,0-.08.74.53.53,0,0,0,.74,0l.72-.64a.41.41,0,1,1,.51.58m4-4.54h0a1.29,1.29,0,0,1-.93.46h-1.23l-.12,0a.68.68,0,0,0-.3.12,1.63,1.63,0,0,0-.29.32l0,0s0,.08.08.18a1.43,1.43,0,0,0,.33.31h0l.32.24h0a.64.64,0,0,1,.26.83h0a.64.64,0,0,1-.88,0l-2.27-1.69h0a.72.72,0,0,1-.14-1l.38-.5.09-.12c.22-.3.53-.7.74-.95a1.68,1.68,0,0,1,.32-.29,1.08,1.08,0,0,1,.67-.2,1.22,1.22,0,0,1,.68.24h0a1.07,1.07,0,0,1,.44.73,1.44,1.44,0,0,1-.19.89,2.09,2.09,0,0,1,.49-.15,5.5,5.5,0,0,1,.87,0h.33a.57.57,0,0,1,.34.1.29.29,0,0,1,0,.44m2.28-4.1a2.91,2.91,0,0,1-.3.87h0l-.06.11a2.22,2.22,0,0,1-1,1,1.58,1.58,0,0,1-1.24,0h0l.12-.26a.14.14,0,0,0,0-.06h0a.82.82,0,0,1,.77-.49l.19-.09a1.07,1.07,0,0,0,.49-.48s0,0,0-.05a1.08,1.08,0,0,0,.15-.6.45.45,0,0,0-.23-.37h0a.31.31,0,0,0-.23,0,.81.81,0,0,0-.3.2c-.08.08-.26.27-.52.57a2.76,2.76,0,0,1-.89.74,1.08,1.08,0,0,1-1,0h0a1.05,1.05,0,0,1-.44-.49,1.28,1.28,0,0,1-.1-.74,2.65,2.65,0,0,1,.28-.8h0l0-.09a2.22,2.22,0,0,1,1-1,1.22,1.22,0,0,1,1.07,0l0,0,0,0-.12.24v0c-.18.33-.48.57-.71.54l-.14.07a1,1,0,0,0-.4.43s0,0,0,.05a1.05,1.05,0,0,0-.14.56.26.26,0,0,0,.14.22h0a.27.27,0,0,0,.25,0,2.75,2.75,0,0,0,.65-.61,4.68,4.68,0,0,1,.76-.75,1.25,1.25,0,0,1,.64-.25,1.22,1.22,0,0,1,.66.14l0,0a1.14,1.14,0,0,1,.5.54,1.34,1.34,0,0,1,.11.8m1.39-3.07h0a.68.68,0,0,1-.88.3l-2.71-.83h0c-.37-.12-.64-.43-.56-.74h0a.68.68,0,0,1,.87-.29l2.72.84h0c.38.11.65.43.56.74m.94-3.9a.52.52,0,0,1-.63.4l-2.29-.47a.54.54,0,0,0-.64.43l-.09.42c-.06.29-.28.5-.48.45s-.33-.31-.27-.6l.6-2.94c.06-.29.28-.5.48-.46s.33.32.27.62l-.09.42a.56.56,0,0,0,.43.64l2.29.47a.52.52,0,0,1,.42.62M237,385.15a.9.9,0,1,1-.89.89.89.89,0,0,1,.89-.89m-1.29,7.53a.66.66,0,0,1,.38.11l1.37.87a2.36,2.36,0,0,0,1.19.32h0l.41,0h0c.39,0,.75.19.77.51h0c0,.32-.33.55-.72.57l-.42,0a2.42,2.42,0,0,0-1.16.44l-1.28,1a.64.64,0,0,1-.35.16c-.19,0-.32-.14-.34-.35h0a1.37,1.37,0,0,1,.55-1l.52-.38a.4.4,0,0,0,.18-.31.41.41,0,0,0-.21-.3l-.55-.31a1.34,1.34,0,0,1-.65-.92v0a.32.32,0,0,1,.29-.36m-3.91-17.83a1.06,1.06,0,0,1,.18-.22s.29-.13.38-.07a1.26,1.26,0,0,1,.29.28l2.54,3.5a1.14,1.14,0,0,1,.18.37c0,.09-.17.32-.27.4l-2.34,1.69c-.1.08-.39.19-.47.14a.88.88,0,0,1-.24-.23c-.06-.07-.18-.35-.13-.42a1,1,0,0,1,.26-.29l1.78-1.29c.1-.07.24-.22.23-.27s.1.09,0,0L232,375.34c-.08-.11-.21-.41-.17-.49m-4,2.36c.05,0,.3-.12.38-.07a1.51,1.51,0,0,1,.29.28l.3.43.16-.12,1.1-.8c.1-.08.38-.19.47-.14a.88.88,0,0,1,.24.23c.06.07.17.34.13.42a1.13,1.13,0,0,1-.26.28l-1,.69c-.1.07-.24.22-.22.27a1.08,1.08,0,0,0,.16.28l.13.18a2,2,0,0,0,.21.24.59.59,0,0,0,.33-.14l1-.69a1,1,0,0,1,.35-.16c.08,0,.31.17.36.25a.83.83,0,0,1,.14.3c0,.1-.17.33-.28.41l-1.09.79-.16.11.91,1.27a1.45,1.45,0,0,1,.19.37c0,.09-.14.29-.19.33s-.29.12-.37.07a1.16,1.16,0,0,1-.3-.29l-1.39-1.92-.79-1.09-.79-1.08a1.14,1.14,0,0,1-.18-.37c0-.09.13-.29.18-.33m-2.43-7.35c.06-.12.27-.36.37-.36a1,1,0,0,1,.35.1c.09,0,.33.25.33.34a1.24,1.24,0,0,1-.12.39c0,.12-.12.33-.09.37a1.27,1.27,0,0,0,.23.16.85.85,0,0,1,.28.22c.07.08,0,.35,0,.4s-.22.26-.32.25a1.06,1.06,0,0,1-.35-.09.65.65,0,0,0-.32-.08,1,1,0,0,0-.18.27l-.09.18c-.06.12-.27.37-.38.36a1,1,0,0,1-.34-.1c-.09,0-.33-.25-.33-.34a1,1,0,0,1,.11-.39Zm-4.86-1.18a1,1,0,0,1,.26-.32c.1-.09.13-.1.14-.1h0s0,0,0,0l0,0c-.17-.08-.17-.2-.17-.2a1.23,1.23,0,0,1,.06-.34s.21-.24.31-.24a1.54,1.54,0,0,1,.42.13l.41.21c.13.07.35.14.39.11a.37.37,0,0,0,.09-.09s.18-.19.28-.19a1.51,1.51,0,0,1,.38.12c.11.05.36.26.35.36a.84.84,0,0,1,0,.21s0,.15,0,.19a1,1,0,0,0,.29.19l.35.18c.12.06.39.28.39.38a.65.65,0,0,1-.05.27c0,.06-.21.25-.32.25l-.22,0s0,.06,0,.15v.08a.83.83,0,0,1-.11.4,1.32,1.32,0,0,1-1,.74,2,2,0,0,1-1.29-.19,2,2,0,0,1-.94-.95,1.36,1.36,0,0,1,0-1.24m-.89,2c0-.06.22-.26.32-.25a1.21,1.21,0,0,1,.41.13l4.09,2.08a1.23,1.23,0,0,1,.35.26c.07.08,0,.39-.07.51l-.67,1.32c-.06.11-.27.36-.37.35a1.08,1.08,0,0,1-.35-.1c-.09,0-.33-.24-.33-.34a1.29,1.29,0,0,1,.11-.39l.34-.67c.06-.12.13-.32.09-.36a1.43,1.43,0,0,0-.28-.19L220,371.38c-.13-.06-.39-.28-.39-.38a.78.78,0,0,1,.06-.29m2.4,6-.67.41c-2.6,1.68-2.64.43-3.17-2.35a21.61,21.61,0,0,1,3.84,1.94m-2.55,3.53.17.16a3.37,3.37,0,0,1,1.26,2.32,4,4,0,0,1-1.28,2.77,3.79,3.79,0,0,1-2.69,1,3.75,3.75,0,0,1-2.71-1.17,3.55,3.55,0,0,1-.84-2.62,3.49,3.49,0,0,1,1-2.65,2.74,2.74,0,0,1,2.25-.87,4,4,0,0,1,2.86,1M215.35,376c-.42,2.61-2.33,1.72-2.33,1.72-1.77-.58-6.55-2.12-2.85,1s.82,4.37-1.45,5-3,2.1.92,2,2.89,1.85,2.3,4.8,1.07,3.1,2.59.15,3.2-3.75,5.73-.47,2.51,1.49,1.75-1.2-.4-3.6,2.37-2.84,4.72,0,0-2.61c-3.62-2-1.88-4.06-.42-5.51a21.94,21.94,0,0,1,7.87,21.79c-2.27-3.81-4.36-5.62-6.54-5.71-2.42-.11-3.91,2-4.79,3.22l-.09.12a1.53,1.53,0,0,1-.16-.22,7.33,7.33,0,0,0-3.53-2.86c-3.47-1.06-6.88,3.86-7.84,5.39a1.75,1.75,0,0,0,3,1.87c1.37-2.17,3.22-3.9,3.85-3.9a4.65,4.65,0,0,1,1.76,1.66c.69.89,2.31,3,4.45,1.59a5.87,5.87,0,0,0,1.45-1.61c.47-.67,1.26-1.77,1.79-1.75.22,0,1.42.25,3.7,4.06a1.75,1.75,0,0,0,2.27.68,22.18,22.18,0,0,1-2.74,5.38c-2.22-2.86-4.45-4.54-6.53-4.62-3.09-.11-5,2.55-6.1,4.13l-.11.16-.21-.27a9.36,9.36,0,0,0-4.51-3.64c-2.17-.65-4.31.53-6.07,2.12a32.81,32.81,0,0,0-3-6.54c-1.47-2.38-1.2-3.39-1.27-5.65s.07-3,1.93-3.21,6.53,2.21,7.27-.4c.64-2.28-8-2.17-10.25-2.1a2.32,2.32,0,0,0,1.09-1.93,2.72,2.72,0,0,0-5.4,0,2.29,2.29,0,0,0,1.1,1.92,50.43,50.43,0,0,0-6.56.22,21.93,21.93,0,0,1,26-14c-.14.65-.27,1.35-.38,2.05m-8-9.86c0-.14.07-.45.17-.49a1.38,1.38,0,0,1,.43-.07h1.84c.14,0,.48.07.52.16a.8.8,0,0,1,.08.28c0,.06-.08.32-.17.36a1.37,1.37,0,0,1-.43.08h-.95c-.14,0-.37,0-.39.08a1,1,0,0,0,0,.31V369c0,.13,0,.35.08.36a1.33,1.33,0,0,0,.35,0h1.64a.78.78,0,0,0,.39-.08.82.82,0,0,0,0-.32v-2.9c0-.14.08-.45.17-.49a1,1,0,0,1,.33-.07c.08,0,.37.07.41.16a1.09,1.09,0,0,1,.08.4v.92c0,.13,0,.35.09.37a.47.47,0,0,0,.17,0s.19,0,.21-.08a1.08,1.08,0,0,0,0-.32v-.92c0-.14.08-.45.17-.49a1.09,1.09,0,0,1,.33-.07,1,1,0,0,1,.34.07c.09,0,.17.35.17.49v4.95c0,.13-.08.45-.17.49a1,1,0,0,1-.34.07c-.08,0-.38-.07-.42-.16a1.18,1.18,0,0,1-.08-.4v-2.35a.7.7,0,0,0-.08-.36l-.17,0s-.2,0-.22.08a1.13,1.13,0,0,0,0,.32v2.36c0,.13-.08.44-.17.48a1,1,0,0,1-.32.07c-.09,0-.38-.07-.42-.15a1.18,1.18,0,0,1-.08-.4v-.38a.78.78,0,0,0-.08-.37,1.39,1.39,0,0,0-.35,0h-2.23a4.63,4.63,0,0,1-.51,0,.36.36,0,0,1-.19-.07c-.13-.08-.15-.16-.15-.18a2.34,2.34,0,0,1,0-.25c0-.13,0-.35,0-.48Zm-5.47,6.09a.63.63,0,0,1,0,.41,1.68,1.68,0,0,1-.35.26l-3.9,2-.47.2a.39.39,0,0,1-.22,0,.36.36,0,0,1-.22-.13,1.67,1.67,0,0,1-.13-.21c-.07-.12-.17-.31-.23-.43l-.34-.67c-.06-.12-.13-.43-.07-.51a.85.85,0,0,1,.28-.22c.08,0,.39-.12.47-.06a1,1,0,0,1,.24.32l.26.5c.06.12.19.3.24.29a2,2,0,0,0,.33-.12l3.36-1.72a1.48,1.48,0,0,1,.41-.13c.1,0,.29.19.32.25m-3.35-4.5a1.18,1.18,0,0,1,.28-.23c.1,0,.4-.12.48-.06a1.23,1.23,0,0,1,.25.32l.13.26.44.86,1.1,2.15c.06.12.13.44.06.52a.85.85,0,0,1-.28.22c-.09.05-.39.12-.47.06l-.15-.12s-.08-.08-.13-.08a1.35,1.35,0,0,0-.33.13l-.41.2c-.13.07-.46.16-.54.1a.6.6,0,0,1-.19-.21.73.73,0,0,1-.06-.28c0-.09.27-.31.39-.38l.42-.21c.13-.06.31-.2.31-.25a1.13,1.13,0,0,0-.11-.3l-1.12-2.2c-.06-.11-.13-.43-.07-.5m-3.95,2.08a2.12,2.12,0,0,1,1-1,2,2,0,0,1,1.33-.21,1.4,1.4,0,0,1,1,.76,1.23,1.23,0,0,1,.14.62,1.45,1.45,0,0,1-.07.36h0s0,0,0,0l.24-.12c.12-.06.46-.15.54-.09a.9.9,0,0,1,.19.21.63.63,0,0,1,0,.41,1.68,1.68,0,0,1-.35.26l-.44.22c-.12.07-.32.2-.31.25a1,1,0,0,0,.11.3l.19.38c.06.11.13.43.07.51a1.18,1.18,0,0,1-.28.22c-.08,0-.39.12-.47.06a1.57,1.57,0,0,1-.25-.33l-.19-.37a.93.93,0,0,0-.18-.26s-.25,0-.38.1l-.92.47a1,1,0,0,1-.54.1.9.9,0,0,1-.19-.22c0-.06-.08-.33,0-.4a1.17,1.17,0,0,1,.3-.24c.11-.05.08-.13,0-.17l-.14-.08a1.35,1.35,0,0,1-.41-.48,1.38,1.38,0,0,1,0-1.31m-9.08,9.09,2.87-3.94c.08-.12.34-.35.43-.33a.71.71,0,0,1,.28.1s.22.25.19.35a1.27,1.27,0,0,1-.19.39l-2.34,3.22c-.09.12-.19.32-.17.37l.06.09a.28.28,0,0,0,.16,0,1.18,1.18,0,0,0,.23-.25l2.34-3.22c.08-.12.34-.35.44-.33a.72.72,0,0,1,.27.1c.05,0,.21.25.19.35a1.11,1.11,0,0,1-.2.39l-1,1.32c-.08.12-.1.26-.08.27l.09.07a.3.3,0,0,0,.19,0,1.28,1.28,0,0,0,.23-.26l1-1.38a1.73,1.73,0,0,1,.31-.3c.09-.05.35,0,.4.08s.22.26.2.36a1.68,1.68,0,0,1-.19.38l-.4.54c-.08.11,0,.19.1.17a1,1,0,0,1,.28,0l.09,0a1.31,1.31,0,0,1,.6.24,1.67,1.67,0,0,1,.69,1.2,1.08,1.08,0,0,1,0,.19,2.49,2.49,0,0,1-.49,1.55,2.43,2.43,0,0,1-1.34,1,1.65,1.65,0,0,1-1.54-.25,1.45,1.45,0,0,1-.48-.56,1.83,1.83,0,0,1-.12-.46v0h0l-.16.22-.36.49c-.08.11-.34.34-.43.33a1.28,1.28,0,0,1-.28-.1s-.22-.26-.19-.36a1.39,1.39,0,0,1,.19-.39l1-1.37a.8.8,0,0,0,.16-.36.52.52,0,0,0-.08-.11s-.15-.06-.19,0a1.52,1.52,0,0,0-.23.25l-.72,1a4,4,0,0,1-.33.39.35.35,0,0,1-.2.1.42.42,0,0,1-.26,0l-.21-.13c-.11-.07-.29-.19-.39-.27l-.35-.26c-.11-.07-.32-.33-.3-.43a1.35,1.35,0,0,1,.19-.38m-1.6,6.25a.9.9,0,0,1,0,1.79.9.9,0,0,1,0-1.79m-3,9.23a.54.54,0,0,1,.56-.51l2.33.06a.55.55,0,0,0,.56-.53V393c0-.3.19-.54.4-.54s.38.26.37.56l-.08,3c0,.3-.18.54-.4.53s-.37-.25-.36-.55v-.43a.55.55,0,0,0-.53-.56l-2.34-.05a.54.54,0,0,1-.53-.54m.26,5.4a2.16,2.16,0,1,1,2.5,2,2.23,2.23,0,0,1-2.5-2m2.25,7.4a1.28,1.28,0,0,1,.1-.89l1.16-2.17c.14-.26,0-.39-.25-.28l-1.49.58a.55.55,0,0,1-.7-.3.54.54,0,0,1,.32-.68l2.89-1.12a.52.52,0,0,1,.68.25,1.27,1.27,0,0,1-.08.93L185,405.55c-.14.26,0,.39.25.28l1.38-.53a.53.53,0,0,1,.69.29.54.54,0,0,1-.32.69l-2.89,1.11a.5.5,0,0,1-.67-.21m3.07,5.07a3.24,3.24,0,0,1-1-.9,2.18,2.18,0,1,1,3.61-2.33,4.06,4.06,0,0,1,.48,1,.81.81,0,0,1-.32.83l-.31.2a3.49,3.49,0,0,0-.54-1.52,1.33,1.33,0,0,0-1.94-.57,1.29,1.29,0,0,0-.24,1.89,1.4,1.4,0,0,0,.5.5c.23-.14.34-.38.25-.52a.37.37,0,0,1,.15-.47.49.49,0,0,1,.62.25l.31.47a.56.56,0,0,1-.16.76l-.52.34a1,1,0,0,1-.93,0" transform="translate(-177.66 -362.49)"/><path class="cls-1" d="M195.93,371a.92.92,0,0,0,.67-.08.9.9,0,0,0,.44-.48.73.73,0,0,0,0-.6.72.72,0,0,0-.48-.36.93.93,0,0,0-.65.07,1,1,0,0,0-.32.28,1.38,1.38,0,0,0-.18.46.62.62,0,0,0,.06.35.68.68,0,0,0,.47.36" transform="translate(-177.66 -362.49)"/><path class="cls-1" d="M219.87,382.71c0-.58-.46-1-.94-1.53l-.17-.17a2.89,2.89,0,0,0-2.06-.69,1.63,1.63,0,0,0-1.46.55,2.32,2.32,0,0,0-.64,1.84,2.5,2.5,0,0,0,.52,1.84,2.62,2.62,0,0,0,1.9.82,2.66,2.66,0,0,0,1.91-.7" transform="translate(-177.66 -362.49)"/><path class="cls-1" d="M231.68,410.69h0a.4.4,0,0,0-.32-.09.56.56,0,0,0-.32.17s-.12.15-.26.33l-.16.21,0,.05a.58.58,0,0,0,0,.8l0,0h0l0,0c.23.17.49.18.58.05h0l.6-.83a.64.64,0,0,0,.07-.15.42.42,0,0,0,0-.29.43.43,0,0,0-.17-.24" transform="translate(-177.66 -362.49)"/><path class="cls-1" d="M189.88,380.54a1,1,0,0,0,.82.15,1.25,1.25,0,0,0,.74-.5,1.21,1.21,0,0,0,.23-.85.92.92,0,0,0-.38-.74.93.93,0,0,0-.82-.13,1.23,1.23,0,0,0-.73.49,1.31,1.31,0,0,0-.25.85,1,1,0,0,0,.39.73" transform="translate(-177.66 -362.49)"/><path class="cls-1" d="M221.9,370.1a.87.87,0,0,0,.57.07.61.61,0,0,0,.41-.29.59.59,0,0,0,0-.52.87.87,0,0,0-1-.49.6.6,0,0,0-.41.31.58.58,0,0,0,0,.5.75.75,0,0,0,.38.42" transform="translate(-177.66 -362.49)"/><path d="M268.69,370.54h2.93V383h-2.93v-2.66H264a5.7,5.7,0,0,1-4.21,1.73c-3.18,0-5.6-2.18-5.58-5.22s2.4-5.15,5.58-5.13a5.67,5.67,0,0,1,4.2,1.69h4.7Zm-6.14,6.26a2.6,2.6,0,0,0-2.76-2.65,2.69,2.69,0,1,0,0,5.37A2.61,2.61,0,0,0,262.55,376.8Zm-5.34,9.41v-2.32h14.41v7.64h-2.93v-5.32Zm11.48-8.27v-2.2h-3.46a5.32,5.32,0,0,1,0,2.2Z" transform="translate(-177.66 -362.49)"/><path d="M286.25,381.63a49.79,49.79,0,0,1-10,.67h-1.76v-6.44h6.75v-1.74H274.5v-2.31h9.65v6.24h-6.69v1.85a48.5,48.5,0,0,0,8.48-.61Zm4.36,5.95c0,2.48-2.76,3.92-7.12,3.91s-7.18-1.43-7.18-3.91,2.74-4,7.18-4.05S290.61,385.06,290.61,387.58Zm-2.9,0c0-1.17-1.45-1.77-4.22-1.77s-4.3.6-4.28,1.77,1.48,1.73,4.28,1.72S287.71,388.72,287.71,387.58Zm5.54-11.77h-2.84v2h2.84v2.42h-2.84v3h-3V370.57h3v2.8h2.84Z" transform="translate(-177.66 -362.49)"/><path d="M304.93,372.75c0,6.35-2.24,11.64-9.74,15.18l-1.53-2.34c5.41-2.57,7.8-5.88,8.27-10.54h-7.14v-2.3Zm3.31-2.21h3v21h-3Z" transform="translate(-177.66 -362.49)"/><path d="M324.19,372.05v10.62H314V372.05H317v3h4.3v-3Zm-4.81,12.38v4.36h11.43v2.37H316.45v-6.73Zm1.88-4.07v-3H317v3Zm8.8-3.89h2.82v2.42h-2.82V386h-2.95V370.57h2.95Z" transform="translate(-177.66 -362.49)"/><path d="M349.79,372.77v2.31H338.14v-2.31h4.52v-2.25h2.92v2.25Zm-5.7,11.29c-2.85,0-4.93-1.69-4.91-4.11s2.06-4.12,4.91-4.12,5,1.71,5,4.12S347,384.06,344.09,384.06Zm.69,4.73h11.44v2.37H341.81v-6h3Zm-.69-7c1.26,0,2.19-.65,2.21-1.86s-.95-1.83-2.21-1.84-2.18.66-2.18,1.84S342.8,381.81,344.09,381.81Zm8.75,4.74v-4H350v-2.33h2.84v-2.1H350v-2.38h2.84v-5.21h2.93v16Z" transform="translate(-177.66 -362.49)"/><path d="M359.1,383.1l-1.49-2.32a6.81,6.81,0,0,0,5.08-6.48h-4.28V372h11.43v2.35h-4.18c0,2.45,1.5,4.81,4.84,5.8l-1.4,2.3a7.8,7.8,0,0,1-4.86-3.9A8.27,8.27,0,0,1,359.1,383.1Zm15.66,4.34c0,2.56-2.71,4.09-7.08,4.08s-7.19-1.52-7.18-4.08,2.75-4.05,7.18-4S374.76,384.89,374.76,387.44Zm-2.9,0c0-1.18-1.45-1.76-4.18-1.75s-4.25.57-4.24,1.75,1.49,1.8,4.24,1.79S371.86,388.64,371.86,387.44Zm2.7-12h2.82v2.39h-2.82V383h-2.95V370.54h2.95Z" transform="translate(-177.66 -362.49)"/><path d="M396.88,382.43h-8.13V384c3.65.27,5.82,1.58,5.83,3.74,0,2.44-2.77,3.8-7.31,3.79s-7.34-1.35-7.34-3.79c0-2.17,2.19-3.48,5.91-3.74v-1.56h-8.09v-2.35h19.13ZM378.59,377c3.87-.33,6-1.76,6.56-3.21h-5.67v-2.32h15.67v2.32h-5.72c.52,1.47,2.66,2.88,6.63,3.21l-1,2.31c-4-.37-6.63-1.87-7.76-3.91-1.11,2-3.74,3.54-7.71,3.91Zm8.68,9.19c-2.9,0-4.36.53-4.34,1.57s1.44,1.58,4.34,1.57,4.35-.54,4.36-1.57S390.12,386.17,387.27,386.16Z" transform="translate(-177.66 -362.49)"/><path d="M398.93,382l-1.44-2.31a6.59,6.59,0,0,0,5.06-6.36v-2h3.05v2c0,2.55,1.54,5,4.92,6l-1.43,2.25a7.87,7.87,0,0,1-5-4.05A8.21,8.21,0,0,1,398.93,382Zm2.14,9.26v-7.93h14.05v7.93Zm2.9-5.6v3.25h8.27v-3.25Zm8.2-15.12h2.95V382.4h-2.95Z" transform="translate(-177.66 -362.49)"/><path d="M266.16,414.9h6.92v2.38H254V414.9H258v-6.6H261v6.6h2.31v-6.6h2.9Zm1.51-2.76a47.63,47.63,0,0,0,.72-9.11H255.84v-2.34h15.5v2.06a49.47,49.47,0,0,1-.78,9.66Z" transform="translate(-177.66 -362.49)"/><path d="M292.9,411h-4.62v2h2.29v6.89h-2.94v-4.6H275.89V413h2.4v-2h-4.52v-2.32H292.9Zm-17.21-7.6c0-2.55,3-4.13,7.63-4.13s7.62,1.58,7.63,4.13-3,4.16-7.63,4.15S275.68,406,275.69,403.41Zm3.05,0c0,1.25,1.66,1.88,4.58,1.89s4.6-.64,4.6-1.89-1.7-1.84-4.6-1.84S278.73,402.22,278.74,403.41Zm6.64,9.56v-2h-4.14v2Z" transform="translate(-177.66 -362.49)"/><path d="M300.16,413.09c2.06-.09,4.15-.24,6.08-.48l.17,2.17a76.32,76.32,0,0,1-12.72.79l-.28-2.34c1.18,0,2.49,0,3.85-.05V407h2.9Zm1.76-2.62a43.21,43.21,0,0,0,.53-7.15h-7.94V401h10.87v1.69a48.15,48.15,0,0,1-.57,8Zm11.13-3.17v2.46H310.2v10.1h-3v-21h3v8.43Z" transform="translate(-177.66 -362.49)"/><path d="M314.81,411.34,313.28,409a7,7,0,0,0,5.06-6.5h-4.2v-2.36h11.37v2.36h-4.18a6.49,6.49,0,0,0,4.83,6l-1.45,2.32a8,8,0,0,1-4.83-4.16A8.28,8.28,0,0,1,314.81,411.34Zm16.34,4.5c0,2.54-2.74,4-7.23,4s-7.21-1.5-7.2-4,2.74-4,7.2-4S331.14,413.3,331.15,415.84Zm-2.92,0c0-1.2-1.52-1.81-4.31-1.81s-4.28.61-4.27,1.81,1.49,1.8,4.27,1.79S328.23,417,328.23,415.84ZM324.88,404h3.28v-5.12h2.93v12.47h-2.93v-5h-3.28Z" transform="translate(-177.66 -362.49)"/><path d="M351,410.85a75.49,75.49,0,0,1-12.91.88l-.26-2.33c1.18,0,2.5,0,3.89,0v-4.11h2.92v4c2.1-.09,4.24-.26,6.21-.54Zm-4.51-3.25a27.17,27.17,0,0,0,.49-4.8h-7.92v-2.4h10.81v1.31a35.58,35.58,0,0,1-.48,6.15Zm-2.63,5.58v3.94h11.79v2.37H340.9v-6.31ZM355,405.27h2.55v2.46H355v6.85h-3V398.87h3Z" transform="translate(-177.66 -362.49)"/><path d="M362.08,412.57a53.3,53.3,0,0,0,9-.71l.25,2.39a56.87,56.87,0,0,1-10.39.74h-1.88v-8.58H366V403h-7v-2.37h10v8.08h-6.92Zm10.49-13.7h2.92v21h-2.92Z" transform="translate(-177.66 -362.49)"/><path d="M385.91,403.63c0,3.85,1.73,7.71,5.3,9.21l-1.74,2.36a9.82,9.82,0,0,1-5-5.77,10,10,0,0,1-5.21,6.28l-1.78-2.44c3.67-1.55,5.44-5.57,5.46-9.64v-3.14h3Zm6.41-4.76h3v21h-3Z" transform="translate(-177.66 -362.49)"/><path d="M397.57,414.86h19.18v2.42H397.57Zm1.75-3.61-1.27-2.44c4.66-.83,7.4-4.12,7.42-7.17v-1.51h3.13v1.51c0,3.08,2.72,6.36,7.47,7.17l-1.3,2.44a10.66,10.66,0,0,1-7.72-5.47A10.88,10.88,0,0,1,399.32,411.25Z" transform="translate(-177.66 -362.49)"/><path d="M427.22,410.07a39.9,39.9,0,0,1-7.58.51h-1.42V400.12h8v2.37h-5.16v1.68h4.39v2.24h-4.39v1.83a37.1,37.1,0,0,0,5.89-.45Zm-6.12,9.55v-7.4h14.31v7.4Zm2.92-5.09v2.74h8.48v-2.74Zm4.43-3.28v-5h-2.12v-2.36h2.12V399.2h2.79v12.05Zm4.17-12.38h2.79v12.52h-2.79Z" transform="translate(-177.66 -362.49)"/></svg>