<svg id="신규로고확정" xmlns="http://www.w3.org/2000/svg" viewBox="0 0 139.84 31.98"><defs><style>.cls-1{fill:#024894;}</style></defs><path class="cls-1" d="M230.84,674.72a3.66,3.66,0,0,0-1.17-.2H225a3.43,3.43,0,0,1-.95-.1c-.13,0-.23-.4-.23-.47s0-.22,0-.32.33-.26.72-.26h4.51a3.68,3.68,0,0,0,1.18-.2c.26-.11.47-.82.47-1a2.09,2.09,0,0,0-.21-.75c-.12-.24-1.05-.44-1.44-.44H218.11a3.3,3.3,0,0,1-.94-.1c-.13,0-.24-.36-.24-.38a1.48,1.48,0,0,1,.11-.26c.06-.12.68-.22,1.07-.22h11a3.66,3.66,0,0,0,1.17-.2c.26-.1.47-.83.47-1a2.08,2.08,0,0,0-.21-.76c-.11-.25-1.05-.45-1.43-.45h-13.4a3.68,3.68,0,0,0-1.18.2c-.26.11-.47,1-.47,1.34v1.21c0,.36,0,.95,0,1.31,0,0,0,.32.06.68a1.15,1.15,0,0,0,.33.63,1.1,1.1,0,0,0,.55.3,11,11,0,0,0,1.4.1h3.35a3.3,3.3,0,0,1,.94.1c.13,0,.24.4.24.48a1.05,1.05,0,0,1-.11.35c-.06.12-.68.22-1.07.22h-4.66a3.68,3.68,0,0,0-1.18.2c-.25.11-.47.83-.47,1a2.16,2.16,0,0,0,.22.77c.11.24,1,.44,1.43.44h2.41s.06,0,0,.06l0,0a5.22,5.22,0,0,0-.81,1,4.09,4.09,0,0,0-.5,2,4.69,4.69,0,0,0,1.93,3.84,6.77,6.77,0,0,0,4.31,1.42,6.67,6.67,0,0,0,4.24-1.42,4.7,4.7,0,0,0,1.94-3.84,4,4,0,0,0-.52-2,3.68,3.68,0,0,0-.45-.63c-.26-.26-.16-.48.23-.48h1.82a3.66,3.66,0,0,0,1.17-.2c.26-.11.47-.83.47-1s-.21-.9-.47-1M225.68,680a2.54,2.54,0,0,1-1,2,3.31,3.31,0,0,1-2.27.85,3.36,3.36,0,0,1-2.29-.84,2.61,2.61,0,0,1,0-4.11,3.53,3.53,0,0,1,2.29-.8,3.4,3.4,0,0,1,2.27.81,2.56,2.56,0,0,1,1,2" transform="translate(-176.4 -663.21)"/><path class="cls-1" d="M240.08,676.36a2.84,2.84,0,0,1,.11.88v1.15a3,3,0,0,0,.21,1.1c.11.24.95.44,1.22.44a2.94,2.94,0,0,0,.95-.2c.26-.11.47-1,.47-1.34v-1.15a2.84,2.84,0,0,1,.11-.88c.06-.12.68-.22,1.07-.22h1.35a3.68,3.68,0,0,0,1.18-.2c.25-.11.47-.82.47-1a2.22,2.22,0,0,0-.22-.77c-.11-.24-1-.43-1.42-.43h-.74s-.05,0,0-.05l0,0a3.74,3.74,0,0,0,.62-.78,3.43,3.43,0,0,0,.43-1.69,3.89,3.89,0,0,0-1.62-3.19,5.65,5.65,0,0,0-3.52-1.14A6,6,0,0,0,237.1,668a3.87,3.87,0,0,0-1.65,3.19,3.35,3.35,0,0,0,.66,2.07c.26.26.22.49-.09.49a3.42,3.42,0,0,0-1,.19c-.26.11-.47.83-.47,1a2.08,2.08,0,0,0,.21.77c.12.24,1.05.44,1.44.44H239c.39,0,1,.1,1.07.22m-1.58-6.13a4,4,0,0,1,1-.89,2.44,2.44,0,0,1,1.15-.28,2.47,2.47,0,0,1,1.68.63,1.88,1.88,0,0,1,0,2.94,2.46,2.46,0,0,1-1.68.65,2.5,2.5,0,0,1-1.74-.66,1.9,1.9,0,0,1-.7-1.45,1.63,1.63,0,0,1,.29-.94" transform="translate(-176.4 -663.21)"/><path class="cls-1" d="M251.5,682a3.56,3.56,0,0,0-1.17-.2H240a3.3,3.3,0,0,1-.94-.1c-.13-.05-.24-.63-.24-1v-1.56a2.94,2.94,0,0,0-.21-1.09c-.11-.24-.95-.44-1.21-.44a3.21,3.21,0,0,0-1,.19c-.26.11-.47,1-.47,1.34v2.08c0,.36,0,1,0,1.32,0,0,0,.31.06.68a1.14,1.14,0,0,0,.35.61,1.06,1.06,0,0,0,.54.29,11.14,11.14,0,0,0,1.41.1h12a3.56,3.56,0,0,0,1.17-.2c.26-.11.48-.83.48-1s-.22-.9-.48-1" transform="translate(-176.4 -663.21)"/><path class="cls-1" d="M245,677.46a1.41,1.41,0,0,0,0,1.51c.11.24,1,.44,1.43.44h1.28a3.3,3.3,0,0,1,.94.1c.13,0,.24.35.24.37a3.87,3.87,0,0,0,.21.47c.12.24,1,.44,1.23.44a3,3,0,0,0,1-.2c.26-.1.47-1,.47-1.33V669.15a3,3,0,0,0-.21-1.1c-.12-.24-.95-.44-1.23-.44a3,3,0,0,0-1,.2c-.26.11-.47,1-.47,1.34v6.77a2.84,2.84,0,0,1-.11.88c0,.12-.68.22-1.07.22h-1.28c-.39,0-1.32.2-1.43.44" transform="translate(-176.4 -663.21)"/><path class="cls-1" d="M272.48,667.8a2.17,2.17,0,0,0-1.82,0c-.26.11-.48,1-.48,1.34v2.55a2.87,2.87,0,0,1-.1.88c-.06.12-.47.22-.6.22a1.32,1.32,0,0,1-.47-.1c-.13-.05-.23-.63-.23-1v-2.55a2.93,2.93,0,0,0-.22-1.09c-.12-.25-.91-.45-1.14-.45a2.77,2.77,0,0,0-.89.2c-.25.11-.47,1-.47,1.34v8a2.92,2.92,0,0,1-.1.88c-.06.12-.68.22-1.07.22h-4.53a3.81,3.81,0,0,1-.95-.1c-.13-.06-.24-.64-.24-1v-6a2.84,2.84,0,0,1,.11-.88,2.15,2.15,0,0,1,1.08-.22H263a3.66,3.66,0,0,0,1.17-.2c.26-.1.47-.83.47-1a2.08,2.08,0,0,0-.21-.76c-.11-.25-1.05-.45-1.43-.45h-5.07a3.68,3.68,0,0,0-1.18.2c-.25.11-.47,1-.47,1.34v8.74c0,.36,0,1,0,1.31a6.26,6.26,0,0,0,.09.69c0,.06.07.27.43.49a1.32,1.32,0,0,0,.52.21c.39,0,1,.06,1.41.06h6.14a3.72,3.72,0,0,1,.94.1c.13.06.23.64.23,1v1a3,3,0,0,0,.22,1.1c.11.24.91.44,1.14.44a2.71,2.71,0,0,0,.88-.2c.26-.11.48-1,.48-1.34v-6.47a2.87,2.87,0,0,1,.1-.88c.06-.12.47-.22.6-.22a1.32,1.32,0,0,1,.47.1c.13.05.23.63.23,1v6.46a2.89,2.89,0,0,0,.22,1.09c.11.25.93.45,1.17.45a2.82,2.82,0,0,0,.91-.2c.26-.11.47-1,.47-1.34V669.14c0-.36-.21-1.23-.47-1.34" transform="translate(-176.4 -663.21)"/><path class="cls-1" d="M278,671.2a2.87,2.87,0,0,0-.22,1.12,3.71,3.71,0,0,0,1.55,3,5.56,5.56,0,0,0,3.46,1.12,5.28,5.28,0,0,0,3.4-1.13,3.74,3.74,0,0,0,1.51-3,2.62,2.62,0,0,0-.25-1.13l-.09-.2c-.13-.2-.19-.37-.14-.37a2.6,2.6,0,0,0,.58-.2c.26-.11.48-.82.48-1a2.27,2.27,0,0,0-.21-.74c-.12-.24-1.05-.44-1.44-.44h-1.08a3.72,3.72,0,0,1-.94-.1c-.13-.06-.24-.39-.24-.46a2.13,2.13,0,0,0-.21-.56c-.12-.24-1-.44-1.32-.44a3.56,3.56,0,0,0-1.06.19c-.26.11-.47.74-.47.81a1.22,1.22,0,0,1-.1.34,2.15,2.15,0,0,1-1.08.22h-1.28a3.68,3.68,0,0,0-1.18.2c-.26.1-.47.81-.47,1a2.91,2.91,0,0,0,.29.9s.13.28.65.28h.09a.09.09,0,0,1,.05.09l-.06.07s-.07.07-.22.42m2.63,1.2a1.6,1.6,0,0,1,.63-1.26,2.34,2.34,0,0,1,2.94,0,1.59,1.59,0,0,1,.64,1.26,1.56,1.56,0,0,1-.64,1.22,2.27,2.27,0,0,1-2.94,0,1.57,1.57,0,0,1-.63-1.22" transform="translate(-176.4 -663.21)"/><path class="cls-1" d="M293.59,677.37a3.87,3.87,0,0,0-1.17-.19h-12.6a4,4,0,0,0-1.18.19c-.27.11-.48.84-.48,1a2.34,2.34,0,0,0,.21.78c.12.24,1.06.44,1.45.44H290a3.3,3.3,0,0,1,.94.1c.13,0,.23.63.23,1v2.06a2.93,2.93,0,0,0,.22,1.09c.11.25,1,.45,1.22.45a3.16,3.16,0,0,0,1-.2c.27-.11.48-1,.48-1.34v-4.06c0-.37-.21-1.24-.48-1.35" transform="translate(-176.4 -663.21)"/><path class="cls-1" d="M296,670.43a3,3,0,0,0-1-.2,2.77,2.77,0,0,1-.75-.09c-.13-.06-.23-.64-.23-1a3.17,3.17,0,0,0-.21-1.1c-.12-.24-1-.44-1.24-.44a3.27,3.27,0,0,0-1,.19c-.25.11-.47,1-.47,1.35v5.17a2.93,2.93,0,0,0,.22,1.09c.11.24,1,.44,1.22.44a2.67,2.67,0,0,0,1-.2c.27-.1.48-1,.48-1.33v-.56a3.23,3.23,0,0,1,.1-.88c.06-.12.6-.22.88-.22a3,3,0,0,0,1-.2c.26-.11.47-.83.47-1s-.21-.9-.47-1" transform="translate(-176.4 -663.21)"/><path class="cls-1" d="M315.77,681.94a3.68,3.68,0,0,0-1.18-.2h-4.54c0-.21,0-.41,0-.58v-3.95c0-.36-.22-1.22-.48-1.34a3.09,3.09,0,0,0-.95-.19c-.27,0-1.1.2-1.22.44a3.15,3.15,0,0,0-.21,1.09v3.44c0,.36-.11.94-.23,1a3.38,3.38,0,0,1-1,.1h-.64a3.3,3.3,0,0,1-.94-.1c-.13,0-.23-.63-.23-1v-3.44a3.15,3.15,0,0,0-.21-1.09c-.12-.24-.95-.44-1.22-.44a3.21,3.21,0,0,0-1,.19c-.26.12-.47,1-.47,1.34v3.95c0,.17,0,.37,0,.58h-1.52a3.56,3.56,0,0,0-1.17.2c-.26.11-.47.83-.47,1s.21.9.47,1a3.56,3.56,0,0,0,1.17.2h14.75a3.68,3.68,0,0,0,1.18-.2c.26-.11.47-.83.47-1s-.21-.9-.47-1" transform="translate(-176.4 -663.21)"/><path class="cls-1" d="M314.62,667.78a3.68,3.68,0,0,0-1.18-.2H300.83a3.68,3.68,0,0,0-1.18.2c-.25.11-.47.84-.47,1a2.16,2.16,0,0,0,.22.78c.11.24,1,.44,1.43.44H312c.39,0-.13,0,0,.1s.23.63.23,1v6.42a3.26,3.26,0,0,0,.21,1.1c.12.24,1,.44,1.23.44a3.29,3.29,0,0,0,1-.2c.25-.11.47-1,.47-1.34v-8.42c0-.36-.22-1.23-.47-1.34" transform="translate(-176.4 -663.21)"/><path class="cls-1" d="M218.61,688c0,.27-.31.49-.69.49h-.55a.69.69,0,0,0-.69.69v3a.67.67,0,1,1-1.33,0v-3a.69.69,0,0,0-.69-.69h-.55c-.38,0-.69-.22-.69-.49s.31-.49.69-.49h3.81c.38,0,.69.22.69.49" transform="translate(-176.4 -663.21)"/><path class="cls-1" d="M310.22,688c0,.27-.31.49-.69.49H309a.69.69,0,0,0-.69.69v3a.67.67,0,1,1-1.33,0v-3a.69.69,0,0,0-.7-.69h-.54c-.38,0-.69-.22-.69-.49s.31-.49.69-.49h3.81c.38,0,.69.22.69.49" transform="translate(-176.4 -663.21)"/><path class="cls-1" d="M221.74,692.92a2.76,2.76,0,1,1,3-2.74,2.85,2.85,0,0,1-3,2.74m0-4.37a1.63,1.63,0,1,0,1.68,1.63,1.56,1.56,0,0,0-1.68-1.63" transform="translate(-176.4 -663.21)"/><path class="cls-1" d="M231.16,692.15a.65.65,0,0,1-.56.7,1.55,1.55,0,0,1-1-.53L227.54,690c-.25-.29-.45-.22-.45.16v2a.67.67,0,1,1-1.33,0v-3.94a.66.66,0,0,1,.61-.7,1.64,1.64,0,0,1,1.06.53l1.94,2.21c.25.29.46.21.46-.17v-1.87a.68.68,0,0,1,.66-.7.69.69,0,0,1,.67.7Z" transform="translate(-176.4 -663.21)"/><path class="cls-1" d="M237.44,689.05a4.54,4.54,0,0,0-2-.5c-1.45,0-2,.89-2,1.69a1.64,1.64,0,0,0,1.85,1.57,1.9,1.9,0,0,0,.88-.19c0-.35-.17-.63-.38-.63a.44.44,0,0,1-.39-.48c0-.27.31-.5.69-.5h.72a.7.7,0,0,1,.69.7v.8a1.27,1.27,0,0,1-.61,1,4,4,0,0,1-1.63.4c-1.86,0-3.18-1.14-3.18-2.73s1.31-2.75,3.21-2.75a5,5,0,0,1,1.45.22,1,1,0,0,1,.65.92Z" transform="translate(-176.4 -663.21)"/><path class="cls-1" d="M241.32,692.29c-.16.35-.42.63-.58.63s-.41-.29-.56-.64l-1.8-4.13a.43.43,0,0,1,.42-.64h0a1.15,1.15,0,0,1,1,.64l.71,1.68c.15.35.41.35.57,0l.78-1.69a1.08,1.08,0,0,1,.83-.63,1.1,1.1,0,0,1,.83.63l.78,1.69c.16.35.41.35.56,0l.71-1.68a1.15,1.15,0,0,1,1-.64h0a.43.43,0,0,1,.42.64l-1.79,4.13c-.15.35-.4.64-.56.64s-.42-.28-.59-.63L243,690.06c-.16-.34-.43-.34-.59,0Z" transform="translate(-176.4 -663.21)"/><path class="cls-1" d="M250.2,692.92a2.76,2.76,0,1,1,3.05-2.74,2.84,2.84,0,0,1-3.05,2.74m0-4.37a1.63,1.63,0,1,0,1.68,1.63,1.56,1.56,0,0,0-1.68-1.63" transform="translate(-176.4 -663.21)"/><path class="cls-1" d="M259.62,692.15a.65.65,0,0,1-.57.7,1.6,1.6,0,0,1-1-.53L256,690c-.25-.29-.45-.22-.45.16v2a.67.67,0,1,1-1.33,0v-3.94a.66.66,0,0,1,.61-.7,1.69,1.69,0,0,1,1.07.53l1.93,2.21c.25.29.45.21.45-.17v-1.87a.67.67,0,1,1,1.34,0Z" transform="translate(-176.4 -663.21)"/><path class="cls-1" d="M275.84,692.15a.65.65,0,0,1-.56.7,1.57,1.57,0,0,1-1-.53l-2-2.36c-.26-.29-.46-.22-.46.16v2a.67.67,0,1,1-1.33,0v-3.94a.67.67,0,0,1,.61-.7,1.64,1.64,0,0,1,1.07.53l1.93,2.21c.25.29.46.21.46-.17v-1.87a.67.67,0,1,1,1.33,0Z" transform="translate(-176.4 -663.21)"/><path class="cls-1" d="M289.9,692.36c0,.27-.31.49-.69.49h-2.55a.7.7,0,0,1-.69-.7v-3.94a.7.7,0,0,1,.69-.7h2.49c.38,0,.7.22.7.49s-.32.49-.7.49H288a.65.65,0,0,0-.7.56.65.65,0,0,0,.7.56H289c.38,0,.69.22.69.49s-.31.49-.69.49H288a.64.64,0,1,0,0,1.28h1.22c.38,0,.69.22.69.49" transform="translate(-176.4 -663.21)"/><path class="cls-1" d="M269,688.35c0-.49-.27-.93-.67-1h-.05c-.42,0-.69.46-.69,1v2.19a4.8,4.8,0,0,1-.05.8.62.62,0,0,1-.27.4,1.14,1.14,0,0,1-.7.17h0a1.26,1.26,0,0,1-.71-.17.75.75,0,0,1-.33-.47l0-.13c0-.4,0-1.13,0-1.6v-1.17c0-.51-.29-1-.7-1h0c-.41,0-.69.46-.69,1h0v2a6,6,0,0,0,.12,1.38,1.55,1.55,0,0,0,.37.64,1.94,1.94,0,0,0,.73.48,3.59,3.59,0,0,0,1.28.18h.06a3.8,3.8,0,0,0,1.18-.18,1.9,1.9,0,0,0,.73-.46,1.48,1.48,0,0,0,.38-.72,2.39,2.39,0,0,0,.07-.52c0-.41,0-1,0-1.51v-1.3Z" transform="translate(-176.4 -663.21)"/><path class="cls-1" d="M278.56,688.45c0-.49-.28-.93-.68-1h0c-.41,0-.68.46-.68,1v3.63c0,.5.29.94.7,1h0v0c.41,0,.69-.46.69-1h0Z" transform="translate(-176.4 -663.21)"/><path class="cls-1" d="M304.56,688.45c0-.49-.28-.93-.68-1h-.06c-.41,0-.68.46-.68,1,0,0,0,0,0,0v3.6c0,.5.29.95.7.95h0a.87.87,0,0,0,.7-1h0Z" transform="translate(-176.4 -663.21)"/><path class="cls-1" d="M284.45,687.55h0a1.23,1.23,0,0,0-1,.84l-.87,2.33c-.07.21-.17.3-.24.3s-.17-.09-.25-.3l-.88-2.34a1.25,1.25,0,0,0-1-.84h0a.47.47,0,0,0-.46.5,1.07,1.07,0,0,0,.08.37l1.47,3.74a1.27,1.27,0,0,0,1,.83h.17l0,0a1.36,1.36,0,0,0,.87-.81l1.5-3.74a1.08,1.08,0,0,0,.08-.38.44.44,0,0,0-.43-.49" transform="translate(-176.4 -663.21)"/><path class="cls-1" d="M296.16,692.17l-.24-.34a7.23,7.23,0,0,0-.69-.87,3.29,3.29,0,0,0-.53-.38,1.88,1.88,0,0,0,1.05-.49,1.37,1.37,0,0,0,.4-1v0a1.45,1.45,0,0,0-.27-.87,1.42,1.42,0,0,0-.72-.53,2.44,2.44,0,0,0-.54-.1c-.41,0-1.06,0-1.53,0h-1a.91.91,0,0,0-.91.91v0l0,3.61c0,.49.28.9.65.9h0c.37,0,.64-.42.64-.9h0v-.53a2.24,2.24,0,0,1,.07-.58c0-.15.11-.22.12-.21h0a2.32,2.32,0,0,1,.55,0,1,1,0,0,1,.34.21l.12.11.95,1.24a1.65,1.65,0,0,0,1.19.59h0c.26,0,.42-.14.42-.35a.74.74,0,0,0-.16-.43m-2-2.41-1.3,0h0c-.2,0-.39-.26-.39-.62h0c0-.33.35-.62.8-.62h.41a4.87,4.87,0,0,1,.54,0,.69.69,0,0,1,.42.19.54.54,0,0,1,.15.4h0a.61.61,0,0,1-.11.36.58.58,0,0,1-.31.21.85.85,0,0,1-.2,0" transform="translate(-176.4 -663.21)"/><path class="cls-1" d="M301.78,690.46a1.78,1.78,0,0,0-.66-.58,6.84,6.84,0,0,0-1.3-.42,3.25,3.25,0,0,1-1.07-.38.35.35,0,0,1-.15-.28h0a.34.34,0,0,1,.17-.29,1.37,1.37,0,0,1,.72-.16h.06a1.23,1.23,0,0,1,.73.19l.15.11a1.12,1.12,0,0,0,1,.49h.43v0a1.56,1.56,0,0,0-.58-1.23,2.84,2.84,0,0,0-1.7-.5h-.14a3.4,3.4,0,0,0-1.07.16,1.71,1.71,0,0,0-.78.54,1.29,1.29,0,0,0-.28.79,0,0,0,0,0,0,0,1.43,1.43,0,0,0,.54,1.1,3.6,3.6,0,0,0,1.36.57c.5.12.81.21.95.26a.86.86,0,0,1,.4.23.36.36,0,0,1,.1.27v0a.55.55,0,0,1-.28.46,1.29,1.29,0,0,1-.77.19h-.06a1.35,1.35,0,0,1-.83-.26l-.21-.17a1.07,1.07,0,0,0-1-.58h-.09l-.36,0v0a2,2,0,0,0,.71,1.42,2.81,2.81,0,0,0,1.74.52h.17a3.57,3.57,0,0,0,1.16-.16,1.67,1.67,0,0,0,.84-.59,1.49,1.49,0,0,0,.32-.88v-.06a1.49,1.49,0,0,0-.22-.83" transform="translate(-176.4 -663.21)"/><path class="cls-1" d="M315.6,687.49h0a1.68,1.68,0,0,0-1.21.77l-.43.67a.48.48,0,0,1-.39.25.46.46,0,0,1-.38-.24l-.45-.68a1.78,1.78,0,0,0-1.26-.76h0a.42.42,0,0,0-.45.4.82.82,0,0,0,.17.46l1.2,1.68a3.27,3.27,0,0,1,.48,1.51v.53c0,.5.28.94.69.95h0c.41,0,.69-.46.69-1h0v-.54a3.15,3.15,0,0,1,.47-1.49l1.19-1.69a.87.87,0,0,0,.17-.47.41.41,0,0,0-.45-.39" transform="translate(-176.4 -663.21)"/><path class="cls-1" d="M186,690.17a.62.62,0,1,0-.61,1.08.61.61,0,0,0,.87-.22.6.6,0,0,0-.26-.86" transform="translate(-176.4 -663.21)"/><path class="cls-1" d="M179.77,681.17a.59.59,0,0,0-.71-.54.65.65,0,0,0,.2,1.28.6.6,0,0,0,.51-.74" transform="translate(-176.4 -663.21)"/><path class="cls-1" d="M192.39,695.19a16,16,0,1,0-16-16,16,16,0,0,0,16,16M183,690.08s0-.18,0-.32l.29-.91c0-.14,0-.21-.17-.15l-.88.35c-.14.05-.28.07-.33,0a.42.42,0,0,1,0-.33l.57-1.63a.16.16,0,0,1,.28-.07h0a.45.45,0,0,1,.11.43l-.24.66c-.05.14,0,.21.16.15l.66-.27a.4.4,0,0,1,.4,0,.42.42,0,0,1,.07.39l-.22.68c-.05.14,0,.2.16.14l.63-.28a.44.44,0,0,1,.44.07h0a.16.16,0,0,1-.05.29l-1.58.7c-.13.06-.28.08-.32,0m5.12-1.94a1.1,1.1,0,0,0,1.51-.35c.85-1.36,2-2.44,2.39-2.44a2.84,2.84,0,0,1,1.1,1c.43.56,1.45,1.87,2.78,1a4.07,4.07,0,0,0,.9-1c.29-.42.78-1.11,1.11-1.1.11,0,.77.33,1.8,1.76a10.68,10.68,0,0,1-15.84-1.32,6.68,6.68,0,0,1,1.69-2.88,5.79,5.79,0,0,1,3,2.69c-.35.45-.62.87-.79,1.13a1.1,1.1,0,0,0,.35,1.51M185,678.33a4.16,4.16,0,0,1-.62,2.76,16.46,16.46,0,0,0-1.46,3.09,10.67,10.67,0,0,1-1.23-5,10.84,10.84,0,0,1,.2-2.07,15.87,15.87,0,0,1,2.17-.37c.91.09,1,.46.94,1.57m1.73,12.95a1.18,1.18,0,1,1-.5-1.48,1.09,1.09,0,0,1,.5,1.48m2.73.14-.46,1.44a.24.24,0,0,1-.28.19.58.58,0,0,1-.31-.31l-.47-1.1c-.06-.13-.15-.13-.19,0l-.23.74a.27.27,0,0,1-.33.18.26.26,0,0,1-.16-.33l.46-1.44a.25.25,0,0,1,.3-.19.64.64,0,0,1,.33.32l.45,1c.06.14.14.13.19,0l.21-.68a.27.27,0,0,1,.33-.18.26.26,0,0,1,.16.33m4.46,1.38s0,.09,0,.2a.57.57,0,0,1-.14.28.85.85,0,0,1-.28.18,1.18,1.18,0,0,1-.45.07h0a1.17,1.17,0,0,1-.5-.06.68.68,0,0,1-.28-.18.49.49,0,0,1-.14-.24,1.79,1.79,0,0,1-.06-.53v-.76h0a.33.33,0,0,1,.26-.37h0c.16,0,.27.17.28.37v.45c0,.18,0,.46,0,.61l0,.05a.36.36,0,0,0,.12.18.55.55,0,0,0,.28.06h0a.44.44,0,0,0,.27-.07.22.22,0,0,0,.1-.15,2.05,2.05,0,0,0,0-.31v0l0-.8h0c0-.19.1-.36.26-.37h0a.35.35,0,0,1,.27.36v.5c0,.18,0,.42,0,.58m2.77,0a.58.58,0,0,1-.43-.1l-1-.69c-.12-.09-.18,0-.15.1l.19.76a.26.26,0,1,1-.5.12l-.36-1.47a.26.26,0,0,1,.16-.32.67.67,0,0,1,.45.1l.92.65c.12.08.19,0,.16-.11l-.18-.7a.26.26,0,0,1,.19-.31.25.25,0,0,1,.31.19l.36,1.47a.24.24,0,0,1-.14.31m1.35-.44,0,0,0,0h0c-.15.07-.32,0-.4-.22l-.57-1.25h0a.34.34,0,0,1,.09-.45h0c.15-.06.31.05.39.22l.58,1.27h0a.32.32,0,0,1-.09.44m1.8-.93h0l0,0a.5.5,0,0,1-.49-.08l-1.23-1a.41.41,0,0,1-.09-.1.17.17,0,0,1,0-.26h0a.47.47,0,0,1,.5.08l.75.6c.07,0,.12.06.14,0a.16.16,0,0,0,0-.15l-.17-.94a.48.48,0,0,1,.16-.47h0a.17.17,0,0,1,.24.07.33.33,0,0,1,0,.14L200,691a.53.53,0,0,1-.13.44Zm2.42-1.88-.74.64a.26.26,0,0,1-.37,0l-1-1.14a.27.27,0,0,1,0-.38l.72-.63c.11-.09.25-.11.32,0s0,.22-.07.31l-.34.3a.25.25,0,0,0-.06.34.24.24,0,0,0,.34,0l.31-.27a.24.24,0,0,1,.32,0c.07.08,0,.22-.08.32l-.3.26a.25.25,0,1,0,.33.37l.35-.31c.11-.09.25-.11.32,0s0,.22-.07.32m2-2.23h0a.63.63,0,0,1-.45.22h-.67l-.14.05a1.4,1.4,0,0,0-.14.16h0s0,0,0,.09a.79.79,0,0,0,.16.15h0l.16.11h0c.15.11.22.29.13.4h0a.3.3,0,0,1-.43,0l-1.11-.82h0a.34.34,0,0,1-.07-.49l.18-.24,0-.06c.11-.15.27-.34.37-.46a.89.89,0,0,1,.15-.15.55.55,0,0,1,.33-.09.57.57,0,0,1,.33.11h0a.52.52,0,0,1,.21.35.23.23,0,1,0,.15.37,1.83,1.83,0,0,1,.43,0H204a.26.26,0,0,1,.17.05c.07,0,.07.13,0,.21m1.12-2a1.48,1.48,0,0,1-.15.43h0l0,.06a1.08,1.08,0,0,1-.49.5.74.74,0,0,1-.6,0h0l.05-.13,0,0h0a.38.38,0,0,1,.37-.24l.1,0a.55.55,0,0,0,.24-.24v0a.54.54,0,0,0,.07-.3.23.23,0,0,0-.11-.18h0a.14.14,0,0,0-.11,0,.42.42,0,0,0-.15.09l-.25.28a1.38,1.38,0,0,1-.44.36.52.52,0,0,1-.47,0h0a.47.47,0,0,1-.21-.23.62.62,0,0,1,0-.36,1.2,1.2,0,0,1,.13-.39h0l0,0a1,1,0,0,1,.47-.49.56.56,0,0,1,.52,0h0l-.06.12h0c-.08.16-.23.28-.34.27l-.07,0a.5.5,0,0,0-.19.21v0a.46.46,0,0,0-.07.28.13.13,0,0,0,.06.11h0a.15.15,0,0,0,.13,0,1.29,1.29,0,0,0,.31-.3,2.47,2.47,0,0,1,.38-.37.63.63,0,0,1,.31-.12.52.52,0,0,1,.32.07h0a.63.63,0,0,1,.25.26.73.73,0,0,1,.05.39m.68-1.5h0c0,.15-.25.2-.43.15l-1.32-.41h0c-.19,0-.32-.2-.28-.36h0a.35.35,0,0,1,.43-.14l1.33.41h0c.18.06.31.21.27.36m.46-1.9a.26.26,0,0,1-.31.19l-1.12-.23a.28.28,0,0,0-.31.21l0,.21c0,.14-.14.24-.24.22s-.16-.16-.13-.3l.29-1.43c0-.14.14-.24.24-.22a.23.23,0,0,1,.13.29l0,.21a.26.26,0,0,0,.2.31l1.12.23a.26.26,0,0,1,.21.31m-1.05-7.63a.44.44,0,1,1-.44.44.44.44,0,0,1,.44-.44m-.63,3.68a.32.32,0,0,1,.18.06l.67.42a1.1,1.1,0,0,0,.58.16h.21c.19,0,.37.09.38.25h0c0,.16-.16.27-.35.28h-.21a1.23,1.23,0,0,0-.56.21l-.63.49a.37.37,0,0,1-.17.08.16.16,0,0,1-.16-.17h0a.67.67,0,0,1,.26-.5l.26-.19a.16.16,0,0,0,.08-.15.17.17,0,0,0-.1-.14l-.27-.16a.64.64,0,0,1-.31-.45h0a.15.15,0,0,1,.14-.18m-1.91-8.71a.52.52,0,0,1,.08-.11s.15-.06.19,0a.46.46,0,0,1,.14.14l1.24,1.71a.51.51,0,0,1,.09.18s-.08.15-.13.19l-1.14.83a.36.36,0,0,1-.23.07.65.65,0,0,1-.12-.11s-.09-.17-.07-.21a.83.83,0,0,1,.13-.14l.87-.63s.12-.11.11-.13.06,0,0,0l-1.1-1.51c0-.06-.1-.2-.08-.24M201,670.4s.14-.06.18,0a.47.47,0,0,1,.14.14l.15.2.08-.05.54-.39c.05,0,.18-.1.23-.07a.6.6,0,0,1,.12.11s.08.17.06.21a.53.53,0,0,1-.13.13l-.47.34s-.12.11-.11.13a.75.75,0,0,0,.08.14l.06.08a.44.44,0,0,0,.11.12s.11,0,.16-.06l.46-.34a.51.51,0,0,1,.17-.08c.05,0,.15.09.18.12a.51.51,0,0,1,.07.15s-.09.16-.14.2l-.53.39-.08,0,.45.62a.51.51,0,0,1,.09.18s-.07.14-.09.16a.31.31,0,0,1-.19,0l-.14-.14-.68-.94-.39-.54-.38-.52a.75.75,0,0,1-.09-.18c0-.05.06-.15.09-.17m-1.19-3.59c0-.06.13-.18.18-.17a.47.47,0,0,1,.17,0s.16.13.16.17a.47.47,0,0,1-.06.19.54.54,0,0,0,0,.18l.11.08a.38.38,0,0,1,.14.11.31.31,0,0,1,0,.19s-.11.13-.16.13l-.17-.05a.41.41,0,0,0-.16,0l-.09.13,0,.09c0,.06-.13.18-.18.18l-.17,0s-.17-.12-.16-.17a.49.49,0,0,1,.05-.19Zm-2.38-.57a.7.7,0,0,1,.13-.16c.05-.05.07-.05.07-.05h0s0,0,0,0h0c-.08,0-.08-.1-.08-.1a.37.37,0,0,1,0-.17s.1-.12.15-.11a.56.56,0,0,1,.2.06l.21.1a.46.46,0,0,0,.18.06l0-.05a.26.26,0,0,1,.14-.09.43.43,0,0,1,.18.06c.05,0,.17.12.17.17a.28.28,0,0,1,0,.11s0,.07,0,.09l.14.09.17.09c.06,0,.2.14.2.18a.49.49,0,0,1,0,.14s-.1.12-.15.12l-.11,0s0,0,0,.07v0a.51.51,0,0,1-.06.2.67.67,0,0,1-.48.36.94.94,0,0,1-.63-.1,1,1,0,0,1-.46-.46.7.7,0,0,1,0-.6m-.43,1s.11-.13.16-.13l.2.07,2,1a.46.46,0,0,1,.17.12s0,.19,0,.25l-.33.65s-.13.17-.18.17l-.17,0s-.16-.12-.16-.17a.52.52,0,0,1,.06-.19l.16-.33a.35.35,0,0,0,.05-.17l-.14-.09-1.62-.83c-.06,0-.19-.13-.19-.18a.29.29,0,0,1,0-.14m1.17,2.93-.32.19c-1.27.83-1.3.21-1.56-1.14a9.75,9.75,0,0,1,1.88.95m-1.24,1.72.08.08a1.66,1.66,0,0,1,.62,1.13,2,2,0,0,1-.63,1.36,1.87,1.87,0,0,1-1.32.49,1.82,1.82,0,0,1-1.32-.57,1.73,1.73,0,0,1-.41-1.28,1.69,1.69,0,0,1,.48-1.29,1.32,1.32,0,0,1,1.1-.43,2,2,0,0,1,1.4.51m-2.06-2.07c-.21,1.28-1.14.84-1.14.84-.86-.28-3.2-1-1.39.49s.4,2.14-.71,2.42-1.49,1,.45,1,1.41.91,1.12,2.35.53,1.51,1.27.07,1.56-1.83,2.8-.23,1.22.73.86-.59-.2-1.75,1.15-1.38,2.31,0,0-1.28c-1.77-1-.92-2-.2-2.69a10.7,10.7,0,0,1,4.08,8.4,10.48,10.48,0,0,1-.24,2.25c-1.11-1.86-2.13-2.75-3.19-2.79s-1.91,1-2.35,1.57l0,.06a.76.76,0,0,1-.08-.11,3.62,3.62,0,0,0-1.72-1.4c-1.7-.51-3.36,1.89-3.83,2.64a.85.85,0,0,0,.27,1.18.86.86,0,0,0,1.18-.27c.67-1.06,1.57-1.9,1.88-1.9a2.3,2.3,0,0,1,.86.8c.34.44,1.13,1.47,2.18.78a3,3,0,0,0,.7-.78c.23-.33.62-.87.88-.86.11,0,.69.12,1.8,2a.87.87,0,0,0,1.11.33,10.49,10.49,0,0,1-1.33,2.63c-1.09-1.4-2.18-2.22-3.19-2.26-1.52-.06-2.43,1.25-3,2l-.06.08-.1-.14a4.58,4.58,0,0,0-2.21-1.77,3.17,3.17,0,0,0-3,1,16.42,16.42,0,0,0-1.49-3.19,4.16,4.16,0,0,1-.62-2.76c0-1.11,0-1.48.94-1.57s3.19,1.08,3.55-.2c.32-1.11-3.9-1.06-5-1a1.13,1.13,0,0,0,.53-.94,1.32,1.32,0,0,0-2.63,0,1.13,1.13,0,0,0,.53.94,22.42,22.42,0,0,0-3.2.11A10.73,10.73,0,0,1,195,668.81c-.07.32-.14.66-.19,1M190.91,665c0-.06,0-.22.08-.24a.66.66,0,0,1,.21,0h.9c.07,0,.24,0,.26.08a.38.38,0,0,1,0,.13s0,.16-.09.18a.6.6,0,0,1-.21,0h-.46c-.07,0-.18,0-.2,0s0,.09,0,.15v1.07c0,.07,0,.17,0,.18l.17,0h.8a.38.38,0,0,0,.19,0,.51.51,0,0,0,0-.16V665c0-.06,0-.22.08-.24a.5.5,0,0,1,.16,0s.18,0,.2.08a.53.53,0,0,1,0,.19v.45c0,.07,0,.17.05.18l.08,0a.25.25,0,0,0,.11,0s0-.09,0-.16V665c0-.06,0-.22.09-.24a.44.44,0,0,1,.32,0c.05,0,.09.18.09.24v2.42c0,.07,0,.22-.09.24l-.16,0s-.19,0-.21-.08a.54.54,0,0,1,0-.2v-1.14c0-.07,0-.17,0-.18l-.08,0s-.1,0-.11,0a.51.51,0,0,0,0,.16v1.15c0,.06,0,.21-.08.23l-.16,0s-.18,0-.2-.08a.53.53,0,0,1,0-.19v-.19a.37.37,0,0,0,0-.18h-1.26l-.25,0a.19.19,0,0,1-.09,0c-.07,0-.08-.08-.08-.09l0-.12V665Zm-2.67,3s0,.16,0,.2a.75.75,0,0,1-.16.13l-1.91,1a.94.94,0,0,1-.23.1.16.16,0,0,1-.11,0c-.07,0-.1-.06-.1-.07l-.07-.1-.11-.21-.17-.33a.37.37,0,0,1,0-.25.64.64,0,0,1,.13-.1c.05,0,.19-.06.23,0a.44.44,0,0,1,.12.15l.13.25c0,.06.09.14.12.14l.16-.06,1.64-.84a.56.56,0,0,1,.2-.06s.14.09.16.12m-1.64-2.2a.49.49,0,0,1,.14-.11s.19-.06.23,0a.61.61,0,0,1,.12.15l.07.13.21.42.54,1.06a.37.37,0,0,1,0,.25l-.14.11s-.19.06-.23,0l-.07-.06a.09.09,0,0,0-.07,0l-.15.06-.21.1c-.06,0-.22.08-.26,0a.29.29,0,0,1-.09-.11.23.23,0,0,1,0-.13s.13-.16.19-.19l.2-.1c.07,0,.16-.1.15-.12a.43.43,0,0,0,0-.15l-.54-1.07a.33.33,0,0,1,0-.25m-1.93,1a1.06,1.06,0,0,1,.48-.48,1,1,0,0,1,.65-.1.72.72,0,0,1,.52.37.56.56,0,0,1,.06.31.54.54,0,0,1,0,.17h0l.11-.06c.06,0,.23-.07.26,0s.09.07.1.1,0,.16,0,.2a.76.76,0,0,1-.17.13l-.22.11c-.06,0-.15.09-.15.12a.82.82,0,0,0,0,.14l.1.19a.37.37,0,0,1,0,.25.69.69,0,0,1-.13.11.47.47,0,0,1-.23,0,.67.67,0,0,1-.12-.16l-.1-.19-.09-.13a.36.36,0,0,0-.18.06l-.45.23c-.06,0-.23.07-.27,0s-.08-.07-.09-.1a.27.27,0,0,1,0-.2.61.61,0,0,1,.15-.12s0-.06,0-.08l-.07,0a.74.74,0,0,1-.2-.23.69.69,0,0,1,0-.64m-4.44,4.44,1.4-1.93c0-.06.17-.17.22-.16l.13.05s.11.12.09.17a.55.55,0,0,1-.09.19l-1.14,1.58c0,.06-.09.16-.08.18l0,0s.06,0,.08,0a.44.44,0,0,0,.11-.12l1.15-1.58s.17-.17.21-.16a.32.32,0,0,1,.13,0s.11.13.1.17a.58.58,0,0,1-.1.19l-.47.65c0,.06-.05.12,0,.13l.05,0a.13.13,0,0,0,.09,0l.11-.13.49-.67a.71.71,0,0,1,.15-.15s.17,0,.2,0,.1.12.09.17a.65.65,0,0,1-.09.19l-.19.26c0,.06,0,.1.05.09h.18a.67.67,0,0,1,.29.12.8.8,0,0,1,.34.58s0,.06,0,.1a1.16,1.16,0,0,1-.24.75,1.27,1.27,0,0,1-.65.48.83.83,0,0,1-.76-.13.75.75,0,0,1-.23-.27,1.24,1.24,0,0,1-.06-.23h0l-.08.11-.18.24c0,.05-.16.17-.21.16a.32.32,0,0,1-.13-.05s-.11-.13-.1-.17a.58.58,0,0,1,.1-.19l.48-.67c0-.06.09-.16.08-.18l0-.05a.13.13,0,0,0-.09,0,.54.54,0,0,0-.11.13l-.35.48-.16.19a.2.2,0,0,1-.1.05.27.27,0,0,1-.13,0l-.1-.06-.19-.14-.18-.12c-.05,0-.15-.17-.14-.21a.55.55,0,0,1,.09-.19m-.78,3a.44.44,0,0,1,0,.88.44.44,0,0,1,0-.88M178,678.79a.27.27,0,0,1,.28-.25l1.14,0a.26.26,0,0,0,.27-.26v-.21c0-.14.1-.26.2-.26s.18.13.18.27l0,1.46c0,.15-.09.27-.19.27a.25.25,0,0,1-.18-.28v-.21a.27.27,0,0,0-.26-.27l-1.14,0a.28.28,0,0,1-.26-.27m.13,2.64a1.06,1.06,0,1,1,1.22,1,1.09,1.09,0,0,1-1.22-1m1.1,3.62a.6.6,0,0,1,.05-.43l.56-1.07c.07-.12,0-.19-.12-.13l-.72.28a.28.28,0,0,1-.35-.14.26.26,0,0,1,.16-.34l1.41-.55a.27.27,0,0,1,.34.13.65.65,0,0,1,0,.45l-.53,1c-.07.13,0,.19.13.14l.67-.26a.27.27,0,0,1,.34.14.27.27,0,0,1-.16.34l-1.41.54a.24.24,0,0,1-.33-.1m1.5,2.48a1.63,1.63,0,0,1-.47-.44A1.07,1.07,0,1,1,182,686a2.06,2.06,0,0,1,.23.51.38.38,0,0,1-.16.4l-.15.1a1.6,1.6,0,0,0-.26-.74.65.65,0,0,0-1-.28.63.63,0,0,0-.12.92.74.74,0,0,0,.25.25c.11-.07.16-.19.12-.26a.17.17,0,0,1,.07-.23.26.26,0,0,1,.31.12l.15.24a.26.26,0,0,1-.08.36l-.26.17a.48.48,0,0,1-.45,0" transform="translate(-176.4 -663.21)"/><path class="cls-1" d="M185.33,667.38a.43.43,0,0,0,.33,0,.42.42,0,0,0,.21-.24.36.36,0,0,0,0-.29.36.36,0,0,0-.24-.17.42.42,0,0,0-.31,0,.46.46,0,0,0-.16.14.68.68,0,0,0-.09.22.25.25,0,0,0,0,.17.33.33,0,0,0,.23.18" transform="translate(-176.4 -663.21)"/><path class="cls-1" d="M197,673.09c0-.28-.23-.51-.46-.75l-.09-.08a1.42,1.42,0,0,0-1-.34.82.82,0,0,0-.72.27,1.17,1.17,0,0,0-.31.9,1.23,1.23,0,0,0,.26.9,1.26,1.26,0,0,0,.92.4,1.34,1.34,0,0,0,.94-.34" transform="translate(-176.4 -663.21)"/><path class="cls-1" d="M202.8,686.76h0a.27.27,0,0,0-.16,0,.33.33,0,0,0-.16.09l-.12.16-.08.1,0,0a.28.28,0,0,0,0,.39h0c.11.08.23.08.28,0h0l.29-.4a.22.22,0,0,0,0-.08.17.17,0,0,0,0-.14.28.28,0,0,0-.08-.12" transform="translate(-176.4 -663.21)"/><path class="cls-1" d="M182.37,672a.44.44,0,0,0,.4.07.56.56,0,0,0,.36-.24.6.6,0,0,0,.12-.41.47.47,0,0,0-.19-.37.46.46,0,0,0-.4-.06.59.59,0,0,0-.35.24.57.57,0,0,0-.13.42.49.49,0,0,0,.19.35" transform="translate(-176.4 -663.21)"/><path class="cls-1" d="M198,666.93a.45.45,0,0,0,.28,0,.3.3,0,0,0,.2-.14.28.28,0,0,0,0-.25.37.37,0,0,0-.19-.2.39.39,0,0,0-.28,0,.28.28,0,0,0-.2.15.25.25,0,0,0,0,.24.39.39,0,0,0,.19.21" transform="translate(-176.4 -663.21)"/></svg>