<svg id="신규로고확정" xmlns="http://www.w3.org/2000/svg" viewBox="0 0 381.1 32"><defs><style>.cls-1{fill:#a5a5a5;}.cls-2{fill:none;stroke:#a5a5a5;stroke-miterlimit:10;}</style></defs><path class="cls-1" d="M356.5,679.1a5.66,5.66,0,0,1-4,1.7,5.12,5.12,0,0,1-5.4-5.3,5.18,5.18,0,0,1,5.4-5.3,5.28,5.28,0,0,1,4,1.7h4.7V669h2.9v15h-2.9v-4.8h-4.7Zm-4-.8a2.57,2.57,0,0,0,2.7-2.7,2.65,2.65,0,0,0-2.7-2.8,2.75,2.75,0,0,0,0,5.5Zm.9,8.5h11.2v2.3h-14v-6.6h2.9v4.3Zm7.8-12.6h-3.4a5.85,5.85,0,0,1,.2,1.3,5.07,5.07,0,0,1-.2,1.3h3.4Z" transform="translate(-176.4 -663.2)"/><path class="cls-1" d="M367.2,681.7l-1.2-2.3c4.6-1.3,7.2-3.6,7.6-6.5h-6.7v-2.3h9.9C376.8,676.1,373.3,679.9,367.2,681.7Zm4.8.5v4.6h11.1v2.3h-14v-6.9Zm10.4-7.5h2.7v2.4h-2.7v6.6h-2.9V669h2.9Z" transform="translate(-176.4 -663.2)"/><path class="cls-1" d="M399.8,669h2.9v11h-2.9v-4.2h-3.4a5.18,5.18,0,0,1-5.3,3.8c-3.1,0-5.5-2-5.4-4.9s2.3-4.8,5.4-4.8a5.27,5.27,0,0,1,5.3,3.7h3.4Zm-6,5.7a2.47,2.47,0,0,0-2.7-2.5,2.51,2.51,0,1,0,2.7,2.5Zm6,8.2v-2h2.9v8.3H389.1v-8.3h2.8v2Zm0,4v-1.8h-8v1.8Z" transform="translate(-176.4 -663.2)"/><path class="cls-1" d="M423.4,680.5v2.3h-8v6.7h-2.8v-6.7h-7.9v-2.3ZM421.2,670v8.2H407V670Zm-2.8,6v-3.7h-8.6V676Z" transform="translate(-176.4 -663.2)"/><path class="cls-1" d="M434.8,674.4v-4.9h2.7v19.1h-2.7v-6.7h-2.9v-2.3h2.9v-2.8h-2.5a14.24,14.24,0,0,1-6.8,8.5l-1.7-2c4.1-2.5,6-5.4,6.3-9.4H425v-2.3h8c0,1-.1,2-.2,3h2Zm4.3-5.4h2.7v20.4h-2.7Z" transform="translate(-176.4 -663.2)"/><path class="cls-1" d="M456.6,681.6a82.42,82.42,0,0,1-12.7.8l-.4-2.2c1.6,0,3.4,0,5.2-.1V679c-2.3-.3-3.7-1.4-3.7-2.9,0-1.9,2-3.1,5.1-3.1s5.1,1.2,5.1,3.1c0,1.6-1.5,2.6-3.7,2.9v1c1.6-.1,3.3-.2,4.8-.4Zm-.4-11.1v2.1H444.1v-2.1h4.6v-1.7h2.9v1.7Zm-9.9,15.4v-2.2h14.2v5.8h-2.9v-3.6Zm3.8-8.6c1.4,0,2.4-.4,2.4-1.1s-1-1.2-2.4-1.2-2.4.4-2.4,1.2S448.7,677.3,450.1,677.3Zm7.5-8.2h2.9v13.8h-2.9Z" transform="translate(-176.4 -663.2)"/><path class="cls-1" d="M475.3,680.7a70.47,70.47,0,0,1-12.6.9l-.2-2.3h3.8v-4h2.8v3.9a58.23,58.23,0,0,0,6-.5Zm-4.4-3.2a22.75,22.75,0,0,0,.5-4.7h-7.7v-2.3h10.5v1.3a29.18,29.18,0,0,1-.5,6Zm-2.6,5.5v3.8h11.5v2.3H465.4V683Zm10.8-7.7h2.5v2.4h-2.5v6.7h-2.9V669h2.9Z" transform="translate(-176.4 -663.2)"/><path class="cls-1" d="M486.1,682.4a51.39,51.39,0,0,0,8.8-.7l.2,2.3a54.64,54.64,0,0,1-10.1.7h-1.8v-8.4H490V673h-6.8v-2.3h9.7v7.9h-6.7v3.8ZM496.3,669h2.8v20.5h-2.8Z" transform="translate(-176.4 -663.2)"/><path class="cls-1" d="M509.3,673.7c0,3.8,1.7,7.5,5.2,9l-1.7,2.3a9.71,9.71,0,0,1-4.9-5.6,9.52,9.52,0,0,1-5.1,6.1l-1.7-2.4c3.6-1.5,5.3-5.4,5.3-9.4v-3.1h2.9v3.1Zm6.2-4.7h2.9v20.5h-2.9Z" transform="translate(-176.4 -663.2)"/><path class="cls-1" d="M520.6,684.6h18.7V687H520.6Zm1.7-3.5-1.2-2.4c4.5-.8,7.2-4,7.2-7v-1.5h3.1v1.5c0,3,2.6,6.2,7.3,7l-1.3,2.4a10.27,10.27,0,0,1-7.5-5.3A10.66,10.66,0,0,1,522.3,681.1Z" transform="translate(-176.4 -663.2)"/><path class="cls-1" d="M549.5,679.9a40.32,40.32,0,0,1-7.4.5h-1.4V670.2h7.8v2.3h-5v1.6h4.3v2.2h-4.3v1.8a34,34,0,0,0,5.7-.4Zm-6,9.3V682h13.9v7.2Zm2.9-4.9V687h8.3v-2.7Zm4.3-3.2v-4.8h-2.1V674h2.1v-4.6h2.7v11.7Zm4.1-12.1h2.7v12.2h-2.7Z" transform="translate(-176.4 -663.2)"/><path class="cls-1" d="M230.8,674.7a4.3,4.3,0,0,0-1.2-.2H225a2,2,0,0,1-.9-.1,1.06,1.06,0,0,1-.2-.5v-.3c0-.1.3-.3.7-.3h4.5a4.3,4.3,0,0,0,1.2-.2c.3-.1.5-.8.5-1a3.09,3.09,0,0,0-.2-.8c-.1-.2-1.1-.4-1.4-.4h-11a2,2,0,0,1-.9-.1,1.42,1.42,0,0,1-.2-.4.77.77,0,0,1,.1-.3,2.68,2.68,0,0,1,1.1-.2h11a4.3,4.3,0,0,0,1.2-.2c.3-.1.5-.8.5-1a3.09,3.09,0,0,0-.2-.8c-.1-.2-1-.4-1.4-.4H216a4.3,4.3,0,0,0-1.2.2c-.3.1-.5,1-.5,1.3v2.5a3.2,3.2,0,0,0,.1.7,1.55,1.55,0,0,0,.3.6c.3.3.5.3.5.3a6.6,6.6,0,0,0,1.4.1h3.3a2,2,0,0,1,.9.1,1.06,1.06,0,0,1,.2.5.76.76,0,0,1-.1.4,2.68,2.68,0,0,1-1.1.2h-4.7a4.3,4.3,0,0,0-1.2.2c-.3.1-.5.8-.5,1a3.09,3.09,0,0,0,.2.8c.1.2,1,.4,1.4.4h2.4s.1,0,0,.1h0a6.22,6.22,0,0,0-.8,1,4.55,4.55,0,0,0-.5,2,4.88,4.88,0,0,0,1.9,3.8,6.93,6.93,0,0,0,4.3,1.4,6.64,6.64,0,0,0,4.2-1.4,4.6,4.6,0,0,0,1.9-3.8,4.55,4.55,0,0,0-.5-2,2.48,2.48,0,0,0-.4-.6c-.3-.3-.2-.5.2-.5h1.8a4.3,4.3,0,0,0,1.2-.2c.3-.1.5-.8.5-1a.94.94,0,0,0-.4-.9m-5.1,5.3a2.33,2.33,0,0,1-1,2,3.24,3.24,0,0,1-2.3.8,3.78,3.78,0,0,1-2.3-.8,2.51,2.51,0,0,1-1-2.1,2.33,2.33,0,0,1,1-2,3.71,3.71,0,0,1,4.6,0,3,3,0,0,1,1,2.1" transform="translate(-176.4 -663.2)"/><path class="cls-1" d="M240.1,676.4a2,2,0,0,1,.1.9v1.2a3.09,3.09,0,0,0,.2,1.1c.1.2.9.4,1.2.4a3.55,3.55,0,0,0,1-.2c.3-.1.5-1,.5-1.3v-1.2a2,2,0,0,1,.1-.9,2.68,2.68,0,0,1,1.1-.2h1.4a4.3,4.3,0,0,0,1.2-.2c.3-.1.5-.8.5-1a3.09,3.09,0,0,0-.2-.8c-.1-.2-1-.4-1.4-.4h-.7a4.52,4.52,0,0,0,.6-.8,3.29,3.29,0,0,0,.4-1.7,3.76,3.76,0,0,0-1.6-3.2A5.42,5.42,0,0,0,241,667a6.71,6.71,0,0,0-3.7,1.1,3.85,3.85,0,0,0-1.7,3.2,3.29,3.29,0,0,0,.4,1.7c.2.3.2.4.2.4.3.3.2.5-.1.5a3,3,0,0,0-1,.2c-.3.1-.5.8-.5,1a3.09,3.09,0,0,0,.2.8c.1.2,1,.4,1.4.4H239c.4-.2,1-.1,1.1.1m-1.6-6.2a4.3,4.3,0,0,1,1-.9,2.39,2.39,0,0,1,1.1-.3,2.72,2.72,0,0,1,1.7.6,1.8,1.8,0,0,1,.7,1.5,2.08,2.08,0,0,1-.7,1.5,2.61,2.61,0,0,1-1.7.7,2.19,2.19,0,0,1-1.7-.7,1.8,1.8,0,0,1-.7-1.5,1.67,1.67,0,0,1,.3-.9" transform="translate(-176.4 -663.2)"/><path class="cls-1" d="M251.5,682a4.3,4.3,0,0,0-1.2-.2H240a2,2,0,0,1-.9-.1,2.15,2.15,0,0,1-.2-1v-1.6a3.09,3.09,0,0,0-.2-1.1c-.1-.2-1-.4-1.2-.4a3.55,3.55,0,0,0-1,.2c-.3.1-.5,1-.5,1.3v3.4a3.2,3.2,0,0,0,.1.7,1.72,1.72,0,0,0,.4.6c.3.3.5.3.5.3a6.6,6.6,0,0,0,1.4.1h12a4.3,4.3,0,0,0,1.2-.2c.3-.1.5-.8.5-1s-.3-.9-.6-1" transform="translate(-176.4 -663.2)"/><path class="cls-1" d="M245,677.5a2.35,2.35,0,0,0-.2.8,3.09,3.09,0,0,0,.2.8c.1.2,1,.4,1.4.4h1.3a2,2,0,0,1,.9.1,1.42,1.42,0,0,1,.2.4,4.2,4.2,0,0,1,.2.5c.1.2,1,.4,1.2.4a3.55,3.55,0,0,0,1-.2c.3-.1.5-1,.5-1.3V669.3a3.09,3.09,0,0,0-.2-1.1c-.1-.2-1-.4-1.2-.4a3.55,3.55,0,0,0-1,.2c-.3.1-.5,1-.5,1.3v6.8a2,2,0,0,1-.1.9,2.68,2.68,0,0,1-1.1.2h-1.3c-.2-.2-1.1,0-1.3.3" transform="translate(-176.4 -663.2)"/><path class="cls-1" d="M272.5,667.8a3.71,3.71,0,0,0-.9-.2,2.92,2.92,0,0,0-.9.2c-.3.1-.5,1-.5,1.3v2.5a2,2,0,0,1-.1.9,1.42,1.42,0,0,1-.6.2,1.09,1.09,0,0,1-.5-.1,2.15,2.15,0,0,1-.2-1v-2.5a3.09,3.09,0,0,0-.2-1.1c-.1-.2-.9-.4-1.1-.4a3.71,3.71,0,0,0-.9.2c-.3.1-.5,1-.5,1.3v8a2,2,0,0,1-.1.9,2.68,2.68,0,0,1-1.1.2h-4.5a2,2,0,0,1-.9-.1,2.15,2.15,0,0,1-.2-1v-6a2,2,0,0,1,.1-.9,2.68,2.68,0,0,1,1.1-.2h2.6a4.3,4.3,0,0,0,1.2-.2c.3-.1.5-.8.5-1a3.09,3.09,0,0,0-.2-.8c-.1-.2-1-.4-1.4-.4h-5.1a4.3,4.3,0,0,0-1.2.2c-.3.1-.5,1-.5,1.3v10a3.2,3.2,0,0,0,.1.7c0,.1.1.3.4.5a1,1,0,0,0,.5.2c.4,0,1,.1,1.4.1h6.1a2,2,0,0,1,.9.1,2.15,2.15,0,0,1,.2,1v1a3.09,3.09,0,0,0,.2,1.1c.1.2.9.4,1.1.4a3.71,3.71,0,0,0,.9-.2c.3-.1.5-1,.5-1.3v-6.5a2,2,0,0,1,.1-.9,1.42,1.42,0,0,1,.6-.2,1.09,1.09,0,0,1,.5.1,2.15,2.15,0,0,1,.2,1v6.5a3.09,3.09,0,0,0,.2,1.1c.1.2.9.4,1.2.4a2.92,2.92,0,0,0,.9-.2c.3-.1.5-1,.5-1.3V669.1a1.84,1.84,0,0,0-.4-1.3" transform="translate(-176.4 -663.2)"/><path class="cls-1" d="M278,671.2a4.25,4.25,0,0,0-.2,1.1,3.42,3.42,0,0,0,1.6,3,5.84,5.84,0,0,0,3.5,1.1,5.54,5.54,0,0,0,3.4-1.1,3.69,3.69,0,0,0,1.5-3,3.59,3.59,0,0,0-.2-1.1l-.1-.2c-.1-.2-.2-.4-.1-.4a3.93,3.93,0,0,0,.6-.2c.3-.1.5-.8.5-1a1.85,1.85,0,0,0-.2-.7c-.1-.2-1.1-.4-1.4-.4h-1.1a2,2,0,0,1-.9-.1,1.06,1.06,0,0,1-.2-.5,3.93,3.93,0,0,0-.2-.6c-.1-.2-1-.4-1.3-.4a4.25,4.25,0,0,0-1.1.2c-.3.1-.5.7-.5.8a.37.37,0,0,1-.1.3,2.68,2.68,0,0,1-1.1.2h-1.3a4.3,4.3,0,0,0-1.2.2c-.3.1-.5.8-.5,1a1.9,1.9,0,0,0,.3.9s.1.3.7.3h.1s.1.1,0,.1l-.1.1c-.2,0-.2,0-.4.4m2.7,1.2a1.76,1.76,0,0,1,.6-1.3,2,2,0,0,1,1.5-.5,2.69,2.69,0,0,1,1.5.5,1.76,1.76,0,0,1,.6,1.3,1.43,1.43,0,0,1-.6,1.2,2,2,0,0,1-1.5.5,2.69,2.69,0,0,1-1.5-.5,1.43,1.43,0,0,1-.6-1.2" transform="translate(-176.4 -663.2)"/><path class="cls-1" d="M293.6,677.4a4.3,4.3,0,0,0-1.2-.2H279.8a4.3,4.3,0,0,0-1.2.2c-.3.1-.5.8-.5,1a3.09,3.09,0,0,0,.2.8c.1.2,1.1.4,1.4.4H290a2,2,0,0,1,.9.1,2.15,2.15,0,0,1,.2,1v2.1a3.09,3.09,0,0,0,.2,1.1c.1.2,1,.4,1.2.4a3.55,3.55,0,0,0,1-.2c.3-.1.5-1,.5-1.3v-4.1c.1-.3-.1-1.2-.4-1.3" transform="translate(-176.4 -663.2)"/><path class="cls-1" d="M296,670.4a3.55,3.55,0,0,0-1-.2c-.3,0-.6,0-.7-.1a2.15,2.15,0,0,1-.2-1,3.09,3.09,0,0,0-.2-1.1c-.1-.2-1-.4-1.2-.4a3.55,3.55,0,0,0-1,.2c-.3.1-.5,1-.5,1.3v5.2a3.09,3.09,0,0,0,.2,1.1c.1.2,1,.4,1.2.4a3.55,3.55,0,0,0,1-.2c.3-.1.5-1,.5-1.3v-.6a2,2,0,0,1,.1-.9,2,2,0,0,1,.9-.2,3.55,3.55,0,0,0,1-.2c.3-.1.5-.8.5-1s-.3-.9-.6-1" transform="translate(-176.4 -663.2)"/><path class="cls-1" d="M315.8,681.9a4.3,4.3,0,0,0-1.2-.2H310v-4.5c0-.4-.2-1.2-.5-1.3a3.55,3.55,0,0,0-1-.2c-.3,0-1.1.2-1.2.4a3.09,3.09,0,0,0-.2,1.1v3.4a2.15,2.15,0,0,1-.2,1,2.22,2.22,0,0,1-.9.1h-.6a2,2,0,0,1-.9-.1,2.15,2.15,0,0,1-.2-1v-3.4a3.09,3.09,0,0,0-.2-1.1c-.1-.2-.9-.4-1.2-.4a3.55,3.55,0,0,0-1,.2c-.3.1-.5,1-.5,1.3v4.5h-1.5a4.3,4.3,0,0,0-1.2.2c-.3.1-.5.8-.5,1s.2.9.5,1a4.3,4.3,0,0,0,1.2.2h14.7a4.3,4.3,0,0,0,1.2-.2c.3-.1.5-.8.5-1s-.3-.9-.5-1" transform="translate(-176.4 -663.2)"/><path class="cls-1" d="M314.6,667.8a4.3,4.3,0,0,0-1.2-.2H300.8a4.3,4.3,0,0,0-1.2.2c-.3.1-.5.8-.5,1a3.09,3.09,0,0,0,.2.8c.1.2,1,.4,1.4.4H312c.4,0-.1,0,0,.1a2.15,2.15,0,0,1,.2,1v6.4a3.09,3.09,0,0,0,.2,1.1c.1.2,1,.4,1.2.4a3.55,3.55,0,0,0,1-.2c.3-.1.5-1,.5-1.3v-8.4c0-.3-.2-1.2-.5-1.3" transform="translate(-176.4 -663.2)"/><path class="cls-1" d="M218.6,688c0,.3-.3.5-.7.5h-.5a.68.68,0,0,0-.7.7v3a.7.7,0,0,1-1.4,0v-3a.68.68,0,0,0-.7-.7h-.5c-.4,0-.7-.2-.7-.5s.3-.5.7-.5h3.8c.4,0,.7.2.7.5" transform="translate(-176.4 -663.2)"/><path class="cls-1" d="M310.2,688c0,.3-.3.5-.7.5H309a.68.68,0,0,0-.7.7v3a.7.7,0,1,1-1.4,0v-3a.68.68,0,0,0-.7-.7h-.5c-.4,0-.7-.2-.7-.5s.3-.5.7-.5h3.8c.4,0,.7.2.7.5" transform="translate(-176.4 -663.2)"/><path class="cls-1" d="M221.7,692.9a2.86,2.86,0,0,1-3.1-2.7,3.07,3.07,0,0,1,6.1,0,2.71,2.71,0,0,1-3,2.7m0-4.3a1.6,1.6,0,1,0,1.7,1.6,1.55,1.55,0,0,0-1.7-1.6" transform="translate(-176.4 -663.2)"/><path class="cls-1" d="M231.2,692.2a.67.67,0,0,1-.6.7,1.39,1.39,0,0,1-1-.5l-2-2.4c-.2-.3-.4-.2-.4.2v2a.7.7,0,0,1-1.4,0v-3.9a.67.67,0,0,1,.6-.7,1.82,1.82,0,0,1,1.1.5l1.9,2.2c.2.3.5.2.5-.2v-1.9a.7.7,0,1,1,1.4,0v4Z" transform="translate(-176.4 -663.2)"/><path class="cls-1" d="M237.4,689a4.92,4.92,0,0,0-2-.5,1.77,1.77,0,0,0-2,1.7,1.88,1.88,0,0,0,2.7,1.4c0-.3-.2-.6-.4-.6a.46.46,0,0,1-.4-.5c0-.3.3-.5.7-.5h.7a.68.68,0,0,1,.7.7v.8a1.33,1.33,0,0,1-.6,1,4.14,4.14,0,0,1-1.6.4c-1.9,0-3.2-1.1-3.2-2.7s1.3-2.7,3.2-2.7a4.88,4.88,0,0,1,1.4.2,1,1,0,0,1,.7.9v.4Z" transform="translate(-176.4 -663.2)"/><path class="cls-1" d="M241.3,692.3c-.2.3-.4.6-.6.6s-.4-.3-.6-.6l-1.8-4.1c-.2-.3,0-.6.4-.6h0a1.33,1.33,0,0,1,1,.6l.7,1.7c.1.4.4.4.6,0l.8-1.7c.2-.3.5-.6.8-.6a1,1,0,0,1,.8.6l.8,1.7q.3.45.6,0l.7-1.7a1.1,1.1,0,0,1,1-.6h0c.4,0,.6.3.4.6l-1.8,4.1c-.2.3-.4.6-.6.6s-.4-.3-.6-.6l-1.1-2.2q-.3-.45-.6,0Z" transform="translate(-176.4 -663.2)"/><path class="cls-1" d="M250.2,692.9a2.86,2.86,0,0,1-3.1-2.7,2.8,2.8,0,0,1,3.1-2.7,2.73,2.73,0,1,1,0,5.4m0-4.3a1.6,1.6,0,1,0,1.7,1.6,1.55,1.55,0,0,0-1.7-1.6" transform="translate(-176.4 -663.2)"/><path class="cls-1" d="M259.6,692.2a.67.67,0,0,1-.6.7,1.39,1.39,0,0,1-1-.5l-2-2.4c-.3-.3-.5-.2-.5.2v2a.7.7,0,0,1-1.4,0v-3.9a.67.67,0,0,1,.6-.7,1.82,1.82,0,0,1,1.1.5l1.9,2.2c.3.3.5.2.5-.2v-1.9a.7.7,0,0,1,1.4,0v4Z" transform="translate(-176.4 -663.2)"/><path class="cls-1" d="M275.8,692.2a.67.67,0,0,1-.6.7,1.39,1.39,0,0,1-1-.5l-2-2.4c-.3-.3-.5-.2-.5.2v2a.7.7,0,0,1-1.4,0v-3.9a.67.67,0,0,1,.6-.7,1.82,1.82,0,0,1,1.1.5l1.9,2.2c.3.3.5.2.5-.2v-1.9a.7.7,0,0,1,1.4,0Z" transform="translate(-176.4 -663.2)"/><path class="cls-1" d="M289.9,692.4c0,.3-.3.5-.7.5h-2.5a.68.68,0,0,1-.7-.7v-3.9a.68.68,0,0,1,.7-.7h2.5c.4,0,.7.2.7.5s-.3.5-.7.5H288a.61.61,0,1,0,0,1.2h1c.4,0,.7.2.7.5s-.3.5-.7.5h-1a.67.67,0,0,0-.7.6c0,.4.3.6.7.6h1.2c.4-.1.7.1.7.4" transform="translate(-176.4 -663.2)"/><path class="cls-1" d="M269,688.3a1,1,0,0,0-.7-1h0c-.4,0-.7.5-.7,1h0v3c0,.2-.1.3-.3.4a1.17,1.17,0,0,1-.7.2h0a1.17,1.17,0,0,1-.7-.2.55.55,0,0,1-.3-.5v-2.9a1,1,0,0,0-.7-1h0c-.4,0-.7.5-.7,1h0v2a5.31,5.31,0,0,0,.1,1.4,2.09,2.09,0,0,0,.4.6,1.79,1.79,0,0,0,.7.5,3.92,3.92,0,0,0,1.3.2h.1a3.73,3.73,0,0,0,1.2-.2,1.79,1.79,0,0,0,.7-.5,1.61,1.61,0,0,0,.4-.7,1.75,1.75,0,0,0,.1-.5v-1.7Z" transform="translate(-176.4 -663.2)"/><path class="cls-1" d="M278.6,688.5a1,1,0,0,0-.7-1h0c-.4,0-.7.5-.7,1h0v3.6a1,1,0,0,0,.7,1h0v0c.4,0,.7-.5.7-1h0Z" transform="translate(-176.4 -663.2)"/><path class="cls-1" d="M304.6,688.5a1,1,0,0,0-.7-1h0c-.4,0-.7.5-.7,1h0v3.6a1,1,0,0,0,.7,1h0c.4,0,.7-.5.7-1h0Z" transform="translate(-176.4 -663.2)"/><path class="cls-1" d="M284.4,687.6h0a1.33,1.33,0,0,0-1,.8l-.9,2.3a1.24,1.24,0,0,1-.2.3c-.1,0-.2-.1-.2-.3l-.9-2.3a1.15,1.15,0,0,0-1-.8h0a.47.47,0,0,0-.5.5.76.76,0,0,0,.1.4l1.5,3.7a1.15,1.15,0,0,0,1,.8h.2a1.71,1.71,0,0,0,.9-.8l1.5-3.7a.6.6,0,0,0,.1-.4.63.63,0,0,0-.6-.5" transform="translate(-176.4 -663.2)"/><path class="cls-1" d="M296.2,692.2l-.2-.3a9.68,9.68,0,0,0-.7-.9,2.18,2.18,0,0,0-.5-.4,1.88,1.88,0,0,0,1.1-.5,1.28,1.28,0,0,0,.4-1h0a1.61,1.61,0,0,0-.3-.9,1.16,1.16,0,0,0-.7-.5,1.75,1.75,0,0,0-.5-.1h-2.5a.9.9,0,0,0-.9.9h0v3.6a.81.81,0,0,0,.7.9h0c.4,0,.6-.4.6-.9h0v-.5h0a1.27,1.27,0,0,1,.1-.6.35.35,0,0,1,.1-.2h0c.3,0,.4,0,.5.1s.2.1.3.2l.1.1a12.7,12.7,0,0,0,1,1.2,2,2,0,0,0,1.2.6h0c.3,0,.4-.1.4-.4-.1-.1-.1-.3-.2-.4m-2-2.4h-1.3c-.2,0-.4-.3-.4-.6h0c0-.3.4-.6.8-.6h.9a.52.52,0,0,1,.4.2c.1.1.1.2.1.4h0a.6.6,0,0,1-.1.4c-.1.1-.2.2-.3.2h-.1" transform="translate(-176.4 -663.2)"/><path class="cls-1" d="M301.8,690.5a4.35,4.35,0,0,0-.7-.6,6.83,6.83,0,0,0-1.3-.4,3.18,3.18,0,0,1-1.1-.4c-.1-.1-.2-.2-.2-.3h0c0-.1.1-.2.2-.3a1.45,1.45,0,0,1,.7-.2h.1a1.17,1.17,0,0,1,.7.2c.1.1.1.1.2.1.1.3.6.5,1,.5h.4a1.43,1.43,0,0,0-.6-1.2,2.65,2.65,0,0,0-1.7-.5h-.1a3.59,3.59,0,0,0-1.1.2,2.18,2.18,0,0,0-.8.5,1.14,1.14,0,0,0-.3.8h0a1.61,1.61,0,0,0,.5,1.1,4.78,4.78,0,0,0,1.4.6,2.19,2.19,0,0,1,.9.3c.2.1.3.1.4.2a.37.37,0,0,1,.1.3h0c0,.2-.1.3-.3.5a1.55,1.55,0,0,1-.8.2h-.1a1,1,0,0,1-.8-.3l-.2-.2a1.05,1.05,0,0,0-1-.6h-.5v.1a2.1,2.1,0,0,0,.7,1.4,2.86,2.86,0,0,0,1.7.5h.2a4.3,4.3,0,0,0,1.2-.2,1.24,1.24,0,0,0,.8-.6,1.61,1.61,0,0,0,.3-.9v-.1c.3-.2.2-.5.1-.7" transform="translate(-176.4 -663.2)"/><path class="cls-1" d="M315.6,687.5h0a1.41,1.41,0,0,0-1.2.8l-.4.7a.54.54,0,0,1-.4.3.76.76,0,0,1-.4-.2l-.4-.7a1.83,1.83,0,0,0-1.3-.8h0a.46.46,0,0,0-.5.4,1.69,1.69,0,0,0,.2.5l1.2,1.7a3,3,0,0,1,.5,1.5v.5a1,1,0,0,0,.7,1h0c.4,0,.7-.5.7-1h0v-.5h0a3,3,0,0,1,.5-1.5l1.2-1.7c.1-.2.2-.3.2-.5a.63.63,0,0,0-.6-.5" transform="translate(-176.4 -663.2)"/><path class="cls-1" d="M186,690.2a.65.65,0,0,0-.9.2.61.61,0,0,0,.3.9.65.65,0,0,0,.9-.2.76.76,0,0,0-.3-.9" transform="translate(-176.4 -663.2)"/><path class="cls-1" d="M179.8,681.2c-.1-.4-.3-.6-.7-.5s-.6.4-.5.7.3.6.7.5a.67.67,0,0,0,.5-.7" transform="translate(-176.4 -663.2)"/><path class="cls-1" d="M192.4,695.2a16,16,0,1,0-16-16,16,16,0,0,0,16,16m-9.4-5.1v-.3l.3-.9c0-.1,0-.2-.2-.2l-.9.4c-.1.1-.3.1-.3,0v-.3l.6-1.6a.19.19,0,0,1,.3-.1h0c.1.1.2.3.1.4l-.2.7c0,.1,0,.2.2.1l.7-.3c.1-.1.3,0,.4,0a.6.6,0,0,1,.1.4l-.2.7c0,.1,0,.2.2.1l.6-.3c.1-.1.3,0,.4.1h0a.19.19,0,0,1,0,.3l-1.6.7a1.34,1.34,0,0,1-.5.1m5.1-2a1.1,1.1,0,0,0,1.5-.3c.8-1.4,2-2.4,2.4-2.4s.8.6,1.1,1c.4.6,1.5,1.9,2.8,1,.4-.2.6-.6.9-1s.8-1.1,1.1-1.1c.1,0,.8.3,1.8,1.8a10.67,10.67,0,0,1-15.8-1.3,7,7,0,0,1,1.7-2.9,6.38,6.38,0,0,1,3,2.7c-.4.5-.6.9-.8,1.1a1,1,0,0,0,.3,1.4m-3.1-9.8a4.23,4.23,0,0,1-.6,2.8,22.74,22.74,0,0,0-1.5,3.1,10.55,10.55,0,0,1-1.2-5,14.92,14.92,0,0,1,.2-2.1c.8-.1,1.7-.4,2.2-.4.9.1.9.5.9,1.6m1.7,13a1,1,0,0,1-1.5.3,1,1,0,0,1-.5-1.5,1.06,1.06,0,0,1,1.5-.3,1,1,0,0,1,.5,1.5m2.8.1-.5,1.4c0,.1-.2.2-.3.2a.45.45,0,0,1-.3-.3l-.5-1.1c-.1-.1-.1-.1-.2,0l-.2.7c0,.1-.2.2-.3.2s-.2-.2-.2-.3l.5-1.4c0-.1.2-.2.3-.2a.45.45,0,0,1,.3.3l.5,1c.1.1.1.1.2,0l.2-.7c0-.1.2-.2.3-.2a.76.76,0,0,1,.2.4m4.4,1.4v.2c0,.1-.1.2-.1.3s-.2.1-.3.2a4.33,4.33,0,0,1-.5.1h0a.75.75,0,0,1-.5-.1c-.1,0-.2-.1-.3-.2a.31.31,0,0,1-.1-.2,4.33,4.33,0,0,1-.1-.5v-.8h0c0-.2.1-.4.3-.4h0c.2,0,.3.2.3.4V693c0,.1.1.1.1.2s.2.1.3.1h0a.37.37,0,0,0,.3-.1c.1,0,.1-.1.1-.2v-.3h0v-.8h0c0-.2.1-.4.3-.4h0c.2,0,.3.2.3.4v.5c-.1,0-.1.2-.1.4m2.8,0a.6.6,0,0,1-.4-.1l-1-.7c-.1-.1-.2,0-.2.1l.2.8c0,.1,0,.3-.2.3s-.3-.1-.3-.2l-.4-1.5c0-.1,0-.3.2-.3a.6.6,0,0,1,.4.1l.9.6c.1.1.2,0,.2-.1l-.2-.7c0-.1,0-.3.2-.3s.3.1.3.2l.4,1.5a.19.19,0,0,1-.1.3m1.3-.4h0c-.1.1-.3,0-.4-.2l-.6-1.3h0c-.1-.2-.1-.4.1-.4h0c.1-.1.3.1.4.2l.6,1.3h0a.25.25,0,0,1-.1.4m1.8-1h0a.64.64,0,0,1-.6,0l-1.2-.9-.1-.1c-.1-.1,0-.2.1-.3h0c.1-.1.3,0,.5.1l.8.6c.1.1.1.1.1,0v-.1l-.2-.9c0-.2,0-.4.2-.5h0c.1-.1.2,0,.2.1v.1l.2,1.5c.2.1.1.3,0,.4Zm2.4-1.9-.7.6a.3.3,0,0,1-.4,0l-1-1.1a.3.3,0,0,1,0-.4l.7-.6c.1-.1.3-.1.3,0s0,.2-.1.3l-.3.3a.37.37,0,0,0-.1.3.19.19,0,0,0,.3,0l.3-.3c.1-.1.3-.1.3,0s0,.2-.1.3l-.3.3a.28.28,0,1,0,.4.4l.4-.3c.1-.1.3-.1.3,0,.2,0,.2.1,0,.2m2-2.2h0a.76.76,0,0,1-.5.2H203c-.1,0-.1,0-.1.1a.35.35,0,0,0-.1.2h0v.1l.2.2h0l.2.1h0c.1.1.2.3.1.4h0a.3.3,0,0,1-.4,0l-1.1-.8h0c-.2-.1-.2-.3-.1-.5l.2-.2V687a2.18,2.18,0,0,0,.4-.5.35.35,0,0,1,.2-.1.5.5,0,0,1,.6,0h0a.52.52,0,0,1,.2.4.6.6,0,0,1-.1.4.35.35,0,0,0,.2-.1h.8c.1.1.1.1,0,.2m1.1-2c0,.1-.1.3-.1.4h0v.1a.82.82,0,0,1-.5.5.64.64,0,0,1-.6,0h0l.1-.1h0c.1-.2.2-.3.4-.2h.1a.22.22,0,0,0,.2-.2h0a.37.37,0,0,0,.1-.3c0-.1,0-.1-.1-.2h-.1a.1.1,0,0,0-.1.1l-.3.3-.4.4a.45.45,0,0,1-.5,0h0c-.1-.1-.2-.1-.2-.2s-.1-.2,0-.4.1-.3.1-.4h0a.82.82,0,0,1,.5-.5.45.45,0,0,1,.5,0h0l-.1.1h0q-.15.3-.3.3h-.1c-.1,0-.1.1-.2.2h0a.37.37,0,0,0-.1.3c0,.1,0,.1.1.1h.1q.15,0,.3-.3l.4-.4a.5.5,0,0,1,.6,0h0c.1.1.2.1.2.3,0-.2.1,0,0,.1m.7-1.5h0c-.1.2-.2.2-.4.2l-1.3-.4h0c-.2-.1-.3-.2-.3-.4h0c.1-.1.2-.2.4-.1l1.3.4h0c.2,0,.4.2.3.3m.5-1.9c0,.1-.2.2-.3.2l-1.1-.2c-.1,0-.3.1-.3.2v.2a.22.22,0,0,1-.2.2.19.19,0,0,1-.1-.3l.3-1.4a.22.22,0,0,1,.2-.2.19.19,0,0,1,.1.3v.2c0,.1.1.3.2.3l1.1.2a1,1,0,0,1,.1.3m-1.1-7.6a.4.4,0,1,1-.4.4.43.43,0,0,1,.4-.4m-.6,3.7c.1,0,.1,0,.2.1l.7.4a1.07,1.07,0,0,0,.6.2h.2c.2,0,.4.1.4.2h0c0,.2-.2.3-.4.3h-.2a1.42,1.42,0,0,0-.6.2l-.6.5c-.1,0-.1.1-.2.1a.22.22,0,0,1-.2-.2h0a.55.55,0,0,1,.3-.5l.3-.2c.1,0,.1-.1.1-.2a.1.1,0,0,0-.1-.1l-.3-.2a.55.55,0,0,1-.3-.5h0c-.1-.1,0-.1.1-.1m-1.9-8.8.1-.1a.14.14,0,0,1,.2,0l.1.1,1.2,1.7c0,.1.1.1.1.2l-.1.2-1.1.8-.2.1-.1-.1-.1-.2.1-.1.9-.6.1-.1h0l-1.1-1.5a.76.76,0,0,1-.1-.4m-2,1.2a.14.14,0,0,1,.2,0l.1.1.1.2a.1.1,0,0,0,.1-.1l.5-.4.2-.1.1.1.1.2-.1.1-.5.3-.1.1a.1.1,0,0,0,.1.1l.1.1a.1.1,0,0,0,.1.1.31.31,0,0,0,.2-.1l.5-.3a.35.35,0,0,1,.2-.1l.2.1.1.1-.1.2-.5.4a.1.1,0,0,0-.1.1l.4.6c0,.1.1.1.1.2a.35.35,0,0,0-.1.2.14.14,0,0,1-.2,0l-.1-.1-.7-.9-.4-.5-.4-.5c0-.1-.1-.1-.1-.2h0m-1.1-3.6a.22.22,0,0,1,.2-.2h.2s.2.1.2.2a.31.31,0,0,1-.1.2c0,.1-.1.2,0,.2l.1.1.1.1v.2a.35.35,0,0,1-.2.1h-.4l-.1.1v.1a.22.22,0,0,1-.2.2h-.2s-.2-.1-.2-.2a.31.31,0,0,1,.1-.2Zm-2.4-.6c0-.1.1-.1.1-.2h.1a.1.1,0,0,1-.1-.1v-.2a.35.35,0,0,1,.2-.1c.1,0,.1,0,.2.1l.2.1a.35.35,0,0,1,.2.1h0l.1-.1a.31.31,0,0,1,.2.1.22.22,0,0,1,.2.2v.2l.1.1.2.1a.22.22,0,0,1,.2.2v.1a.35.35,0,0,1-.2.1H199v.1h0c0,.1,0,.1-.1.2a1,1,0,0,1-.5.4,1.27,1.27,0,0,1-.6-.1,1.21,1.21,0,0,1-.5-.5,1.72,1.72,0,0,1,.1-.8m-.5,1a.35.35,0,0,1,.2-.1c.1,0,.1,0,.2.1l2,1c.1,0,.1.1.2.1v.2l-.3.6a.22.22,0,0,1-.2.2h-.2s-.2-.1-.2-.2a.31.31,0,0,1,.1-.2l.2-.3c0-.1.1-.2,0-.2l-.1-.1-1.6-.8a.22.22,0,0,1-.2-.2c-.1,0-.1,0-.1-.1m1.2,3c-.1.1-.2.1-.3.2-1.3.8-1.3.2-1.6-1.1a6.63,6.63,0,0,1,1.9.9m-1.2,1.7h0c.4.4.7.7.7,1.2a2,2,0,0,1-.6,1.4,1.9,1.9,0,0,1-1.3.5,1.61,1.61,0,0,1-1.3-.6,1.68,1.68,0,0,1-.4-1.3,1.46,1.46,0,0,1,.5-1.3,1.37,1.37,0,0,1,1.1-.4,1.9,1.9,0,0,1,1.3.5m-2.1-2.1c-.2,1.3-1.1.8-1.1.8-.9-.3-3.2-1-1.4.5s.4,2.1-.7,2.4-1.5,1,.4,1,1.4.9,1.1,2.3.5,1.5,1.3.1,1.6-1.8,2.8-.2,1.2.7.9-.6-.2-1.8,1.2-1.4,2.3,0,0-1.3c-1.8-1-.9-2-.2-2.7a10.72,10.72,0,0,1,4.1,8.4,15,15,0,0,1-.2,2.2c-1.1-1.9-2.1-2.7-3.2-2.8s-1.9,1-2.3,1.6v.1l-.1-.1a4,4,0,0,0-1.7-1.4c-1.7-.5-3.4,1.9-3.8,2.6a.87.87,0,0,0,1.5.9c.7-1.1,1.6-1.9,1.9-1.9s.6.5.9.8,1.1,1.5,2.2.8a2.7,2.7,0,0,0,.7-.8c.2-.3.6-.9.9-.9.1,0,.7.1,1.8,2a.8.8,0,0,0,1.1.3,12.64,12.64,0,0,1-1.3,2.6c-1.1-1.4-2.2-2.2-3.2-2.3-1.5-.1-2.4,1.2-3,2a.1.1,0,0,1-.1.1l-.1-.1A4.49,4.49,0,0,0,193,683a3.48,3.48,0,0,0-3,1,13.82,13.82,0,0,0-1.5-3.2,4.23,4.23,0,0,1-.6-2.8c0-1.1,0-1.5.9-1.6s3.2,1.1,3.6-.2c.3-1.1-3.9-1.1-5-1a1.19,1.19,0,0,0,.5-.9,1.3,1.3,0,0,0-2.6,0,1.05,1.05,0,0,0,.5.9c-.6,0-2,0-3.2.1a10.71,10.71,0,0,1,10.1-7.2,10.9,10.9,0,0,1,2.6.3,4.72,4.72,0,0,0-.5,1.4m-3.9-4.8c0-.1,0-.2.1-.2h1.1a.37.37,0,0,1,.3.1v.1s0,.2-.1.2h-.9v1.5h1.2V665c0-.1,0-.2.1-.2h.2s.2,0,.2.1v.9h.2V665c0-.1,0-.2.1-.2h.4l.1.2v2.4c0,.1,0,.2-.1.2h-.2s-.2,0-.2-.1V666h-.2v1.4c0,.1,0,.2-.1.2h-.2s-.2,0-.2-.1v-.6H191a.1.1,0,0,1-.1-.1V665Zm-2.7,3v.2a.35.35,0,0,1-.2.1l-1.9,1a.35.35,0,0,0-.2.1h-.1a.1.1,0,0,1-.1-.1.1.1,0,0,0-.1-.1c0-.1-.1-.1-.1-.2l-.2-.3c0-.1-.1-.2,0-.2l.1-.1s.2-.1.2,0a.35.35,0,0,1,.1.2l.1.2a.1.1,0,0,0,.1.1.31.31,0,0,0,.2-.1l1.6-.8a.35.35,0,0,0,.2-.1c.2-.1.3,0,.3.1m-1.6-2.2.1-.1s.2-.1.2,0a.35.35,0,0,1,.1.2l.1.1.2.4.5,1.1c0,.1.1.2,0,.3l-.1.1s-.2.1-.2,0l-.1-.1h-.1a.31.31,0,0,0-.2.1l-.2.1c-.1,0-.2.1-.3,0l-.1-.1v-.1s.1-.2.2-.2l.2-.1a.35.35,0,0,0,.2-.1.1.1,0,0,0-.1-.1l-.5-1.1a1,1,0,0,0,.1-.4m-1.9,1a1.21,1.21,0,0,1,.5-.5,1.27,1.27,0,0,1,.6-.1.66.66,0,0,1,.5.4c0,.1.1.2.1.3v.2h0a.1.1,0,0,0,.1-.1c.1,0,.2-.1.3,0l.1.1v.2a.35.35,0,0,1-.2.1l-.2.1a.35.35,0,0,0-.2.1.1.1,0,0,0,.1.1l.1.2c0,.1.1.2,0,.2l-.1.1s-.2.1-.2,0a.35.35,0,0,1-.1-.2l-.1-.2a.1.1,0,0,0-.1-.1.31.31,0,0,0-.2.1l-.5.2c-.1,0-.2.1-.3,0l-.1-.1v-.2l.1-.1v-.1h-.1c-.1-.1-.2-.1-.2-.2a1.09,1.09,0,0,1,.1-.5m-4.5,4.4,1.4-1.9c0-.1.2-.2.2-.2a.1.1,0,0,1,.1.1.35.35,0,0,1,.1.2.35.35,0,0,0-.1.2l-1.1,1.6a.35.35,0,0,1-.1.2h.1l.1-.1,1.1-1.6c0-.1.2-.2.2-.2a.1.1,0,0,1,.1.1.35.35,0,0,1,.1.2c0,.1-.1.1-.1.2l-.5.6c0,.1-.1.1,0,.1h.1l.1-.1.5-.7a.1.1,0,0,1,.1-.1h.2a.35.35,0,0,1,.1.2.35.35,0,0,0-.1.2l-.2.3v.1h.1c.1,0,.2.1.3.1a.6.6,0,0,1,.3.6v.1a2.35,2.35,0,0,1-.2.8,1.79,1.79,0,0,1-.7.5,1.13,1.13,0,0,1-.8-.1c-.1-.1-.2-.2-.2-.3a.35.35,0,0,0-.1-.2h0a.1.1,0,0,1-.1.1l-.2.2c0,.1-.2.2-.2.2h-.1a.35.35,0,0,1-.1-.2.35.35,0,0,0,.1-.2l.5-.7a.35.35,0,0,1,.1-.2v-.1h-.1l-.1.1-.3.5c0,.1-.1.1-.2.2h-.2a.1.1,0,0,1-.1-.1c-.1,0-.1-.1-.2-.1l-.2-.1c-.1,0-.2-.2-.1-.2.4-.1.4-.2.4-.3m-.7,3.1a.4.4,0,1,1-.4.4c-.1-.2.1-.4.4-.4m-1.5,4.5c0-.1.1-.3.3-.2h1.1a.32.32,0,0,0,.3-.3v-.2c0-.1.1-.3.2-.3s.2.1.2.3v1.5c0,.1-.1.3-.2.3s-.2-.1-.2-.3v-.2a.32.32,0,0,0-.3-.3h-1.1a.32.32,0,0,1-.3-.3m.1,2.6a1.08,1.08,0,0,1,.9-1.3,1,1,0,0,1,1.2,1,1.09,1.09,0,0,1-.9,1.3,1,1,0,0,1-1.2-1m1.1,3.6v-.4l.6-1.1c.1-.1,0-.2-.1-.1l-.7.3a.19.19,0,0,1-.3-.1c-.1-.1,0-.3.2-.3l1.4-.5a.19.19,0,0,1,.3.1v.5l-.5,1c-.1.1,0,.2.1.1l.7-.3a.19.19,0,0,1,.3.1c.1.1,0,.3-.2.3l-1.4.5c-.2.1-.3.1-.4-.1m1.5,2.5a3.91,3.91,0,0,1-.5-.4,1.1,1.1,0,0,1,.2-1.6,1.13,1.13,0,0,1,1.6.5,1,1,0,0,1,.2.5.4.4,0,0,1-.2.4l-.2.1a.91.91,0,0,0-.3-.7.64.64,0,0,0-.9-.3.63.63,0,0,0-.1.9c.1.1.1.2.2.2s.2-.2.1-.3,0-.2.1-.2.2,0,.3.1l.2.2c.1.1,0,.3-.1.4l-.3.2c.1.1-.2.1-.3,0" transform="translate(-176.4 -663.2)"/><path class="cls-1" d="M185.3,667.4h.3c.1-.1.2-.1.2-.2v-.3c0-.1-.1-.1-.2-.2h-.3a.31.31,0,0,1-.2.1.35.35,0,0,1-.1.2v.2c.1.1.2.1.3.2" transform="translate(-176.4 -663.2)"/><path class="cls-1" d="M197,673.1c0-.3-.2-.5-.5-.7l-.1-.1a1.49,1.49,0,0,0-1-.3c-.4,0-.5,0-.7.3a1.22,1.22,0,0,0-.3.9c0,.4,0,.7.3.9a1.27,1.27,0,0,0,.9.4,1.22,1.22,0,0,0,.9-.3" transform="translate(-176.4 -663.2)"/><path class="cls-1" d="M202.8,686.8h0c-.1,0-.1-.1-.2,0s-.1,0-.2.1a.35.35,0,0,0-.1.2.1.1,0,0,1-.1.1h0a.3.3,0,0,0,0,.4h0a.19.19,0,0,0,.3,0h0c.1-.1.2-.3.3-.4V687c.1-.2,0-.2,0-.2" transform="translate(-176.4 -663.2)"/><path class="cls-1" d="M182.4,672c.1.1.2.1.4.1a.76.76,0,0,0,.4-.2.6.6,0,0,0,.1-.4.52.52,0,0,0-.2-.4c-.1-.1-.2-.1-.4-.1a.76.76,0,0,0-.4.2.6.6,0,0,0-.1.4.52.52,0,0,0,.2.4" transform="translate(-176.4 -663.2)"/><path class="cls-1" d="M198,666.9c.1,0,.2.1.3,0a.35.35,0,0,0,.2-.1v-.3a.22.22,0,0,0-.2-.2c-.1,0-.2-.1-.3,0a.35.35,0,0,0-.2.1v.2c.1.2.1.3.2.3" transform="translate(-176.4 -663.2)"/><line class="cls-2" x1="156.4" y1="9.4" x2="156.4" y2="25.4"/></svg>