<?xml version="1.0" encoding="utf-8"?>
<!-- Generator: Adobe Illustrator 25.2.1, SVG Export Plug-In . SVG Version: 6.00 Build 0)  -->
<svg version="1.1" id="레이어_1" xmlns="http://www.w3.org/2000/svg" xmlns:xlink="http://www.w3.org/1999/xlink" x="0px"
	 y="0px" viewBox="0 0 257.8 56.3" style="enable-background:new 0 0 257.8 56.3;" xml:space="preserve">
<style type="text/css">
	.st0{fill:#A5A5A5;}
</style>
<g id="레이어_3">
	<g>
		<path class="st0" d="M14.1,35.9h2.8V48h-2.8v-2.6H9.5c-1,1.1-2.4,1.7-4.1,1.7C2.3,47.1,0,44.9,0,42s2.3-5,5.4-5
			c1.7,0,3.1,0.6,4.1,1.6h4.6V35.9z M8.1,42c0-1.6-1.2-2.6-2.7-2.6c-1.6,0-2.7,1-2.7,2.6c0,1.7,1.1,2.6,2.7,2.6
			C6.9,44.6,8.1,43.7,8.1,42z M2.9,51.1v-2.2h14v7.4h-2.8v-5.2H2.9z M14.1,43.1V41h-3.4c0.1,0.3,0.1,0.7,0.1,1c0,0.4,0,0.8-0.1,1.1
			H14.1z"/>
		<path class="st0" d="M31.1,46.7c-2.9,0.6-5.5,0.7-9.7,0.7h-1.7v-6.3h6.6v-1.7h-6.6v-2.2h9.4v6.1h-6.5V45c3.4,0,5.6-0.1,8.2-0.6
			L31.1,46.7z M35.3,52.5c0,2.4-2.7,3.8-6.9,3.8c-4.3,0-7-1.4-7-3.8c0-2.4,2.7-3.9,7-3.9C32.7,48.5,35.3,50,35.3,52.5z M32.5,52.5
			c0-1.1-1.4-1.7-4.1-1.7s-4.2,0.6-4.2,1.7c0,1.1,1.4,1.7,4.2,1.7C31.1,54.1,32.5,53.6,32.5,52.5z M37.9,41h-2.8v2h2.8v2.4h-2.8v2.9
			h-2.9V35.9h2.9v2.7h2.8V41z"/>
		<path class="st0" d="M49.3,38.1c0,6.2-2.2,11.3-9.5,14.7l-1.5-2.3c5.3-2.5,7.6-5.7,8-10.2h-6.9v-2.2H49.3z M52.5,35.9h2.9v20.4
			h-2.9V35.9z"/>
		<path class="st0" d="M68,37.4v10.3h-9.9V37.4h2.8v3h4.2v-3H68z M63.3,49.4v4.2h11.1v2.3H60.5v-6.5H63.3z M65.1,45.4v-2.9h-4.2v2.9
			H65.1z M73.7,41.7h2.7V44h-2.7v6.9h-2.9v-15h2.9V41.7z"/>
		<path class="st0" d="M93.3,51.5h6.7v2.3H81.5v-2.3h3.9v-6.4h2.8v6.4h2.2v-6.4h2.8L93.3,51.5L93.3,51.5z M94.8,48.8
			c0.7-3.7,0.7-6.5,0.7-8.8H83.3v-2.3h15.1v2c0,2.5,0,5.3-0.8,9.4L94.8,48.8z"/>
		<path class="st0" d="M119.3,47.7h-4.5v1.9h2.2v6.7h-2.9v-4.5h-11.4v-2.2h2.3v-1.9h-4.4v-2.3h18.6v2.3H119.3z M102.6,40.3
			c0-2.5,2.9-4,7.4-4s7.4,1.5,7.4,4s-2.9,4-7.4,4C105.5,44.4,102.6,42.8,102.6,40.3z M105.6,40.3c0,1.2,1.6,1.8,4.4,1.8
			s4.5-0.6,4.5-1.8s-1.6-1.8-4.5-1.8C107.2,38.5,105.6,39.2,105.6,40.3z M112,49.6v-1.9h-4v1.9H112z"/>
		<path class="st0" d="M126.4,49.7c2-0.1,4-0.2,5.9-0.5l0.2,2.1c-4.2,0.7-8.8,0.8-12.4,0.8l-0.3-2.3c1.1,0,2.4,0,3.7,0v-6h2.8v5.9
			H126.4z M128.1,47.2c0.5-3,0.5-5.1,0.5-6.9h-7.7V38h10.6v1.6c0,1.9,0,4.4-0.6,7.8L128.1,47.2z M138.9,44.1v2.4h-2.8v9.8h-2.9V35.9
			h2.9v8.2C136.1,44.1,138.9,44.1,138.9,44.1z"/>
		<path class="st0" d="M140.6,48l-1.5-2.3c3.3-1.1,4.9-3.8,4.9-6.3h-4v-2.3h11v2.3h-4.1c0.1,2.4,1.5,4.8,4.7,5.8l-1.4,2.2
			c-2.2-0.7-3.8-2.2-4.7-4C144.6,45.5,143,47.2,140.6,48z M156.5,52.4c0,2.5-2.7,3.9-7,3.9s-7-1.5-7-3.9c0-2.5,2.7-3.9,7-3.9
			S156.5,49.9,156.5,52.4z M153.6,52.4c0-1.2-1.5-1.8-4.2-1.8s-4.2,0.6-4.2,1.8s1.5,1.7,4.2,1.7C152.2,54.1,153.6,53.6,153.6,52.4z
			 M150.4,40.9h3.2v-5h2.8V48h-2.8v-4.8h-3.2V40.9z"/>
		<path class="st0" d="M175.7,47.5c-4.2,0.8-9,0.9-12.5,0.9l-0.2-2.3c1.1,0,2.4,0,3.8,0v-4h2.8V46c2-0.1,4.1-0.2,6-0.5L175.7,47.5z
			 M171.4,44.4c0.4-1.9,0.5-3.4,0.5-4.7h-7.7v-2.3h10.5v1.3c0,1.4,0,3.4-0.5,6L171.4,44.4z M168.8,49.8v3.8h11.5v2.3H166v-6.1H168.8
			z M179.6,42.1h2.5v2.4h-2.5v6.7h-2.9V35.9h2.9V42.1z"/>
		<path class="st0" d="M186.5,49.2c3.1,0,5.8-0.2,8.7-0.7l0.2,2.3c-3.3,0.6-6.4,0.7-10.1,0.7h-1.8v-8.3h6.8v-3.3h-6.8v-2.3h9.7v7.8
			h-6.7L186.5,49.2L186.5,49.2z M196.7,35.9h2.8v20.4h-2.8V35.9z"/>
		<path class="st0" d="M209.7,40.5c0,3.7,1.7,7.5,5.1,8.9l-1.7,2.3c-2.3-1.1-3.9-3.1-4.9-5.6c-0.9,2.7-2.6,5-5.1,6.1l-1.7-2.4
			c3.6-1.5,5.3-5.4,5.3-9.4v-3h2.9L209.7,40.5L209.7,40.5z M215.9,35.9h2.9v20.4h-2.9V35.9z"/>
		<path class="st0" d="M221,51.4h18.6v2.4H221V51.4z M222.7,47.9l-1.2-2.4c4.5-0.8,7.2-4,7.2-7V37h3v1.5c0,3,2.6,6.2,7.2,7l-1.3,2.4
			c-3.6-0.7-6.2-2.7-7.5-5.3C228.9,45.2,226.2,47.2,222.7,47.9z"/>
		<path class="st0" d="M249.8,46.8c-2.3,0.4-4.3,0.5-7.4,0.5H241V37.1h7.8v2.3h-5V41h4.3v2.2h-4.3V45c2.2,0,3.8-0.1,5.7-0.4
			L249.8,46.8z M243.8,56.1v-7.2h13.9v7.2H243.8z M246.7,51.1v2.7h8.2v-2.7H246.7z M251,47.9v-4.8h-2.1v-2.3h2.1v-4.6h2.7v11.7
			C253.7,47.9,251,47.9,251,47.9z M255,35.9h2.7v12.2H255V35.9z"/>
	</g>
	<g>
		<path class="st0" d="M54.3,12c-0.3-0.1-0.8-0.2-1.2-0.2h-4.7c-0.4,0-0.8,0-0.9-0.1c-0.1-0.1-0.2-0.4-0.2-0.5s0-0.2,0-0.3
			s0.3-0.3,0.7-0.3h4.5c0.4,0,0.9-0.1,1.2-0.2c0.3-0.1,0.5-0.8,0.5-1S54.1,8.9,54,8.6c-0.1-0.2-1-0.4-1.4-0.4h-11
			c-0.4,0-0.8,0-0.9-0.1c-0.1-0.1-0.2-0.4-0.2-0.4s0-0.1,0.1-0.3c0.1-0.1,0.7-0.2,1.1-0.2h10.9c0.4,0,0.9-0.1,1.2-0.2s0.5-0.8,0.5-1
			s-0.1-0.5-0.2-0.8c-0.1-0.2-1-0.4-1.4-0.4H39.2c-0.4,0-0.9,0.1-1.2,0.2s-0.5,1-0.5,1.3v1.2c0,0.4,0,1,0,1.3c0,0,0,0.3,0.1,0.7
			c0,0,0.1,0.4,0.3,0.6c0.3,0.3,0.5,0.3,0.5,0.3c0.4,0.1,1,0.1,1.4,0.1h3.3c0.4,0,0.8,0,0.9,0.1c0.1,0.1,0.2,0.4,0.2,0.5
			s0,0.2-0.1,0.4c-0.1,0.1-0.7,0.2-1.1,0.2h-4.6c-0.4,0-0.9,0.1-1.2,0.2c-0.3,0.1-0.5,0.8-0.5,1s0.1,0.5,0.2,0.8
			c0.1,0.2,1,0.4,1.4,0.4H40c0.4,0,0.7,0,0.7,0s0.1,0,0,0.1l0,0c0,0-0.5,0.5-0.8,1c-0.3,0.6-0.5,1.3-0.5,2c0,1.5,0.7,2.8,1.9,3.8
			c1.2,0.9,2.6,1.4,4.3,1.4c1.6,0,3-0.5,4.2-1.4c1.3-1,1.9-2.3,1.9-3.8c0-0.7-0.2-1.4-0.5-2c-0.2-0.4-0.4-0.6-0.4-0.6
			c-0.3-0.3-0.2-0.5,0.2-0.5h1.8c0.4,0,0.9-0.1,1.2-0.2c0.3-0.1,0.5-0.8,0.5-1C54.8,12.8,54.5,12.1,54.3,12 M49.1,17.2
			c0,0.8-0.3,1.5-1,2c-0.7,0.6-1.4,0.8-2.3,0.8c-0.9,0-1.6-0.3-2.3-0.8c-0.7-0.6-1-1.2-1-2s0.3-1.5,1-2s1.4-0.8,2.3-0.8
			c0.9,0,1.6,0.3,2.3,0.8C48.8,15.8,49.1,16.5,49.1,17.2"/>
		<path class="st0" d="M63.5,13.6c0.1,0.1,0.1,0.5,0.1,0.9v1.2c0,0.4,0.1,0.9,0.2,1.1c0.1,0.2,0.9,0.4,1.2,0.4s0.7-0.1,1-0.2
			s0.5-1,0.5-1.3v-1.2c0-0.4,0-0.8,0.1-0.9c0.1-0.1,0.7-0.2,1.1-0.2H69c0.4,0,0.9-0.1,1.2-0.2c0.3-0.1,0.5-0.8,0.5-1
			s-0.1-0.5-0.2-0.8c-0.1-0.2-1-0.4-1.4-0.4s-0.7,0-0.7,0s-0.1,0,0,0l0,0c0,0,0.3-0.3,0.6-0.8c0.3-0.5,0.4-1.1,0.4-1.7
			c0-1.3-0.5-2.3-1.6-3.2c-1-0.8-2.2-1.1-3.5-1.1c-1.4,0-2.6,0.4-3.6,1.1c-1.1,0.8-1.6,1.9-1.6,3.2c0,0.6,0.1,1.2,0.4,1.7
			c0.2,0.3,0.2,0.4,0.2,0.4c0.3,0.3,0.2,0.5-0.1,0.5s-0.8,0.1-1,0.2c-0.3,0.1-0.5,0.8-0.5,1s0.1,0.5,0.2,0.8c0.1,0.2,1,0.4,1.4,0.4
			h2.8C62.8,13.4,63.4,13.5,63.5,13.6 M61.9,7.5c0.2-0.3,0.7-0.7,1-0.9c0,0,0.5-0.3,1.1-0.3s1.2,0.2,1.7,0.6s0.7,0.9,0.7,1.5
			c0,0.5-0.2,1-0.7,1.5c-0.5,0.4-1,0.6-1.7,0.6s-1.2-0.2-1.7-0.7c-0.5-0.4-0.7-0.9-0.7-1.5C61.6,7.9,61.9,7.5,61.9,7.5"/>
		<path class="st0" d="M74.9,19.3c-0.3-0.1-0.8-0.2-1.2-0.2H63.4c-0.4,0-0.8,0-0.9-0.1c-0.1-0.1-0.2-0.6-0.2-1v-1.6
			c0-0.4-0.1-0.9-0.2-1.1c-0.1-0.2-0.9-0.4-1.2-0.4s-0.7,0.1-1,0.2c-0.3,0.1-0.5,1-0.5,1.3v2.1c0,0.4,0,0.9,0,1.3c0,0,0,0.3,0.1,0.7
			c0,0,0.1,0.3,0.4,0.6c0.3,0.3,0.5,0.3,0.5,0.3c0.4,0.1,1,0.1,1.4,0.1h12c0.4,0,0.9-0.1,1.2-0.2c0.3-0.1,0.5-0.8,0.5-1
			C75.4,20.1,75.2,19.4,74.9,19.3"/>
		<path class="st0" d="M68.4,14.7c-0.1,0.2-0.2,0.6-0.2,0.8s0.1,0.5,0.2,0.8c0.1,0.2,1,0.4,1.4,0.4h1.3c0.4,0,0.8,0,0.9,0.1
			s0.2,0.4,0.2,0.4s0.1,0.2,0.2,0.5c0.1,0.2,1,0.4,1.2,0.4c0.3,0,0.7-0.1,1-0.2s0.5-1,0.5-1.3V6.4c0-0.4-0.1-0.9-0.2-1.1
			s-1-0.4-1.2-0.4c-0.3,0-0.7,0.1-1,0.2s-0.5,1-0.5,1.3v6.8c0,0.4,0,0.8-0.1,0.9c-0.1,0.1-0.7,0.2-1.1,0.2h-1.3
			C69.5,14.3,68.6,14.5,68.4,14.7"/>
		<path class="st0" d="M95.8,5.1c-0.3-0.1-0.7-0.2-0.9-0.2c-0.2,0-0.7,0.1-0.9,0.2c-0.3,0.1-0.5,1-0.5,1.3V9c0,0.4,0,0.8-0.1,0.9
			c-0.1,0.1-0.5,0.2-0.6,0.2s-0.3,0-0.5-0.1c-0.1-0.1-0.2-0.6-0.2-1V6.4c0-0.4-0.1-0.9-0.2-1.1S91,4.9,90.8,4.9S90.2,5,89.9,5.1
			s-0.5,1-0.5,1.3v8c0,0.4,0,0.8-0.1,0.9c-0.1,0.1-0.7,0.2-1.1,0.2h-4.5c-0.4,0-0.8,0-0.9-0.1s-0.2-0.6-0.2-1v-6
			c0-0.4,0-0.8,0.1-0.9s0.7-0.2,1.1-0.2h2.6c0.4,0,0.9-0.1,1.2-0.2C87.8,7,88,6.3,88,6.1c0-0.2-0.1-0.5-0.2-0.8
			c-0.1-0.2-1-0.4-1.4-0.4h-5.1c-0.4,0-0.9,0.1-1.2,0.2c-0.3,0.1-0.5,1-0.5,1.3v8.7c0,0.4,0,1,0,1.3c0,0,0,0.3,0.1,0.7
			c0,0.1,0.1,0.3,0.4,0.5s0.5,0.2,0.5,0.2c0.4,0,1,0.1,1.4,0.1h6.1c0.4,0,0.8,0,0.9,0.1s0.2,0.6,0.2,1v1c0,0.4,0.1,0.9,0.2,1.1
			s0.9,0.4,1.1,0.4s0.6-0.1,0.9-0.2s0.5-1,0.5-1.3v-6.5c0-0.4,0-0.8,0.1-0.9c0.1-0.1,0.5-0.2,0.6-0.2s0.3,0,0.5,0.1
			c0.1,0.1,0.2,0.6,0.2,1V20c0,0.4,0.1,0.9,0.2,1.1s0.9,0.4,1.2,0.4c0.2,0,0.7-0.1,0.9-0.2c0.3-0.1,0.5-1,0.5-1.3V6.4
			C96.3,6.1,96.1,5.2,95.8,5.1"/>
		<path class="st0" d="M101.4,8.5c-0.1,0.4-0.2,0.7-0.2,1.1c0,1.2,0.5,2.2,1.5,3c1,0.7,2.1,1.1,3.4,1.1s2.5-0.4,3.4-1.1
			c1-0.8,1.5-1.8,1.5-3c0-0.4-0.1-0.8-0.2-1.1l-0.1-0.2c-0.1-0.2-0.2-0.4-0.1-0.4s0.3-0.1,0.6-0.2c0.3-0.1,0.5-0.8,0.5-1
			s-0.1-0.5-0.2-0.7s-1-0.4-1.4-0.4H109c-0.4,0-0.8,0-0.9-0.1s-0.2-0.4-0.2-0.5s-0.1-0.3-0.2-0.6c-0.1-0.2-1-0.4-1.3-0.4
			s-0.8,0.1-1.1,0.2c-0.3,0.1-0.5,0.7-0.5,0.8c0,0.1,0,0.2-0.1,0.3c-0.1,0.1-0.7,0.2-1.1,0.2h-1.3c-0.4,0-0.9,0.1-1.2,0.2
			c-0.3,0.1-0.5,0.8-0.5,1s0.1,0.6,0.3,0.9c0,0,0.1,0.3,0.7,0.3h0.1c0,0,0.1,0.1,0,0.1l-0.1,0.1C101.6,8.1,101.5,8.1,101.4,8.5
			 M104,9.7c0-0.5,0.2-0.9,0.6-1.3c0.4-0.4,0.9-0.5,1.5-0.5s1,0.2,1.5,0.5c0.4,0.4,0.6,0.8,0.6,1.3s-0.2,0.9-0.6,1.2
			c-0.4,0.4-0.9,0.5-1.5,0.5s-1-0.2-1.5-0.5C104.2,10.5,104,10.1,104,9.7"/>
		<path class="st0" d="M116.9,14.6c-0.3-0.1-0.8-0.2-1.2-0.2h-12.6c-0.4,0-0.9,0.1-1.2,0.2c-0.3,0.1-0.5,0.8-0.5,1s0.1,0.5,0.2,0.8
			c0.1,0.2,1,0.4,1.4,0.4h10.2c0.4,0,0.8,0,0.9,0.1s0.2,0.6,0.2,1V20c0,0.4,0.1,0.9,0.2,1.1s1,0.4,1.2,0.4c0.3,0,0.7-0.1,1-0.2
			s0.5-1,0.5-1.3v-4C117.3,15.6,117.1,14.7,116.9,14.6"/>
		<path class="st0" d="M119.3,7.7c-0.3-0.1-0.7-0.2-1-0.2s-0.6,0-0.7-0.1s-0.2-0.6-0.2-1s-0.1-0.9-0.2-1.1s-1-0.4-1.2-0.4
			c-0.3,0-0.7,0.1-1,0.2s-0.5,1-0.5,1.3v5.2c0,0.4,0.1,0.9,0.2,1.1c0.1,0.2,1,0.4,1.2,0.4c0.3,0,0.7-0.1,1-0.2
			c0.3-0.1,0.5-1,0.5-1.3V11c0-0.4,0-0.8,0.1-0.9c0.1-0.1,0.6-0.2,0.9-0.2s0.7-0.1,1-0.2c0.3-0.1,0.5-0.8,0.5-1
			C119.8,8.5,119.6,7.8,119.3,7.7"/>
		<path class="st0" d="M139,19.2c-0.3-0.1-0.8-0.2-1.2-0.2h-4.5c0-0.2,0-0.4,0-0.6v-3.9c0-0.4-0.2-1.2-0.5-1.3s-0.7-0.2-1-0.2
			s-1.1,0.2-1.2,0.4c-0.1,0.2-0.2,0.7-0.2,1.1v3.4c0,0.4-0.1,0.9-0.2,1c-0.1,0.1-0.6,0.1-0.9,0.1h-0.6c-0.4,0-0.8,0-0.9-0.1
			s-0.2-0.6-0.2-1v-3.4c0-0.4-0.1-0.9-0.2-1.1c-0.1-0.2-0.9-0.4-1.2-0.4c-0.3,0-0.7,0.1-1,0.2c-0.3,0.1-0.5,1-0.5,1.3v3.9
			c0,0.2,0,0.4,0,0.6h-1.5c-0.4,0-0.9,0.1-1.2,0.2c-0.3,0.1-0.5,0.8-0.5,1s0.2,0.9,0.5,1s0.8,0.2,1.2,0.2h3.9h3.9h6.9
			c0.4,0,0.9-0.1,1.2-0.2s0.5-0.8,0.5-1C139.5,20,139.2,19.3,139,19.2"/>
		<path class="st0" d="M137.8,5.1c-0.3-0.1-0.8-0.2-1.2-0.2H124c-0.4,0-0.9,0.1-1.2,0.2c-0.3,0.1-0.5,0.8-0.5,1s0.1,0.5,0.2,0.8
			c0.1,0.2,1,0.4,1.4,0.4H135c0.4,0-0.1,0,0,0.1s0.2,0.6,0.2,1v6.4c0,0.4,0.1,0.9,0.2,1.1c0.1,0.2,1,0.4,1.2,0.4
			c0.3,0,0.7-0.1,1-0.2s0.5-1,0.5-1.3V6.4C138.3,6,138.1,5.2,137.8,5.1"/>
		<path class="st0" d="M42.1,25.2c0,0.3-0.3,0.5-0.7,0.5h-0.5c-0.4,0-0.7,0.3-0.7,0.7v3c0,0.4-0.3,0.7-0.7,0.7s-0.7-0.3-0.7-0.7v-3
			c0-0.4-0.3-0.7-0.7-0.7h-0.5c-0.4,0-0.7-0.2-0.7-0.5s0.3-0.5,0.7-0.5h3.8C41.8,24.7,42.1,25,42.1,25.2"/>
		<path class="st0" d="M133.5,25.2c0,0.3-0.3,0.5-0.7,0.5h-0.5c-0.4,0-0.7,0.3-0.7,0.7v3c0,0.4-0.3,0.7-0.7,0.7s-0.7-0.3-0.7-0.7v-3
			c0-0.4-0.3-0.7-0.7-0.7H129c-0.4,0-0.7-0.2-0.7-0.5s0.3-0.5,0.7-0.5h3.8C133.1,24.7,133.5,25,133.5,25.2"/>
		<path class="st0" d="M45.2,30.1c-1.9,0-3-1.4-3-2.7c0-1.3,1-2.7,3-2.7s3,1.5,3,2.7C48.3,28.8,47.1,30.1,45.2,30.1 M45.2,25.8
			c-1,0-1.7,0.6-1.7,1.6s0.7,1.6,1.7,1.6s1.7-0.6,1.7-1.6S46.2,25.8,45.2,25.8"/>
		<path class="st0" d="M54.6,29.4c0,0.4-0.3,0.7-0.6,0.7s-0.8-0.2-1-0.5l-2-2.4c-0.2-0.3-0.4-0.2-0.4,0.2v2c0,0.4-0.3,0.7-0.7,0.7
			s-0.7-0.3-0.7-0.7v-3.9c0-0.4,0.3-0.7,0.6-0.7s0.8,0.2,1.1,0.5l1.9,2.2c0.2,0.3,0.5,0.2,0.5-0.2v-1.9c0-0.4,0.3-0.7,0.7-0.7
			s0.7,0.3,0.7,0.7L54.6,29.4L54.6,29.4z"/>
		<path class="st0" d="M60.9,26.3c-0.7-0.3-1.3-0.5-2-0.5c-1.4,0-1.9,0.9-1.9,1.7c0,0.9,0.7,1.6,1.8,1.6c0.3,0,0.5,0,0.9-0.2
			c0-0.3-0.2-0.6-0.4-0.6s-0.4-0.2-0.4-0.5s0.3-0.5,0.7-0.5h0.7c0.4,0,0.7,0.3,0.7,0.7v0.8c0,0.4-0.3,0.8-0.6,1c0,0-0.8,0.4-1.6,0.4
			c-1.9,0-3.2-1.1-3.2-2.7s1.3-2.7,3.2-2.7c0.8,0,1.4,0.2,1.4,0.2c0.4,0.1,0.7,0.5,0.7,0.9C60.9,25.9,60.9,26.3,60.9,26.3z"/>
		<path class="st0" d="M64.7,29.5c-0.2,0.3-0.4,0.6-0.6,0.6c-0.2,0-0.4-0.3-0.6-0.6l-1.8-4.1c-0.2-0.3,0-0.6,0.4-0.6l0,0
			c0.4,0,0.8,0.3,1,0.6l0.7,1.7c0.1,0.3,0.4,0.4,0.6,0l0.8-1.7c0.2-0.3,0.5-0.6,0.8-0.6s0.7,0.3,0.8,0.6l0.8,1.7
			c0.2,0.3,0.4,0.3,0.6,0l0.7-1.7c0.1-0.3,0.6-0.6,1-0.6l0,0c0.4,0,0.6,0.3,0.4,0.6l-1.8,4.1c-0.2,0.3-0.4,0.6-0.6,0.6
			s-0.4-0.3-0.6-0.6l-1.1-2.2c-0.2-0.3-0.4-0.3-0.6,0L64.7,29.5z"/>
		<path class="st0" d="M73.6,30.1c-2,0-3-1.4-3-2.7c0-1.3,1-2.7,3-2.7s3,1.5,3,2.7C76.6,28.8,75.5,30.1,73.6,30.1 M73.6,25.8
			c-1,0-1.7,0.6-1.7,1.6s0.7,1.6,1.7,1.6s1.7-0.6,1.7-1.6C75.3,26.4,74.6,25.8,73.6,25.8"/>
		<path class="st0" d="M83,29.4c0,0.4-0.3,0.7-0.6,0.7c-0.3,0-0.8-0.2-1-0.5l-2-2.4c-0.2-0.3-0.5-0.2-0.5,0.2v2
			c0,0.4-0.3,0.7-0.7,0.7c-0.4,0-0.7-0.3-0.7-0.7v-3.9c0-0.4,0.3-0.7,0.6-0.7c0.3,0,0.8,0.2,1.1,0.5l1.9,2.2
			c0.3,0.3,0.5,0.2,0.5-0.2v-1.9c0-0.4,0.3-0.7,0.7-0.7c0.4,0,0.7,0.3,0.7,0.7V29.4z"/>
		<path class="st0" d="M99.2,29.4c0,0.4-0.3,0.7-0.6,0.7c-0.3,0-0.8-0.2-1-0.5l-2-2.4c-0.3-0.3-0.5-0.2-0.5,0.2v2
			c0,0.4-0.3,0.7-0.7,0.7c-0.4,0-0.7-0.3-0.7-0.7v-3.9c0-0.4,0.3-0.7,0.6-0.7c0.3,0,0.8,0.2,1.1,0.5l1.9,2.2
			c0.3,0.3,0.5,0.2,0.5-0.2v-1.9c0-0.4,0.3-0.7,0.7-0.7c0.4,0,0.7,0.3,0.7,0.7V29.4z"/>
		<path class="st0" d="M113.2,29.6c0,0.3-0.3,0.5-0.7,0.5H110c-0.4,0-0.7-0.3-0.7-0.7v-3.9c0-0.4,0.3-0.7,0.7-0.7h2.5
			c0.4,0,0.7,0.2,0.7,0.5s-0.3,0.5-0.7,0.5h-1.2c-0.4,0-0.7,0.3-0.7,0.6c0,0.3,0.3,0.6,0.7,0.6h1c0.4,0,0.7,0.2,0.7,0.5
			s-0.3,0.5-0.7,0.5h-1c-0.4,0-0.7,0.3-0.7,0.6c0,0.4,0.3,0.6,0.7,0.6h1.2C112.9,29.1,113.2,29.3,113.2,29.6"/>
		<path class="st0" d="M92.4,25.6c0-0.5-0.3-0.9-0.7-1l0,0l0,0l0,0l0,0l0,0l0,0l0,0l0,0c-0.4,0-0.7,0.5-0.7,1l0,0v2.1v0.1
			c0,0.4,0,0.6,0,0.8c0,0.2-0.1,0.3-0.3,0.4c-0.1,0.1-0.4,0.2-0.7,0.2l0,0c-0.3,0-0.5-0.1-0.7-0.2S89,28.7,89,28.5v-0.1
			c0-0.4,0-1.1,0-1.6v-1.2c0-0.5-0.3-0.9-0.7-1l0,0l0,0l0,0l0,0c-0.4,0-0.7,0.5-0.7,1l0,0v2c0,0.6,0,1.1,0.1,1.4
			c0.1,0.2,0.2,0.4,0.4,0.6c0.2,0.2,0.4,0.4,0.7,0.5c0.3,0.1,0.7,0.2,1.3,0.2H90c0.5,0,0.9-0.1,1.2-0.2c0.3-0.1,0.5-0.3,0.7-0.5
			s0.3-0.4,0.4-0.7c0.1-0.3,0.1-0.5,0.1-0.5c0-0.4,0-1,0-1.5c0-0.1,0-0.1,0-0.2L92.4,25.6z"/>
		<path class="st0" d="M101.9,25.7c0-0.5-0.3-0.9-0.7-1l0,0l0,0l0,0c-0.4,0-0.7,0.5-0.7,1l0,0v3.6c0,0.5,0.3,0.9,0.7,1l0,0v-0.1v0.1
			c0.4,0,0.7-0.5,0.7-1l0,0V25.7z"/>
		<path class="st0" d="M127.8,25.7c0-0.5-0.3-0.9-0.7-1l0,0l0,0l0,0l0,0l0,0c-0.4,0-0.7,0.5-0.7,1l0,0v3.6c0,0.5,0.3,0.9,0.7,1l0,0
			l0,0l0,0l0,0c0.4,0,0.7-0.5,0.7-1l0,0V25.7z"/>
		<path class="st0" d="M107.7,24.8L107.7,24.8L107.7,24.8L107.7,24.8L107.7,24.8L107.7,24.8c-0.4,0-0.8,0.4-1,0.8l-0.9,2.3
			c-0.1,0.2-0.2,0.3-0.2,0.3c-0.1,0-0.2-0.1-0.2-0.3l-0.9-2.3c-0.2-0.5-0.6-0.8-1-0.8l0,0l0,0l0,0l0,0c-0.3,0-0.5,0.2-0.5,0.5
			c0,0.1,0,0.2,0.1,0.4l1.5,3.7c0.2,0.5,0.6,0.8,1,0.8h0.2l0,0l0,0c0.3-0.1,0.7-0.4,0.9-0.8l1.5-3.7c0.1-0.1,0.1-0.3,0.1-0.4
			C108.2,25,108,24.8,107.7,24.8"/>
		<path class="st0" d="M119.4,29.4l-0.2-0.3c-0.3-0.4-0.5-0.7-0.7-0.9c-0.1-0.1-0.3-0.3-0.5-0.4c0.5-0.1,0.8-0.2,1-0.5
			c0.3-0.3,0.4-0.6,0.4-1l0,0c0-0.3-0.1-0.6-0.3-0.9c-0.2-0.3-0.4-0.4-0.7-0.5c-0.3-0.1-0.5-0.1-0.5-0.1c-0.4,0-1.1,0-1.5,0
			c-0.1,0-0.1,0-0.2,0h-0.8c-0.5,0-0.9,0.4-0.9,0.9l0,0v3.6c0,0.5,0.3,0.9,0.7,0.9l0,0c0.4,0,0.6-0.4,0.6-0.9l0,0v-0.5l0,0
			c0-0.2,0-0.4,0.1-0.6c0-0.1,0.1-0.2,0.1-0.2l0,0c0.2,0,0.4,0,0.5,0.1c0.1,0,0.2,0.1,0.3,0.2l0.1,0.1c0.3,0.4,0.7,0.9,1,1.2
			c0.3,0.3,0.8,0.6,1.2,0.6l0,0c0.3,0,0.4-0.1,0.4-0.4C119.6,29.7,119.5,29.5,119.4,29.4 M117.5,27c-0.5,0-1.1,0-1.3,0l0,0l0,0
			c-0.2,0-0.4-0.3-0.4-0.6l0,0l0,0l0,0c0-0.3,0.4-0.6,0.8-0.6h0.1c0.1,0,0.2,0,0.3,0c0.3,0,0.5,0,0.5,0c0.2,0,0.3,0.1,0.4,0.2
			s0.1,0.2,0.1,0.4l0,0c0,0.1,0,0.3-0.1,0.4S117.7,27,117.5,27C117.5,27,117.5,27,117.5,27"/>
		<path class="st0" d="M125,27.7c-0.2-0.2-0.4-0.4-0.7-0.6c-0.3-0.1-0.7-0.3-1.3-0.4c-0.6-0.1-0.9-0.3-1.1-0.4
			c-0.1-0.1-0.2-0.2-0.2-0.3l0,0c0-0.1,0.1-0.2,0.2-0.3c0.2-0.1,0.4-0.2,0.7-0.2c0,0,0,0,0.1,0c0.3,0,0.6,0.1,0.7,0.2
			s0.1,0.1,0.2,0.1c0.1,0.3,0.6,0.5,1,0.5l0,0h0.3h0.1l0,0c0-0.5-0.2-0.9-0.6-1.2c-0.4-0.3-0.9-0.5-1.7-0.5h-0.1l0,0l0,0
			c-0.4,0-0.8,0.1-1.1,0.2c-0.3,0.1-0.6,0.3-0.8,0.5c-0.2,0.2-0.3,0.5-0.3,0.8l0,0c0,0.4,0.2,0.8,0.5,1.1c0.3,0.2,0.7,0.4,1.4,0.6
			c0.5,0.1,0.8,0.2,0.9,0.3c0.2,0.1,0.3,0.1,0.4,0.2s0.1,0.2,0.1,0.3l0,0c0,0.2-0.1,0.3-0.3,0.5c-0.2,0.1-0.4,0.2-0.8,0.2
			c0,0,0,0-0.1,0c-0.4,0-0.6-0.1-0.8-0.3l-0.2-0.2c-0.1-0.3-0.5-0.6-1-0.6l0,0l0,0h-0.1H120v0.1c0.1,0.6,0.3,1.1,0.7,1.4
			c0.4,0.3,1,0.5,1.7,0.5c0.1,0,0.1,0,0.2,0l0,0l0,0c0.5,0,0.8-0.1,1.2-0.2c0.4-0.1,0.6-0.3,0.8-0.6c0.2-0.3,0.3-0.6,0.3-0.9v-0.1
			C125.3,28.2,125.2,27.9,125,27.7"/>
		<path class="st0" d="M138.8,24.7L138.8,24.7c-0.4,0-1,0.3-1.2,0.8l-0.4,0.7c-0.1,0.2-0.3,0.3-0.4,0.3c-0.1,0-0.3-0.1-0.4-0.2
			l-0.4-0.7c-0.3-0.4-0.8-0.8-1.3-0.8l0,0c-0.3,0-0.5,0.2-0.5,0.4c0,0.1,0.1,0.3,0.2,0.5l1.2,1.7c0.3,0.4,0.5,1.1,0.5,1.5v0.5
			c0,0.5,0.3,0.9,0.7,1l0,0l0,0l0,0c0.4,0,0.7-0.5,0.7-1l0,0v-0.5l0,0c0-0.4,0.2-1.1,0.5-1.5l1.2-1.7c0.1-0.2,0.2-0.3,0.2-0.5
			C139.3,24.9,139.1,24.7,138.8,24.7"/>
		<path class="st0" d="M9.6,27.4c-0.3-0.2-0.7-0.1-0.9,0.2c-0.2,0.3-0.1,0.7,0.3,0.9c0.3,0.2,0.7,0.1,0.9-0.2
			C10,27.9,9.9,27.6,9.6,27.4"/>
		<path class="st0" d="M3.4,18.4C3.3,18,3,17.8,2.6,17.9S2,18.3,2.1,18.6c0.1,0.4,0.3,0.6,0.7,0.5C3.2,19.1,3.4,18.8,3.4,18.4"/>
		<path class="st0" d="M15.9,32.4c8.8,0,16-7.2,16-15.9c0-8.8-7.2-16-16-16s-16,7.2-16,16C0,25.3,7.2,32.4,15.9,32.4 M6.6,27.3
			c0,0,0-0.2,0-0.3l0.3-0.9c0-0.1,0-0.2-0.2-0.2l-0.9,0.4c-0.1,0.1-0.3,0.1-0.3,0c0,0,0-0.2,0-0.3l0.6-1.6c0-0.1,0.2-0.2,0.3-0.1
			l0,0c0.1,0.1,0.2,0.3,0.1,0.4l-0.2,0.7c0,0.1,0,0.2,0.2,0.1L7,25.3c0.1-0.1,0.3,0,0.4,0c0.1,0.1,0.1,0.3,0.1,0.4l-0.2,0.7
			c0,0.1,0,0.2,0.2,0.1l0.6-0.3c0.1-0.1,0.3,0,0.4,0.1l0,0c0.1,0.1,0.1,0.2,0,0.3l-1.6,0.7C6.8,27.3,6.6,27.4,6.6,27.3 M11.7,25.4
			c0.5,0.3,1.2,0.2,1.5-0.3c0.8-1.4,2-2.4,2.4-2.4c0.4,0.1,0.8,0.6,1.1,1c0.4,0.6,1.4,1.9,2.8,1c0.4-0.2,0.6-0.6,0.9-1
			s0.8-1.1,1.1-1.1c0.1,0,0.8,0.3,1.8,1.8c-1.9,1.8-4.5,2.9-7.3,2.9c-3.5,0-6.5-1.7-8.5-4.2c0.3-1,1-2.3,1.7-2.9
			c0.9,0.2,2.4,1.6,3,2.7c-0.4,0.5-0.6,0.9-0.8,1.1C11,24.4,11.2,25.1,11.7,25.4 M8.6,15.6c0,1.1,0.1,1.6-0.6,2.8
			c-0.4,0.6-1,1.9-1.5,3.1c-0.8-1.5-1.2-3.2-1.2-5c0-0.7,0.1-1.4,0.2-2.1C6.2,14.3,7.1,14,7.6,14C8.5,14.1,8.6,14.5,8.6,15.6
			 M10.3,28.5C10,29,9.4,29.2,8.8,28.8c-0.7-0.4-0.8-1-0.5-1.5c0.2-0.4,0.9-0.7,1.5-0.3C10.5,27.4,10.5,28.1,10.3,28.5 M13,28.6
			L12.5,30c0,0.1-0.2,0.2-0.3,0.2s-0.3-0.2-0.3-0.3l-0.5-1.1c-0.1-0.1-0.1-0.1-0.2,0L11,29.5c0,0.1-0.2,0.2-0.3,0.2
			s-0.2-0.2-0.2-0.3L11,28c0-0.1,0.2-0.2,0.3-0.2s0.3,0.2,0.3,0.3l0.4,1c0.1,0.1,0.1,0.1,0.2,0l0.2-0.7c0-0.1,0.2-0.2,0.3-0.2
			C13,28.4,13.1,28.5,13,28.6 M17.5,30c0,0,0,0.1,0,0.2s-0.1,0.2-0.1,0.3c-0.1,0.1-0.2,0.1-0.3,0.2c-0.1,0-0.3,0.1-0.4,0.1l0,0
			c-0.2,0-0.4,0-0.5-0.1c-0.1,0-0.2-0.1-0.3-0.2c-0.1-0.1-0.1-0.2-0.1-0.2c0-0.1-0.1-0.3-0.1-0.5V29l0,0c0-0.2,0.1-0.4,0.3-0.4l0,0
			l0,0l0,0l0,0c0.2,0,0.3,0.2,0.3,0.4v0.4c0,0.2,0,0.5,0,0.6v0.1c0,0.1,0.1,0.1,0.1,0.2c0.1,0,0.2,0.1,0.3,0.1l0,0
			c0.1,0,0.2,0,0.3-0.1c0.1,0,0.1-0.1,0.1-0.2s0-0.2,0-0.3l0,0V29l0,0c0-0.2,0.1-0.4,0.3-0.4l0,0l0,0l0,0l0,0l0,0l0,0l0,0l0,0
			c0.2,0,0.3,0.2,0.3,0.4v0.4v0.1C17.5,29.6,17.5,29.9,17.5,30 M20.2,30c-0.1,0-0.3,0-0.4-0.1l-1-0.7c-0.1-0.1-0.2,0-0.2,0.1
			l0.2,0.8c0,0.1,0,0.3-0.2,0.3c-0.1,0-0.3-0.1-0.3-0.2L18,28.7c0-0.1,0-0.3,0.2-0.3c0.1,0,0.3,0,0.4,0.1l0.9,0.6
			c0.1,0.1,0.2,0,0.2-0.1l-0.2-0.7c0-0.1,0-0.3,0.2-0.3c0.1,0,0.3,0.1,0.3,0.2l0.4,1.5C20.4,29.8,20.3,30,20.2,30 M21.6,29.6
			L21.6,29.6L21.6,29.6L21.6,29.6c-0.1,0.1-0.3,0-0.4-0.2l-0.6-1.3l0,0c-0.1-0.2-0.1-0.4,0.1-0.4l0,0l0,0l0,0
			c0.1-0.1,0.3,0.1,0.4,0.2l0.6,1.3l0,0C21.7,29.3,21.7,29.5,21.6,29.6 M23.4,28.6L23.4,28.6L23.4,28.6c-0.2,0.1-0.4,0.1-0.5,0
			l-1.2-0.9l-0.1-0.1c-0.1-0.1,0-0.2,0.1-0.3l0,0l0,0l0,0l0,0c0.1-0.1,0.3,0,0.5,0.1L23,28c0.1,0.1,0.1,0.1,0.1,0v-0.1L22.9,27
			c0-0.2,0-0.4,0.2-0.5l0,0l0,0l0,0c0.1-0.1,0.2,0,0.2,0.1v0.1l0.2,1.5C23.5,28.4,23.5,28.6,23.4,28.6L23.4,28.6z M25.8,26.8
			L25,27.4c-0.1,0.1-0.3,0.1-0.4,0l-1-1.1c-0.1-0.1-0.1-0.3,0-0.4l0.7-0.6c0.1-0.1,0.3-0.1,0.3,0c0.1,0.1,0,0.2-0.1,0.3l-0.3,0.3
			c-0.1,0.1-0.1,0.2-0.1,0.3c0.1,0.1,0.2,0.1,0.3,0l0.3-0.3c0.1-0.1,0.3-0.1,0.3,0c0.1,0.1,0,0.2-0.1,0.3l-0.3,0.3
			c-0.1,0.1-0.1,0.3,0,0.4s0.3,0.1,0.4,0l0.3-0.3c0.1-0.1,0.3-0.1,0.3,0C25.9,26.5,25.9,26.7,25.8,26.8 M27.7,24.5L27.7,24.5
			c-0.1,0.1-0.3,0.2-0.5,0.2s-0.4,0-0.6,0h-0.1c-0.1,0-0.1,0-0.1,0.1c0,0-0.1,0.1-0.1,0.2l0,0c0,0,0,0,0,0.1c0,0,0.1,0.1,0.2,0.2
			l0,0l0.2,0.1l0,0c0.1,0.1,0.2,0.3,0.1,0.4l0,0c-0.1,0.1-0.3,0.1-0.4,0L25.3,25l0,0c-0.2-0.1-0.2-0.3-0.1-0.5l0.2-0.2
			c0,0,0,0,0-0.1c0.1-0.1,0.3-0.3,0.4-0.5c0,0,0.1-0.1,0.2-0.1c0.1-0.1,0.2-0.1,0.3-0.1c0.1,0,0.2,0,0.3,0.1l0,0
			c0.1,0.1,0.2,0.2,0.2,0.4c0,0.1,0,0.3-0.1,0.4c0.1,0,0.2-0.1,0.2-0.1c0.1,0,0.2,0,0.4,0h0.2c0.1,0,0.1,0,0.2,0
			C27.8,24.4,27.8,24.5,27.7,24.5 M28.8,22.6c0,0.1-0.1,0.3-0.1,0.4l0,0l0,0c0,0,0,0,0,0.1c-0.1,0.3-0.3,0.4-0.5,0.5s-0.4,0.1-0.6,0
			l0,0l0.1-0.1l0,0l0,0l0,0c0.1-0.2,0.2-0.3,0.4-0.2h0.1c0.1,0,0.2-0.1,0.2-0.2l0,0c0.1-0.1,0.1-0.2,0.1-0.3c0-0.1,0-0.1-0.1-0.2
			l0,0h-0.1c0,0-0.1,0-0.1,0.1c0,0-0.1,0.1-0.3,0.3c-0.2,0.2-0.3,0.3-0.4,0.4c-0.2,0.1-0.3,0.1-0.5,0l0,0c-0.1-0.1-0.2-0.1-0.2-0.2
			s-0.1-0.2,0-0.4c0-0.1,0.1-0.3,0.1-0.4l0,0l0,0l0,0c0.1-0.3,0.3-0.4,0.5-0.5s0.3-0.1,0.5,0l0,0l0,0L27.8,22l0,0
			c-0.1,0.2-0.2,0.3-0.3,0.3c0,0,0,0-0.1,0s-0.1,0.1-0.2,0.2l0,0c-0.2-0.2-0.2-0.1-0.2,0s0,0.1,0.1,0.1l0,0h0.1
			c0.1,0,0.2-0.1,0.3-0.3c0.2-0.2,0.3-0.3,0.4-0.4s0.2-0.1,0.3-0.1c0.1,0,0.2,0,0.3,0.1l0,0c0.1,0.1,0.2,0.1,0.2,0.3
			C28.9,22.3,28.9,22.4,28.8,22.6 M29.5,21.1L29.5,21.1L29.5,21.1L29.5,21.1L29.5,21.1c-0.1,0.2-0.2,0.2-0.4,0.2l-1.3-0.4l0,0
			c-0.2-0.1-0.3-0.2-0.3-0.4l0,0l0,0l0,0l0,0l0,0c0.1-0.1,0.2-0.2,0.4-0.1l1.3,0.4l0,0C29.4,20.8,29.6,20.9,29.5,21.1 M30,19.2
			c0,0.1-0.2,0.2-0.3,0.2l-1.1-0.2c-0.1,0-0.3,0.1-0.3,0.2v0.2c0,0.1-0.1,0.2-0.2,0.2s-0.2-0.2-0.1-0.3l0.3-1.4
			c0-0.1,0.1-0.2,0.2-0.2s0.2,0.2,0.1,0.3v0.2c0,0.1,0.1,0.3,0.2,0.3l1.1,0.2C29.9,18.9,30,19,30,19.2 M28.9,11.6
			c0.2,0,0.4,0.2,0.4,0.4s-0.2,0.4-0.4,0.4c-0.2,0-0.4-0.2-0.4-0.4C28.5,11.7,28.7,11.6,28.9,11.6 M28.3,15.2c0.1,0,0.1,0,0.2,0.1
			l0.7,0.4c0.1,0.1,0.4,0.2,0.6,0.2l0,0H30l0,0c0.2,0,0.4,0.1,0.4,0.2l0,0l0,0l0,0c0,0.2-0.2,0.3-0.4,0.3h-0.2
			c-0.2,0-0.4,0.1-0.6,0.2l-0.6,0.5c-0.1,0-0.1,0.1-0.2,0.1s-0.2-0.1-0.2-0.2l0,0c0-0.2,0.1-0.4,0.3-0.5l0.3-0.2
			c0.1,0,0.1-0.1,0.1-0.2c0,0,0-0.1-0.1-0.1l-0.3-0.2c-0.2-0.1-0.3-0.3-0.3-0.4l0,0C28.2,15.3,28.2,15.2,28.3,15.2 M26.4,6.5
			l0.1-0.1c0,0,0.1-0.1,0.2,0l0.1,0.1L28,8.2c0,0.1,0.1,0.1,0.1,0.2L28,8.6l-1.1,0.8l-0.2,0.1l-0.1-0.1l-0.1-0.2l0.1-0.1l0.9-0.6
			l0.1-0.1c0,0,0.1,0,0,0l-1.1-1.5C26.4,6.7,26.4,6.6,26.4,6.5 M24.5,7.7c0,0,0.1-0.1,0.2,0l0.1,0.1L25,8c0,0,0,0,0-0.1l0.5-0.4
			l0.2-0.1l0.1,0.1l0.1,0.2l-0.1,0.1l-0.5,0.3l-0.1,0.1c0,0,0,0.1,0.1,0.1l0.1,0.1c0,0.1,0.1,0.1,0.1,0.1s0.1,0,0.2-0.1l0.5-0.3
			c0,0,0.1-0.1,0.2-0.1l0.2,0.1l0.1,0.1l-0.1,0.2l-0.5,0.4c0,0-0.1,0-0.1,0.1l0.4,0.6c0,0.1,0.1,0.1,0.1,0.2c0,0-0.1,0.1-0.1,0.2
			c0,0-0.1,0.1-0.2,0l-0.1-0.1l-0.7-0.9L25,8.4L24.5,8c0-0.1-0.1-0.1-0.1-0.2L24.5,7.7 M23.3,4.1c0-0.1,0.1-0.2,0.2-0.2
			c0,0,0.1,0,0.2,0c0,0,0.2,0.1,0.2,0.2c0,0,0,0.1-0.1,0.2c0,0.1-0.1,0.2,0,0.2l0.1,0.1L24,4.7v0.2c0,0-0.1,0.1-0.2,0.1
			c0,0-0.1,0-0.2,0c0,0-0.1,0-0.2,0l-0.1,0.1v0.1c0,0.1-0.1,0.2-0.2,0.2s-0.1,0-0.2,0c0,0-0.2-0.1-0.2-0.2c0,0,0-0.1,0.1-0.2
			L23.3,4.1z M20.9,3.5c0-0.1,0.1-0.1,0.1-0.2c0.1,0,0.1,0,0.1,0l0,0l0,0l0,0C21,3.2,21,3.2,21,3.2c0-0.1,0-0.1,0-0.2
			c0,0,0.1-0.1,0.2-0.1s0.1,0,0.2,0.1l0.2,0.1c0.1,0,0.2,0.1,0.2,0.1l0,0l0.1-0.1c0,0,0.1,0,0.2,0.1c0.1,0,0.2,0.1,0.2,0.2v0.1v0.1
			l0.1,0.1l0.2,0.1c0.1,0,0.2,0.1,0.2,0.2v0.1c0,0-0.1,0.1-0.2,0.1h-0.1c0,0,0,0,0,0.1l0,0c0,0.1,0,0.1-0.1,0.2
			c-0.1,0.2-0.3,0.3-0.5,0.4c-0.2,0-0.4,0-0.6-0.1s-0.4-0.3-0.5-0.5C20.8,3.9,20.8,3.7,20.9,3.5 M20.5,4.5c0,0,0.1-0.1,0.2-0.1
			s0.1,0,0.2,0.1l2,1c0.1,0,0.1,0.1,0.2,0.1v0.2l-0.3,0.6c0,0.1-0.1,0.2-0.2,0.2c0,0-0.1,0-0.2,0c0,0-0.2-0.1-0.2-0.2
			c0,0,0-0.1,0.1-0.2l0.2-0.3c0-0.1,0.1-0.2,0-0.2l-0.1-0.1l-1.6-0.8c-0.1,0-0.2-0.1-0.2-0.2C20.5,4.6,20.5,4.5,20.5,4.5 M21.7,7.4
			c-0.1,0.1-0.2,0.1-0.3,0.2c-1.3,0.8-1.3,0.2-1.5-1.1C20.4,6.7,21.1,7.1,21.7,7.4 M20.4,9.2L20.4,9.2c0.4,0.4,0.7,0.7,0.7,1.2
			s-0.2,1-0.6,1.4c-0.3,0.3-0.8,0.5-1.3,0.5s-1-0.2-1.3-0.6c-0.4-0.4-0.4-0.9-0.4-1.3c0-0.4,0-0.9,0.5-1.3c0.3-0.3,0.6-0.4,1.1-0.4
			C19.6,8.7,20.1,8.8,20.4,9.2 M18.4,7.1c-0.2,1.3-1.1,0.8-1.1,0.8c-0.9-0.3-3.2-1-1.4,0.5s0.4,2.1-0.7,2.4c-1.1,0.3-1.5,1,0.4,1
			s1.4,0.9,1.1,2.3c-0.3,1.4,0.5,1.5,1.3,0.1c0.7-1.4,1.6-1.8,2.8-0.2c1.2,1.6,1.2,0.7,0.9-0.6c-0.4-1.3-0.2-1.8,1.2-1.4
			c1.4,0.4,2.3,0,0-1.3c-1.8-1-0.9-2-0.2-2.7c2.5,2,4.1,5,4.1,8.4c0,0.8-0.1,1.5-0.2,2.2c-1.1-1.9-2.1-2.7-3.2-2.8
			c-1.2-0.1-1.9,1-2.3,1.6c0,0,0,0,0,0.1L21,17.4c-0.6-0.4-1.1-1.1-2-1.4c-1.7-0.5-3.4,1.9-3.8,2.6c-0.3,0.4-0.1,0.9,0.3,1.2
			c0.4,0.3,0.9,0.1,1.2-0.3c0.7-1.1,1.6-1.9,1.9-1.9c0.3,0.1,0.6,0.5,0.9,0.8c0.3,0.4,1.1,1.5,2.2,0.8c0.3-0.2,0.5-0.5,0.7-0.8
			s0.6-0.9,0.9-0.9c0.1,0,0.7,0.1,1.8,2c0.2,0.4,0.7,0.5,1.1,0.3c-0.3,0.9-0.8,1.8-1.3,2.6c-1.1-1.4-2.2-2.2-3.2-2.3
			c-1.5-0.1-2.4,1.2-3,2c0,0,0,0.1-0.1,0.1l-0.1-0.1c-0.5-0.6-1.1-1.5-2.2-1.8s-2.1,0.3-3,1c-0.4-1.3-1.1-2.5-1.5-3.2
			c-0.7-1.2-0.6-1.7-0.6-2.8s0-1.5,0.9-1.6s3.2,1.1,3.5-0.2c0.3-1.1-3.9-1.1-5-1c0.3-0.2,0.5-0.6,0.5-0.9c0-0.6-0.6-1.2-1.3-1.2
			s-1.3,0.5-1.3,1.2c0,0.4,0.2,0.7,0.5,0.9c-0.6,0-2,0-3.2,0.1c1.5-4.2,5.4-7.1,10.1-7.1c0.9,0,1.8,0.1,2.6,0.3
			C18.5,6.4,18.4,6.8,18.4,7.1 M14.5,2.3c0-0.1,0-0.2,0.1-0.2c0,0,0.1,0,0.2,0h0.9c0.1,0,0.2,0,0.3,0.1v0.1c0,0,0,0.2-0.1,0.2
			c0,0-0.1,0-0.2,0h-0.5c-0.1,0-0.2,0-0.2,0s0,0.1,0,0.2v1.1C15,3.9,15,4,15,4s0.1,0,0.2,0H16c0.1,0,0.2,0,0.2,0s0-0.1,0-0.2V2.3
			c0-0.1,0-0.2,0.1-0.2c0,0,0.1,0,0.2,0c0,0,0.2,0,0.2,0.1c0,0,0,0.1,0,0.2v0.5c0,0.1,0,0.2,0,0.2h0.1h0.1c0,0,0-0.1,0-0.2V2.3
			c0-0.1,0-0.2,0.1-0.2c0,0,0.1,0,0.2,0c0,0,0.1,0,0.2,0l0.1,0.2v2.4c0,0.1,0,0.2-0.1,0.2c0,0-0.1,0-0.2,0c0,0-0.2,0-0.2-0.1
			c0,0,0-0.1,0-0.2v-1c0-0.1,0-0.2,0-0.2h-0.1h-0.1c0,0,0,0.1,0,0.2v1.1c0,0.1,0,0.2-0.1,0.2c0,0-0.1,0-0.2,0c0,0-0.2,0-0.2-0.1
			c0,0,0-0.1,0-0.2V4.5c0-0.1,0-0.2,0-0.2s-0.1,0-0.2,0H15c-0.1,0-0.2,0-0.3,0c0,0,0,0-0.1,0s-0.1-0.1-0.1-0.1c0-0.1,0-0.1,0-0.1
			c0-0.1,0-0.2,0-0.2S14.5,2.3,14.5,2.3z M11.8,5.3v0.2c0,0-0.1,0.1-0.2,0.1l-1.9,1c-0.1,0-0.2,0.1-0.2,0.1s0,0-0.1,0
			S9.3,6.6,9.3,6.6c0-0.1-0.1-0.1-0.1-0.1c0-0.1-0.1-0.1-0.1-0.2L9,5.9c0-0.1-0.1-0.2,0-0.2l0.1-0.1c0,0,0.2-0.1,0.2,0
			c0,0,0.1,0.1,0.1,0.2L9.5,6c0,0.1,0.1,0.1,0.1,0.1s0.1,0,0.2-0.1l1.6-0.8c0.1,0,0.2-0.1,0.2-0.1C11.7,5.1,11.8,5.2,11.8,5.3
			 M10.2,3.1L10.3,3c0,0,0.2-0.1,0.2,0c0,0,0.1,0.1,0.1,0.2l0.1,0.1l0.2,0.4l0.5,1c0,0.1,0.1,0.2,0,0.3l-0.1,0.1c0,0-0.2,0.1-0.2,0
			L11,5c0,0,0,0-0.1,0c0,0-0.1,0-0.2,0.1l-0.2,0.1c-0.1,0-0.2,0.1-0.3,0l-0.1-0.1V5c0,0,0.1-0.2,0.2-0.2l0.2-0.1
			c0.1,0,0.2-0.1,0.2-0.1s0-0.1-0.1-0.1l-0.5-1.1C10.2,3.3,10.1,3.1,10.2,3.1 M8.2,4.1c0.1-0.2,0.3-0.4,0.5-0.5s0.4-0.1,0.6-0.1
			c0.2,0,0.4,0.2,0.5,0.4C9.9,4,10,4.1,10,4.2s0,0.2,0,0.2l0,0l0,0c0,0,0.1,0,0.1-0.1c0.1,0,0.2-0.1,0.3,0l0.1,0.1v0.2
			c0,0-0.1,0.1-0.2,0.1L10,4.8c-0.1,0-0.2,0.1-0.2,0.1S9.8,5,9.9,5L10,5.2c0,0.1,0.1,0.2,0,0.2L9.9,5.5c0,0-0.2,0.1-0.2,0
			c0,0-0.1-0.1-0.1-0.2l-0.1,0c0-0.1-0.1-0.1-0.1-0.1s-0.1,0-0.2,0.1L8.8,5.4c-0.1,0-0.2,0.1-0.3,0L8.4,5.3V5.1L8.5,5V4.9
			c0,0,0,0-0.1,0c0,0-0.1-0.1-0.2-0.2C8.1,4.5,8.1,4.3,8.2,4.1 M3.8,8.5l1.4-1.9c0-0.1,0.2-0.2,0.2-0.2s0.1,0,0.1,0.1
			c0,0,0.1,0.1,0.1,0.2c0,0-0.1,0.1-0.1,0.2L4.4,8.4c0,0.1-0.1,0.2-0.1,0.2l0,0h0.1l0.1-0.1l1.1-1.6c0-0.1,0.2-0.2,0.2-0.2h0.1
			c0,0,0.1,0.1,0.1,0.2C6.1,7,6.1,7.1,6,7.2L5.6,7.8c0,0.1-0.1,0.1,0,0.1l0,0h0.1l0.1-0.1l0.5-0.7C6.3,7,6.4,7,6.4,7h0.2
			c0,0,0.1,0.1,0.1,0.2c0,0-0.1,0.1-0.1,0.2L6.4,7.7c0,0.1,0,0.1,0,0.1h0.1l0,0c0.1,0,0.2,0.1,0.3,0.1C7,8,7.1,8.2,7.1,8.5v0.1
			c0,0.3-0.1,0.5-0.2,0.8c0,0.2-0.2,0.4-0.5,0.5c-0.3,0.1-0.5,0-0.8-0.1c0-0.1-0.1-0.2-0.2-0.3c0-0.1-0.1-0.2-0.1-0.2l0,0l0,0
			c0,0,0,0.1-0.1,0.1L5.1,9.6c0,0.1-0.2,0.2-0.2,0.2H4.8c0,0-0.1-0.1-0.1-0.2c0,0,0.1-0.1,0.1-0.2l0.5-0.7c0-0.1,0.1-0.2,0.1-0.2
			s0,0,0-0.1H5.3L5.2,8.5L4.7,9c0,0.1-0.1,0.1-0.2,0.2c0,0,0,0-0.1,0s-0.1,0-0.1,0c-0.1,0-0.1-0.1-0.1-0.1c0,0-0.1,0-0.2-0.1
			L3.9,8.9c-0.1,0-0.2-0.2-0.1-0.2C3.7,8.6,3.8,8.6,3.8,8.5 M3,11.6c0.2,0,0.4,0.2,0.4,0.4S3.2,12.4,3,12.4S2.6,12.2,2.6,12
			C2.6,11.7,2.8,11.6,3,11.6 M1.6,16c0-0.1,0.1-0.3,0.3-0.2H3c0.1,0,0.3-0.1,0.3-0.3v-0.2c0-0.1,0.1-0.3,0.2-0.3
			c0.1,0,0.2,0.1,0.2,0.3v1.5c0,0.1-0.1,0.3-0.2,0.3c-0.1,0-0.2-0.1-0.2-0.3v-0.2c0-0.1-0.1-0.3-0.3-0.3H1.9
			C1.7,16.3,1.6,16.2,1.6,16 M1.7,18.7C1.6,18,2,17.5,2.6,17.4c0.5-0.1,1.1,0.2,1.2,1c0.1,0.8-0.4,1.2-0.9,1.3S1.8,19.4,1.7,18.7
			 M2.8,22.3c0-0.1,0-0.3,0-0.4l0.6-1.1c0.1-0.1,0-0.2-0.1-0.1L2.6,21c-0.1,0.1-0.3,0-0.3-0.1c-0.1-0.1,0-0.3,0.2-0.3l1.4-0.5
			c0.1-0.1,0.3,0,0.3,0.1s0,0.3,0,0.5l-0.5,1c-0.1,0.1,0,0.2,0.1,0.1l0.7-0.3c0.1-0.1,0.3,0,0.3,0.1c0.1,0.1,0,0.3-0.2,0.3l-1.4,0.5
			C3,22.4,2.9,22.4,2.8,22.3 M4.3,24.8c0,0-0.3-0.2-0.5-0.4c-0.4-0.6-0.3-1.3,0.2-1.6c0.5-0.3,1.2-0.2,1.6,0.5
			c0.2,0.3,0.2,0.5,0.2,0.5c0,0.1,0,0.3-0.2,0.4l-0.2,0.1c0-0.3-0.1-0.5-0.3-0.7C5,23,4.6,23,4.3,23.2C4,23.4,4,23.7,4.2,24.1
			c0.1,0.1,0.1,0.2,0.2,0.2c0.1-0.1,0.2-0.2,0.1-0.3c0-0.1,0-0.2,0.1-0.2c0.1-0.1,0.2,0,0.3,0.1l0.2,0.2c0.1,0.1,0,0.3-0.1,0.4
			l-0.3,0.2C4.6,24.8,4.4,24.8,4.3,24.8"/>
		<path class="st0" d="M8.9,4.7c0.1,0,0.2,0,0.3,0c0.1-0.1,0.2-0.1,0.2-0.2s0-0.2,0-0.3C9.4,4,9.3,4,9.2,3.9c-0.1,0-0.2,0-0.3,0
			C8.8,4,8.7,4.1,8.7,4.1c0,0.1-0.1,0.2-0.1,0.2s0,0.1,0,0.2C8.7,4.6,8.8,4.6,8.9,4.7"/>
		<path class="st0" d="M20.6,10.4c0-0.3-0.2-0.5-0.5-0.7L20,9.5c-0.2-0.2-0.6-0.3-1-0.3s-0.5,0-0.7,0.3C18.1,9.7,18,9.9,18,10.4
			c0,0.4,0,0.7,0.3,0.9c0.2,0.2,0.5,0.4,0.9,0.4s0.7-0.1,0.9-0.3"/>
		<path class="st0" d="M26.3,24L26.3,24c-0.1,0-0.1-0.1-0.2,0c-0.1,0-0.1,0-0.2,0.1c0,0-0.1,0.1-0.1,0.2c0,0,0,0.1-0.1,0.1l0,0
			c-0.1,0.1-0.1,0.3,0,0.4l0,0l0,0l0,0c0.1,0.1,0.2,0.1,0.3,0l0,0l0,0c0.1-0.1,0.2-0.3,0.3-0.4c0,0,0,0,0-0.1s0-0.1,0-0.1
			C26.4,24.1,26.4,24,26.3,24"/>
		<path class="st0" d="M6,9.3c0.1,0.1,0.2,0.1,0.4,0.1c0.1,0,0.3-0.1,0.4-0.2c0-0.2,0-0.3,0-0.5S6.7,8.4,6.6,8.3c-0.1,0-0.2,0-0.4,0
			C6.1,8.3,6,8.4,5.9,8.5C5.8,8.7,5.8,8.8,5.8,9C5.8,9.1,5.8,9.2,6,9.3"/>
		<path class="st0" d="M21.6,4.2c0.1,0,0.2,0.1,0.3,0c0.1,0,0.2-0.1,0.2-0.1c0-0.1,0-0.2,0-0.3S22,3.6,21.9,3.6s-0.2-0.1-0.3,0
			c-0.1,0-0.2,0.1-0.2,0.1c0,0.1,0,0.2,0,0.2C21.4,4.1,21.5,4.2,21.6,4.2"/>
	</g>
</g>
</svg>
