<?xml version="1.0" encoding="utf-8"?>
<!-- Generator: Adobe Illustrator 25.2.1, SVG Export Plug-In . SVG Version: 6.00 Build 0)  -->
<svg version="1.1" id="레이어_2_1_" xmlns="http://www.w3.org/2000/svg" xmlns:xlink="http://www.w3.org/1999/xlink" x="0px"
	 y="0px" viewBox="0 0 257.8 65.4" style="enable-background:new 0 0 257.8 65.4;" xml:space="preserve">
<style type="text/css">
	.st0{fill:#A5A5A5;}
</style>
<path class="st0" d="M19.7,55.2c-0.6-0.3-1.4-0.1-1.7,0.5c-0.3,0.6-0.1,1.4,0.5,1.7c0.6,0.3,1.4,0.1,1.7-0.5
	c0.4-0.6,0.2-1.3-0.4-1.7C19.8,55.2,19.7,55.2,19.7,55.2"/>
<path class="st0" d="M6.9,36.8c0-0.7-0.6-1.2-1.3-1.1c-0.1,0-0.1,0-0.2,0c-0.7,0.1-1.3,0.7-1.2,1.5s0.7,1.3,1.5,1.2S7,37.5,6.9,36.8
	C6.9,36.8,6.9,36.8,6.9,36.8"/>
<path class="st0" d="M32.7,65.5c18.1,0,32.7-14.7,32.7-32.7C65.5,14.6,50.8,0,32.7,0S0,14.6,0,32.7c0,0,0,0,0,0
	C0,50.8,14.7,65.4,32.7,65.5 M13.5,55c-0.1-0.2-0.1-0.5,0-0.7l0.6-1.9c0.1-0.3-0.1-0.4-0.3-0.3L12,52.9c-0.2,0.1-0.4,0.1-0.7,0
	c-0.1-0.1-0.1-0.4,0-0.7l1.2-3.3c0-0.2,0.2-0.3,0.4-0.3c0.1,0,0.1,0.1,0.2,0.1l0,0c0.2,0.2,0.3,0.6,0.2,0.9L12.8,51
	c-0.1,0.3,0,0.4,0.3,0.3l1.4-0.6c0.3-0.1,0.6-0.1,0.8,0.1c0.2,0.2,0.2,0.5,0.1,0.8L15,53c-0.1,0.3,0.1,0.4,0.3,0.3l1.3-0.6
	c0.3-0.1,0.6-0.1,0.9,0.1l0,0c0.2,0.1,0.2,0.3,0.1,0.5c0,0.1-0.1,0.1-0.2,0.1l-3.2,1.4C13.9,55,13.6,55.1,13.5,55 M24,51
	c1.1,0.6,2.4,0.3,3.1-0.7c1.7-2.8,4.1-5,4.9-5c0.9,0.5,1.7,1.2,2.2,2.1c0.9,1.1,3,3.8,5.7,2c0.7-0.6,1.4-1.3,1.8-2.1
	c0.6-0.9,1.6-2.3,2.3-2.2c0.2,0,1.6,0.7,3.7,3.6c-8.8,8.3-22.7,7.8-30.9-1c-0.5-0.5-1-1.1-1.4-1.7c0.6-2,2-4.8,3.5-5.9
	c1.9,0.3,5,3.2,6.1,5.5c-0.7,0.9-1.3,1.8-1.6,2.3C22.7,49,23,50.4,24,51 M17.6,30.9c-0.1,2.3,0.2,3.3-1.3,5.6c-1.2,2-2.2,4.1-3,6.3
	c-2.3-4.4-3.1-9.5-2.1-14.4c1.6-0.2,3.4-0.9,4.4-0.8C17.5,27.9,17.6,28.7,17.6,30.9 M21.1,57.5c-0.5,1.2-2,1.8-3.2,1.3
	c-1.2-0.5-1.8-2-1.3-3.2c0.5-1.2,2-1.8,3.2-1.3c0.1,0,0.2,0.1,0.3,0.1C21.2,55,21.7,56.3,21.1,57.5C21.1,57.4,21.1,57.5,21.1,57.5
	 M26.7,57.8l-0.9,3c-0.1,0.3-0.3,0.4-0.6,0.4c-0.3-0.1-0.5-0.3-0.6-0.6l-1-2.3c-0.1-0.3-0.3-0.3-0.4,0l-0.5,1.5
	c-0.1,0.3-0.4,0.4-0.7,0.4c-0.3-0.1-0.4-0.4-0.3-0.7l0.9-3c0.1-0.3,0.3-0.4,0.6-0.4c0,0,0,0,0,0c0.3,0.1,0.5,0.3,0.7,0.6l0.9,2.1
	c0.1,0.3,0.3,0.3,0.4,0l0.4-1.4c0.1-0.3,0.3-0.5,0.6-0.4c0.3,0.1,0.5,0.3,0.4,0.6C26.7,57.6,26.7,57.7,26.7,57.8 M35.8,60.5
	c0,0.1,0,0.3,0,0.4c0,0.2-0.1,0.4-0.3,0.6c-0.2,0.2-0.4,0.3-0.6,0.4C34.6,62,34.3,62,34,62h-0.1c-0.3,0-0.7,0-1-0.1
	c-0.2-0.1-0.4-0.2-0.6-0.4c-0.1-0.1-0.2-0.3-0.3-0.5c-0.1-0.4-0.1-0.7-0.1-1.1v-1.6l0,0c0-0.4,0.2-0.7,0.5-0.8l0,0
	c0.3,0,0.6,0.4,0.6,0.8v0.9c0,0.4,0,0.9,0,1.2v0.1c0,0.1,0.1,0.3,0.3,0.4c0.2,0.1,0.4,0.1,0.6,0.1l0,0c0.2,0,0.4,0,0.6-0.1
	c0.1-0.1,0.2-0.2,0.2-0.3c0-0.2,0-0.4,0-0.6V60v-1.6l0,0c0-0.4,0.2-0.7,0.5-0.8l0,0c0.3,0,0.5,0.4,0.5,0.7v0.9v0.2
	C35.7,59.7,35.7,60.2,35.8,60.5 M41.4,60.5c-0.3,0-0.6,0-0.9-0.2l-2-1.4c-0.2-0.2-0.4-0.1-0.3,0.2l0.4,1.5c0.1,0.3-0.1,0.6-0.4,0.6
	c0,0,0,0,0,0c-0.3,0.1-0.6-0.1-0.6-0.4l-0.7-3c-0.1-0.3,0.1-0.6,0.3-0.6c0.3,0,0.6,0,0.9,0.2l1.9,1.3c0.2,0.2,0.4,0.1,0.3-0.2
	l-0.4-1.4c-0.1-0.3,0-0.6,0.2-0.7c0.3-0.1,0.6,0,0.7,0.2c0,0.1,0.1,0.2,0.1,0.2l0.7,3C41.7,60.2,41.6,60.4,41.4,60.5 M44.1,59.6
	L44.1,59.6L44.1,59.6L44.1,59.6c-0.3,0.1-0.6-0.1-0.8-0.5l-1.2-2.6l0,0c-0.2-0.3-0.1-0.7,0.2-0.9l0,0c0.3-0.1,0.6,0.1,0.8,0.5
	l1.2,2.6l0,0C44.5,59.1,44.4,59.5,44.1,59.6 M47.8,57.8L47.8,57.8l-0.1,0.1c-0.3,0.1-0.7,0.1-1-0.2l-2.3-1.9
	c-0.1-0.1-0.1-0.1-0.2-0.2c-0.1-0.2-0.1-0.4,0.1-0.5c0,0,0,0,0,0l0,0c0.3-0.1,0.7-0.1,1,0.2l1.5,1.2c0.1,0.1,0.2,0.1,0.3,0.1
	s0.1-0.1,0-0.3l-0.4-1.9c-0.1-0.4,0-0.8,0.3-1l0,0c0.2-0.1,0.4,0,0.5,0.1c0,0,0,0,0,0c0.1,0.1,0.1,0.2,0.1,0.3l0.5,3.1
	C48.2,57.1,48.1,57.5,47.8,57.8L47.8,57.8z M52.8,53.9l-1.5,1.3c-0.2,0.2-0.6,0.2-0.8,0c0,0,0,0,0,0l-2.1-2.3
	c-0.2-0.2-0.2-0.6,0-0.8c0,0,0,0,0,0l1.5-1.3c0.2-0.2,0.5-0.2,0.7-0.1s0.1,0.5-0.2,0.6L49.8,52c-0.2,0.1-0.3,0.4-0.2,0.6
	c0.1,0.2,0.4,0.3,0.6,0.2c0.1,0,0.1-0.1,0.2-0.2l0.6-0.5c0.2-0.2,0.5-0.2,0.7-0.1c0.1,0.2,0.1,0.5-0.2,0.6l-0.6,0.5
	c-0.2,0.2-0.3,0.5-0.1,0.7c0.2,0.2,0.5,0.2,0.7,0l0.7-0.6c0.1-0.2,0.4-0.3,0.6-0.2c0.2,0.1,0.3,0.4,0.2,0.6
	C52.9,53.8,52.9,53.8,52.8,53.9 M56.8,49.3L56.8,49.3c-0.2,0.3-0.6,0.4-0.9,0.5h-1.2h-0.1c-0.1,0-0.2,0.1-0.3,0.1
	c-0.1,0.1-0.2,0.2-0.3,0.3l0,0c0,0,0,0.1,0.1,0.2c0.1,0.1,0.2,0.2,0.3,0.3l0,0l0.3,0.2l0,0c0.3,0.2,0.4,0.5,0.3,0.8l0,0
	c-0.2,0.2-0.6,0.2-0.9,0l-2.3-1.7l0,0c-0.3-0.2-0.4-0.7-0.1-1l0.4-0.5l0.1-0.1c0.2-0.3,0.5-0.7,0.7-1c0.1-0.1,0.2-0.2,0.3-0.3
	c0.2-0.1,0.4-0.2,0.7-0.2c0.2,0,0.5,0.1,0.7,0.2l0,0c0.2,0.2,0.4,0.4,0.4,0.7c0,0.3,0,0.6-0.2,0.9c0.2-0.1,0.3-0.1,0.5-0.1
	c0.3,0,0.6,0,0.9,0h0.3c0.1,0,0.2,0,0.3,0.1C56.9,49,56.9,49.1,56.8,49.3C56.8,49.3,56.8,49.3,56.8,49.3 M59.1,45.2
	c-0.1,0.3-0.2,0.6-0.3,0.9l0,0l-0.1,0.1c-0.2,0.4-0.6,0.8-1,1c-0.4,0.2-0.8,0.2-1.2,0l0,0l0.1-0.3c0,0,0,0,0-0.1l0,0
	c0.1-0.3,0.4-0.5,0.8-0.5l0.2-0.1c0.2-0.1,0.4-0.3,0.5-0.5c0,0,0,0,0,0c0.1-0.2,0.2-0.4,0.1-0.6c0-0.2-0.1-0.3-0.2-0.4l0,0
	c-0.1,0-0.2,0-0.2,0c-0.1,0-0.2,0.1-0.3,0.2c-0.1,0.1-0.3,0.3-0.5,0.6c-0.2,0.3-0.5,0.6-0.9,0.7c-0.3,0.2-0.7,0.2-1,0l0,0
	c-0.2-0.1-0.3-0.3-0.4-0.5c-0.1-0.2-0.1-0.5-0.1-0.7c0-0.3,0.1-0.6,0.3-0.8l0,0v-0.1c0.2-0.4,0.6-0.8,1-1c0.3-0.2,0.7-0.2,1.1,0l0,0
	l0,0l-0.1,0.2l0,0c-0.2,0.3-0.5,0.6-0.7,0.5L55.8,44c-0.2,0.1-0.3,0.2-0.4,0.4c0,0,0,0,0,0c-0.1,0.2-0.1,0.4-0.1,0.6
	c0,0.1,0.1,0.2,0.1,0.2l0,0c0.1,0,0.2,0,0.2,0c0.2-0.2,0.5-0.4,0.6-0.6c0.2-0.3,0.5-0.5,0.8-0.8c0.2-0.1,0.4-0.2,0.6-0.2
	c0.2,0,0.5,0,0.7,0.1l0,0c0.2,0.1,0.4,0.3,0.5,0.5C59,44.6,59.1,44.9,59.1,45.2 M60.4,42.1L60.4,42.1c-0.2,0.3-0.6,0.4-0.9,0.3
	l-2.7-0.8l0,0c-0.4-0.1-0.6-0.4-0.6-0.7l0,0c0.2-0.3,0.5-0.4,0.9-0.3l2.7,0.8l0,0C60.2,41.5,60.5,41.8,60.4,42.1 M61.3,38.2
	c-0.1,0.3-0.3,0.5-0.6,0.4c0,0,0,0,0,0l-2.3-0.5c-0.3-0.1-0.6,0.1-0.6,0.4c0,0,0,0,0,0L57.7,39c-0.1,0.3-0.3,0.5-0.5,0.5
	s-0.3-0.3-0.3-0.6l0.6-2.9c0.1-0.3,0.3-0.5,0.5-0.5s0.3,0.3,0.3,0.6l-0.1,0.4c0,0.3,0.1,0.6,0.4,0.6l2.3,0.5
	C61.2,37.6,61.4,37.9,61.3,38.2C61.3,38.2,61.3,38.2,61.3,38.2 M59.3,22.7c0.5,0,0.9,0.4,0.9,0.9c0,0.5-0.4,0.9-0.9,0.9
	s-0.9-0.4-0.9-0.9c0,0,0,0,0,0C58.4,23.1,58.8,22.7,59.3,22.7L59.3,22.7 M58.1,30.2c0.1,0,0.3,0,0.4,0.1l1.4,0.9
	c0.4,0.2,0.8,0.3,1.2,0.3l0,0h0.4l0,0c0.4,0,0.8,0.2,0.8,0.5l0,0c0,0.3-0.3,0.5-0.7,0.6H61c-0.4,0-0.8,0.2-1.2,0.4l-1.3,1
	c-0.1,0.1-0.2,0.1-0.4,0.2c-0.2,0-0.3-0.1-0.3-0.4l0,0c0-0.4,0.2-0.8,0.6-1l0.5-0.4c0.1-0.1,0.2-0.2,0.2-0.3c0-0.1-0.1-0.2-0.2-0.3
	l-0.6-0.3c-0.3-0.2-0.6-0.5-0.6-0.9l0,0C57.7,30.4,57.8,30.3,58.1,30.2C58,30.2,58,30.2,58.1,30.2 M54.1,12.4c0-0.1,0.1-0.2,0.2-0.2
	c0,0,0.3-0.1,0.4-0.1c0.1,0.1,0.2,0.2,0.3,0.3l2.5,3.5c0.1,0.1,0.1,0.2,0.2,0.4c0,0.1-0.2,0.3-0.3,0.4l-2.3,1.7
	c-0.1,0.1-0.4,0.2-0.5,0.1c-0.1-0.1-0.2-0.1-0.2-0.2c-0.1-0.1-0.2-0.4-0.1-0.4c0.1-0.1,0.2-0.2,0.3-0.3l1.8-1.3
	c0.1-0.1,0.2-0.2,0.2-0.3s0.1,0.1,0,0l-2.2-3.1C54.3,12.7,54.1,12.4,54.1,12.4 M50.2,14.7c0.1,0,0.3-0.1,0.4-0.1
	c0.1,0.1,0.2,0.2,0.3,0.3l0.3,0.4l0.2-0.1l1.1-0.8c0.1-0.1,0.4-0.2,0.5-0.1c0.1,0.1,0.2,0.1,0.2,0.2c0.1,0.1,0.2,0.3,0.1,0.4
	c-0.1,0.1-0.2,0.2-0.3,0.3l-1,0.7c-0.1,0.1-0.2,0.2-0.2,0.3c0,0.1,0.1,0.2,0.2,0.3l0.1,0.2c0.1,0.1,0.1,0.2,0.2,0.2
	c0.1,0,0.2-0.1,0.3-0.1l1-0.7c0.1-0.1,0.2-0.1,0.4-0.2c0.1,0,0.3,0.2,0.4,0.2c0.1,0.1,0.1,0.2,0.1,0.3c0,0.1-0.2,0.3-0.3,0.4
	l-1.1,0.8l-0.2,0.1l0.9,1.3c0.1,0.1,0.1,0.2,0.2,0.4c0,0.1-0.1,0.3-0.2,0.3s-0.3,0.1-0.4,0.1c-0.1-0.1-0.2-0.2-0.3-0.3l-1.4-1.9
	L51,16.5l-0.8-1.1C50.1,15.3,50,15.2,50,15C50,15,50.1,14.8,50.2,14.7 M47.8,7.4C47.8,7.2,48,7,48.1,7c0.1,0,0.2,0,0.4,0.1
	c0.1,0,0.3,0.2,0.3,0.3c0,0.1-0.1,0.3-0.1,0.4c0,0.1-0.1,0.3-0.1,0.4c0.1,0.1,0.1,0.1,0.2,0.2c0.1,0.1,0.2,0.1,0.3,0.2
	c0.1,0.1,0,0.4,0,0.4s-0.2,0.3-0.3,0.2c-0.1,0-0.2,0-0.4-0.1c-0.1-0.1-0.2-0.1-0.3-0.1C48,9.1,48,9.2,47.9,9.3l-0.1,0.2
	c-0.1,0.1-0.3,0.4-0.4,0.4c-0.1,0-0.2,0-0.3-0.1c-0.1,0-0.3-0.2-0.3-0.3c0-0.1,0-0.3,0.1-0.4L47.8,7.4z M42.9,6.2
	C43,6.1,43,6,43.2,5.9c0.1-0.1,0.1-0.1,0.1-0.1l0,0l0,0l0,0c-0.2-0.1-0.2-0.2-0.2-0.2c0-0.1,0-0.2,0.1-0.3c0,0,0.2-0.2,0.3-0.2
	c0.1,0,0.3,0.1,0.4,0.1l0.4,0.2c0.1,0.1,0.4,0.1,0.4,0.1c0,0,0.1-0.1,0.1-0.1c0,0,0.2-0.2,0.3-0.2c0.1,0,0.3,0.1,0.4,0.1
	c0.1,0,0.4,0.3,0.4,0.4c0,0.1,0,0.1,0,0.2c0,0,0,0.1,0,0.2c0.1,0.1,0.2,0.1,0.3,0.2l0.4,0.2c0.1,0.1,0.4,0.3,0.4,0.4
	c0,0.1,0,0.2-0.1,0.3c0,0.1-0.2,0.2-0.3,0.2h-0.2c0,0,0,0.1,0,0.1v0.1c0,0.1,0,0.3-0.1,0.4c-0.2,0.4-0.6,0.7-1,0.7
	c-0.4,0.1-0.9,0-1.3-0.2c-0.4-0.2-0.7-0.5-0.9-1c-0.2-0.4-0.2-0.9,0-1.2 M42,8.3C42,8.2,42.2,8,42.3,8c0.1,0,0.3,0.1,0.4,0.1
	l4.1,2.1c0.1,0.1,0.2,0.2,0.4,0.3c0.1,0.1,0,0.4-0.1,0.5l-0.7,1.3c-0.1,0.1-0.3,0.4-0.4,0.4c-0.1,0-0.2,0-0.4-0.1
	c-0.1,0-0.3-0.2-0.3-0.3c0-0.1,0.1-0.3,0.1-0.4l0.3-0.7c0.1-0.1,0.1-0.3,0.1-0.4c-0.1-0.1-0.2-0.1-0.3-0.2l-3.3-1.8
	c-0.1-0.1-0.4-0.3-0.4-0.4C42,8.4,42,8.3,42,8.3 M44.4,14.2l-0.7,0.4c-2.6,1.7-2.6,0.4-3.2-2.4C41.9,12.8,43.2,13.4,44.4,14.2
	 M41.9,17.8l0.2,0.2c0.7,0.6,1.2,1.4,1.3,2.3c0,1.1-0.5,2.1-1.3,2.8c-0.7,0.7-1.7,1-2.7,1c-1,0-2-0.4-2.7-1.2
	c-0.6-0.7-0.9-1.7-0.8-2.6c-0.1-1,0.3-1.9,1-2.6c0.6-0.6,1.4-0.9,2.2-0.9C40.1,16.6,41.1,17,41.9,17.8 M37.7,13.5
	c-0.4,2.6-2.3,1.7-2.3,1.7c-1.8-0.6-6.6-2.1-2.9,1s0.8,4.4-1.4,5s-3,2.1,0.9,2s2.9,1.9,2.3,4.8s1.1,3.1,2.6,0.1s3.2-3.8,5.7-0.5
	s2.5,1.5,1.8-1.2s-0.4-3.6,2.4-2.8s4.7,0,0-2.6c-3.6-2-1.9-4.1-0.4-5.5c6.6,5.2,9.6,13.6,7.9,21.8c-2.3-3.8-4.4-5.6-6.5-5.7
	c-2.4-0.1-3.9,2-4.8,3.2L42.8,35c-0.1-0.1-0.1-0.1-0.2-0.2c-0.8-1.3-2.1-2.3-3.5-2.9c-3.5-1.1-6.9,3.9-7.8,5.4
	c-0.5,0.8-0.3,1.9,0.6,2.4s1.9,0.3,2.4-0.6l0,0c1.4-2.2,3.2-3.9,3.9-3.9c0.7,0.4,1.3,1,1.8,1.7c0.7,0.9,2.3,3,4.4,1.6
	c0.6-0.4,1.1-1,1.4-1.6c0.5-0.7,1.3-1.8,1.8-1.8c0.2,0,1.4,0.2,3.7,4.1c0.5,0.8,1.5,1.1,2.3,0.7c-0.7,1.9-1.6,3.7-2.7,5.4
	c-2.2-2.9-4.4-4.5-6.5-4.6c-3.1-0.1-5,2.5-6.1,4.1L38,44.9l-0.2-0.3c-1.1-1.7-2.7-2.9-4.5-3.6c-2.2-0.6-4.3,0.5-6.1,2.1
	c-0.8-2.3-1.8-4.5-3-6.5c-1.5-2.4-1.2-3.4-1.3-5.6s0.1-3,1.9-3.2s6.5,2.2,7.3-0.4c0.6-2.3-8-2.2-10.2-2.1c0.7-0.4,1.1-1.1,1.1-1.9
	c-0.2-1.5-1.5-2.6-3-2.4c-1.2,0.2-2.2,1.1-2.4,2.4c0,0.8,0.4,1.5,1.1,1.9c-2.2-0.1-4.4,0-6.6,0.2c3.8-10.7,15-16.7,26-14
	C38,12.1,37.9,12.8,37.7,13.5 M29.7,3.6c0-0.1,0.1-0.5,0.2-0.5c0.1,0,0.3-0.1,0.4-0.1h1.8c0.1,0,0.5,0.1,0.5,0.2
	c0,0.1,0.1,0.2,0.1,0.3c0,0.1-0.1,0.3-0.2,0.4c-0.1,0-0.3,0.1-0.4,0.1h-0.9c-0.1,0-0.4,0-0.4,0.1c0,0.1,0,0.2,0,0.3v2.2
	c0,0.1,0,0.4,0.1,0.4c0.1,0,0.2,0,0.4,0h1.6c0.1,0,0.3,0,0.4-0.1c0-0.1,0-0.2,0-0.3V3.6c0-0.1,0.1-0.5,0.2-0.5C33.6,3,33.7,3,33.8,3
	c0.1,0,0.4,0.1,0.4,0.2c0.1,0.1,0.1,0.3,0.1,0.4v0.9c0,0.1,0,0.4,0.1,0.4c0.1,0,0.1,0,0.2,0c0,0,0.2,0,0.2-0.1c0-0.1,0-0.2,0-0.3
	V3.5c0-0.1,0.1-0.5,0.2-0.5C35,3,35.2,3,35.3,3c0.1,0,0.2,0,0.3,0.1c0.1,0,0.2,0.4,0.2,0.5v5c0,0.1-0.1,0.5-0.2,0.5
	c-0.1,0-0.2,0.1-0.3,0.1c-0.1,0-0.4-0.1-0.4-0.2c0-0.1-0.1-0.3-0.1-0.4V6.1c0-0.1,0-0.2-0.1-0.4h-0.2c0,0-0.2,0-0.2,0.1
	c0,0.1,0,0.2,0,0.3v2.4c0,0.1-0.1,0.4-0.2,0.5c-0.1,0-0.2,0.1-0.3,0.1c-0.1,0-0.4-0.1-0.4-0.1c0-0.1-0.1-0.3-0.1-0.4V8.2
	c0-0.1,0-0.3-0.1-0.4c-0.1,0-0.2,0-0.4,0h-2.2c-0.2,0-0.3,0-0.5,0c-0.1,0-0.1,0-0.2-0.1c-0.1-0.1-0.1-0.2-0.1-0.2c0-0.1,0-0.2,0-0.2
	c0-0.1,0-0.4,0-0.5L29.7,3.6z M24.3,9.7c0,0.1,0,0.3,0,0.4c-0.1,0.1-0.2,0.2-0.4,0.3l-3.9,2l-0.5,0.2c-0.1,0-0.1,0-0.2,0
	c-0.1,0-0.2-0.1-0.2-0.1c0-0.1-0.1-0.1-0.1-0.2c-0.1-0.1-0.2-0.3-0.2-0.4l-0.3-0.7c-0.1-0.1-0.1-0.4-0.1-0.5
	c0.1-0.1,0.2-0.2,0.3-0.2c0.1,0,0.4-0.1,0.5-0.1c0.1,0.1,0.2,0.2,0.2,0.3l0.3,0.5c0.1,0.1,0.2,0.3,0.2,0.3c0.1,0,0.2-0.1,0.3-0.1
	l3.4-1.7c0.1-0.1,0.3-0.1,0.4-0.1C24,9.5,24.2,9.7,24.3,9.7 M20.9,5.3C21,5.2,21.1,5.1,21.2,5c0.1,0,0.4-0.1,0.5-0.1
	c0.1,0.1,0.2,0.2,0.2,0.3L22,5.6l0.4,0.9l1.1,2.1c0.1,0.1,0.1,0.4,0.1,0.5c-0.1,0.1-0.2,0.2-0.3,0.2c-0.1,0-0.4,0.1-0.5,0.1
	l-0.1-0.1c0,0-0.1-0.1-0.1-0.1c-0.1,0-0.2,0.1-0.3,0.1l-0.4,0.2c-0.1,0.1-0.5,0.2-0.5,0.1c-0.1-0.1-0.1-0.1-0.2-0.2
	c0-0.1-0.1-0.2-0.1-0.3c0-0.1,0.3-0.3,0.4-0.4l0.4-0.2c0.1-0.1,0.3-0.2,0.3-0.2c0-0.1-0.1-0.2-0.1-0.3L21,5.8
	C20.9,5.7,20.8,5.3,20.9,5.3 M17,7.3c0.2-0.4,0.6-0.8,1-1c0.4-0.2,0.9-0.3,1.3-0.2c0.4,0.1,0.8,0.4,1,0.8c0.1,0.2,0.1,0.4,0.1,0.6
	c0,0.1,0,0.2-0.1,0.4l0,0l0,0l0.2-0.1c0.1-0.1,0.5-0.1,0.5-0.1c0.1,0.1,0.1,0.1,0.2,0.2c0,0.1,0,0.3,0,0.4c-0.1,0.1-0.2,0.2-0.4,0.3
	l-0.4,0.2C20.4,8.8,20.2,9,20.2,9c0,0.1,0.1,0.2,0.1,0.3l0.2,0.4c0.1,0.1,0.1,0.4,0.1,0.5c-0.1,0.1-0.2,0.2-0.3,0.2
	c-0.1,0-0.4,0.1-0.5,0.1c-0.1-0.1-0.2-0.2-0.2-0.3l-0.2-0.4c0-0.1-0.1-0.2-0.2-0.3c0,0-0.2,0-0.4,0.1l-0.9,0.5
	c-0.2,0.1-0.4,0.1-0.5,0.1c-0.1-0.1-0.1-0.1-0.2-0.2c0-0.1-0.1-0.3,0-0.4c0.1-0.1,0.2-0.2,0.3-0.2c0.1,0,0.1-0.1,0-0.2l-0.1-0.1
	C17.2,9,17,8.8,16.9,8.6C16.7,8.2,16.7,7.7,17,7.3 M7.9,16.4l2.9-3.9c0.1-0.1,0.3-0.4,0.4-0.3c0.1,0,0.2,0,0.3,0.1
	c0,0,0.2,0.2,0.2,0.4c0,0.1-0.1,0.3-0.2,0.4l-2.3,3.2c-0.1,0.1-0.2,0.3-0.2,0.4L9,16.6c0.1,0,0.1,0,0.2,0c0.1-0.1,0.2-0.2,0.2-0.2
	l2.3-3.2c0.1-0.1,0.3-0.4,0.4-0.3c0.1,0,0.2,0,0.3,0.1c0.1,0,0.2,0.2,0.2,0.4c0,0.1-0.1,0.3-0.2,0.4l-1,1.3
	c-0.1,0.1-0.1,0.3-0.1,0.3l0.1,0.1c0.1,0,0.1,0,0.2,0c0.1-0.1,0.2-0.2,0.2-0.3l1-1.4c0.1-0.1,0.2-0.2,0.3-0.3c0.1,0,0.4,0,0.4,0.1
	s0.2,0.3,0.2,0.4c0,0.1-0.1,0.3-0.2,0.4l-0.4,0.5c-0.1,0.1,0,0.2,0.1,0.2c0.1,0,0.2,0,0.3,0h0.1c0.2,0,0.4,0.1,0.6,0.2
	c0.4,0.3,0.6,0.7,0.7,1.2c0,0.1,0,0.1,0,0.2c0,0.6-0.2,1.1-0.5,1.5c-0.3,0.5-0.8,0.8-1.3,1c-0.5,0.2-1.1,0.1-1.5-0.2
	c-0.2-0.1-0.4-0.3-0.5-0.6C11,18.1,11,18,11,17.8l0,0l0,0l-0.2,0.2l-0.4,0.5c-0.1,0.1-0.3,0.3-0.4,0.3c-0.1,0-0.2-0.1-0.3-0.1
	c0,0-0.2-0.3-0.2-0.4c0-0.1,0.1-0.3,0.2-0.4l1-1.4c0.1-0.1,0.1-0.2,0.2-0.4c0,0,0-0.1-0.1-0.1c0,0-0.1-0.1-0.2,0
	c-0.1,0.1-0.2,0.2-0.2,0.2l-0.7,1c-0.1,0.1-0.2,0.3-0.3,0.4c-0.1,0.1-0.1,0.1-0.2,0.1c-0.1,0-0.2,0-0.3,0l-0.2-0.1
	c-0.1-0.1-0.3-0.2-0.4-0.3l-0.4-0.3c-0.1-0.1-0.3-0.3-0.3-0.4C7.7,16.7,7.7,16.6,7.9,16.4 M6.2,22.7c0.5,0.1,0.9,0.5,0.8,1
	c0,0.4-0.4,0.8-0.8,0.8c-0.5-0.1-0.9-0.5-0.8-1C5.5,23.1,5.8,22.7,6.2,22.7 M3.2,31.9c0-0.3,0.3-0.5,0.6-0.5l2.3,0.1
	c0.3,0,0.5-0.2,0.6-0.5v-0.4c0-0.3,0.2-0.5,0.4-0.5s0.4,0.3,0.4,0.6l-0.1,3c0,0.3-0.2,0.5-0.4,0.5s-0.4-0.2-0.4-0.5v-0.4
	c0-0.3-0.2-0.5-0.5-0.6l-2.3,0C3.4,32.5,3.2,32.2,3.2,31.9 M3.5,37.3c-0.1-1.2,0.8-2.2,2-2.3c1.2-0.1,2.2,0.8,2.3,2
	c0.1,1.1-0.7,2.1-1.8,2.3C4.7,39.5,3.6,38.6,3.5,37.3C3.5,37.4,3.5,37.4,3.5,37.3 M5.7,44.7c-0.1-0.3,0-0.6,0.1-0.9L7,41.7
	c0.1-0.3,0-0.4-0.2-0.3L5.2,42c-0.3,0.1-0.6,0-0.7-0.3c-0.1-0.3,0-0.6,0.3-0.7l2.9-1.1c0.3-0.1,0.6,0,0.7,0.2
	c0.1,0.3,0.1,0.6-0.1,0.9l-1,2c-0.1,0.3,0,0.4,0.2,0.3L9,42.8c0.3-0.1,0.6,0,0.7,0.3c0.1,0.3,0,0.6-0.3,0.7l-2.9,1.1
	C6.2,45,5.9,44.9,5.7,44.7 M8.9,49.8c-0.4-0.2-0.7-0.5-1-0.9C7,48,7.1,46.6,8,45.8c0.9-0.8,2.3-0.8,3.1,0.1c0.2,0.2,0.3,0.4,0.4,0.6
	c0.2,0.3,0.4,0.6,0.5,1c0.1,0.3-0.1,0.6-0.3,0.8l-0.3,0.2c-0.1-0.5-0.2-1.1-0.5-1.5c-0.3-0.7-1.1-1-1.8-0.7c-0.1,0-0.1,0.1-0.2,0.1
	c-0.6,0.4-0.7,1.2-0.3,1.8c0,0,0,0.1,0.1,0.1c0.1,0.2,0.3,0.4,0.5,0.5c0.2-0.1,0.3-0.4,0.2-0.5c-0.1-0.2,0-0.4,0.1-0.5
	c0.2-0.1,0.5,0,0.6,0.2l0.3,0.5c0.2,0.3,0.1,0.6-0.2,0.8l-0.5,0.3C9.4,49.8,9.1,49.8,8.9,49.8"/>
<path class="st0" d="M18.3,8.5c0.2,0.1,0.5,0,0.7-0.1c0.2-0.1,0.4-0.3,0.4-0.5c0.1-0.2,0.1-0.4,0-0.6C19.3,7.2,19.1,7,18.9,7
	c-0.2-0.1-0.4,0-0.6,0.1c-0.1,0.1-0.2,0.2-0.3,0.3c-0.1,0.1-0.1,0.3-0.2,0.5c0,0.1,0,0.2,0.1,0.4C17.9,8.3,18.1,8.5,18.3,8.5"/>
<path class="st0" d="M42.2,20.2c0-0.6-0.5-1-0.9-1.5l-0.2-0.2c-0.6-0.5-1.3-0.7-2.1-0.7c-0.5-0.1-1.1,0.1-1.5,0.5
	c-0.5,0.5-0.7,1.2-0.6,1.8c-0.1,0.7,0.1,1.3,0.5,1.8c0.5,0.5,1.2,0.8,1.9,0.8c0.7,0,1.4-0.2,1.9-0.7"/>
<path class="st0" d="M54,48.2L54,48.2c-0.1-0.1-0.2-0.1-0.3-0.1c-0.1,0-0.2,0.1-0.3,0.2c0,0-0.1,0.1-0.3,0.3L53,48.8v0
	c-0.2,0.2-0.2,0.6,0,0.8l0,0l0,0l0,0c0.2,0.2,0.5,0.2,0.6,0l0,0l0.6-0.8c0,0,0.1-0.1,0.1-0.1c0-0.1,0-0.2,0-0.3
	C54.2,48.4,54.1,48.3,54,48.2"/>
<path class="st0" d="M12.2,18.1c0.2,0.2,0.5,0.2,0.8,0.1c0.3-0.1,0.6-0.2,0.7-0.5c0.2-0.2,0.3-0.5,0.2-0.9c0-0.3-0.1-0.6-0.4-0.7
	c-0.2-0.2-0.5-0.2-0.8-0.1c-0.3,0.1-0.6,0.2-0.7,0.5c-0.2,0.2-0.3,0.5-0.2,0.9C11.8,17.6,12,17.9,12.2,18.1"/>
<path class="st0" d="M44.2,7.6c0.2,0.1,0.4,0.1,0.6,0.1c0.2,0,0.3-0.1,0.4-0.3c0.1-0.2,0.1-0.4,0-0.5c-0.2-0.4-0.6-0.6-1-0.5
	c-0.2,0-0.3,0.2-0.4,0.3c-0.1,0.2-0.1,0.3,0,0.5C43.9,7.4,44,7.5,44.2,7.6"/>
<path class="st0" d="M91,8.1H94v12.5H91v-2.7h-4.7c-1.1,1.1-2.6,1.8-4.2,1.7c-3.2,0-5.6-2.2-5.6-5.2s2.4-5.1,5.6-5.1
	c1.6,0,3.1,0.6,4.2,1.7H91L91,8.1z M84.9,14.3c0-1.4-1.1-2.6-2.5-2.7c-0.1,0-0.1,0-0.2,0c-1.5-0.1-2.8,1-2.8,2.5
	c-0.1,1.5,1,2.8,2.5,2.8c0.1,0,0.2,0,0.3,0c1.4,0.1,2.7-1,2.8-2.5C84.9,14.5,84.9,14.4,84.9,14.3L84.9,14.3z M79.5,23.7v-2.3H94V29
	H91v-5.3H79.5z M91,15.5v-2.2h-3.5c0.2,0.7,0.2,1.5,0,2.2H91z"/>
<path class="st0" d="M108.6,19.1c-3.3,0.6-6.7,0.8-10,0.7h-1.8v-6.4h6.8v-1.7h-6.7V9.3h9.6v6.2h-6.7v1.9c2.8,0,5.7-0.2,8.5-0.6
	L108.6,19.1z M112.9,25.1c0,2.5-2.8,3.9-7.1,3.9s-7.2-1.4-7.2-3.9s2.7-4,7.2-4S112.9,22.6,112.9,25.1L112.9,25.1z M110,25.1
	c0-1.2-1.5-1.8-4.2-1.8s-4.3,0.6-4.3,1.8s1.5,1.7,4.3,1.7S110,26.2,110,25.1L110,25.1z M115.6,13.3h-2.8v2h2.8v2.4h-2.8v3h-3V8.1h3
	v2.8h2.8V13.3z"/>
<path class="st0" d="M127.3,10.3c0,6.4-2.2,11.6-9.7,15.2l-1.5-2.3c5.4-2.6,7.8-5.9,8.3-10.5h-7.1v-2.3H127.3z M130.6,8.1h3v21h-3
	V8.1z"/>
<path class="st0" d="M146.5,9.6v10.6h-10.2V9.6h3v3h4.3v-3H146.5z M141.7,21.9v4.4h11.4v2.4h-14.4v-6.7L141.7,21.9z M143.6,17.9v-3
	h-4.3v3H143.6z M152.4,14h2.8v2.4h-2.8v7.1h-3V8.1h3V14z"/>
<path class="st0" d="M172.1,10.3v2.3h-11.6v-2.3h4.5V8h2.9v2.2H172.1z M166.4,21.6c-2.9,0-4.9-1.7-4.9-4.1s2.1-4.1,4.9-4.1
	s5,1.7,5,4.1S169.3,21.6,166.4,21.6z M167.1,26.3h11.4v2.4h-14.4v-6h3L167.1,26.3z M166.4,19.3c1.3,0,2.2-0.6,2.2-1.9
	s-1-1.8-2.2-1.8s-2.2,0.7-2.2,1.8S165.1,19.3,166.4,19.3L166.4,19.3z M175.2,24v-4h-2.8v-2.3h2.8v-2.1h-2.8v-2.4h2.8V8h2.9v16
	L175.2,24z"/>
<path class="st0" d="M181.4,20.6l-1.5-2.3c3-0.8,5-3.4,5.1-6.5h-4.3V9.5h11.4v2.4H188c0,2.5,1.5,4.8,4.8,5.8l-1.4,2.3
	c-2.1-0.6-3.9-2-4.9-3.9C185.6,18.2,183.7,19.9,181.4,20.6z M197.1,25c0,2.6-2.7,4.1-7.1,4.1s-7.2-1.5-7.2-4.1s2.8-4,7.2-4
	S197.1,22.4,197.1,25z M194.2,25c0-1.2-1.5-1.8-4.2-1.8s-4.2,0.6-4.2,1.8s1.5,1.8,4.2,1.8S194.2,26.2,194.2,25L194.2,25z M196.9,13
	h2.8v2.4h-2.8v5.2h-3V8.1h3V13z"/>
<path class="st0" d="M219.2,19.9h-8.1v1.6c3.6,0.3,5.8,1.6,5.8,3.7c0,2.4-2.8,3.8-7.3,3.8s-7.3-1.4-7.3-3.8c0-2.2,2.2-3.5,5.9-3.7
	V20h-8.1v-2.4h19.1V19.9z M200.9,14.5c3.9-0.3,6-1.8,6.6-3.2h-5.7V9h15.7v2.3h-5.7c0.5,1.5,2.7,2.9,6.6,3.2l-1,2.3
	c-4-0.4-6.6-1.9-7.8-3.9c-1.1,2-3.7,3.5-7.7,3.9L200.9,14.5z M209.6,23.7c-2.9,0-4.4,0.5-4.3,1.6s1.4,1.6,4.3,1.6s4.4-0.5,4.4-1.6
	S212.5,23.7,209.6,23.7L209.6,23.7z"/>
<path class="st0" d="M221.3,19.5l-1.4-2.3c2.9-0.7,5-3.3,5.1-6.4v-2h3v2c0,2.5,1.5,5,4.9,6l-1.4,2.2c-2.2-0.6-4-2-5-4
	C225.4,17.2,223.6,18.8,221.3,19.5z M223.4,28.8v-7.9h14v7.9H223.4z M226.3,23.2v3.2h8.3v-3.2H226.3z M234.5,8.1h3v11.9h-3V8.1z"/>
<path class="st0" d="M88.5,52.4h6.9v2.4H76.3v-2.4h4v-6.6h3v6.6h2.3v-6.6h2.9L88.5,52.4z M90,49.6c0.5-3,0.8-6.1,0.7-9.1H78.2v-2.3
	h15.5v2.1c0.1,3.2-0.2,6.5-0.8,9.7L90,49.6z"/>
<path class="st0" d="M115.2,48.5h-4.6v2h2.3v6.9H110v-4.6H98.2v-2.3h2.4v-2h-4.5v-2.3h19.1V48.5z M98,40.9c0-2.5,3-4.1,7.6-4.1
	s7.6,1.6,7.6,4.1s-3,4.2-7.6,4.1S98,43.5,98,40.9L98,40.9z M101.1,40.9c0,1.2,1.7,1.9,4.6,1.9s4.6-0.6,4.6-1.9s-1.7-1.8-4.6-1.8
	S101.1,39.7,101.1,40.9L101.1,40.9z M107.7,50.5v-2h-4.1v2H107.7z"/>
<path class="st0" d="M122.5,50.6c2.1-0.1,4.1-0.2,6.1-0.5l0.2,2.2c-4.2,0.6-8.5,0.9-12.7,0.8l-0.3-2.3c1.2,0,2.5,0,3.9,0v-6.2h2.9
	V50.6z M124.3,48c0.4-2.4,0.6-4.8,0.5-7.1h-7.9v-2.3h10.9v1.7c0,2.7-0.2,5.4-0.6,8L124.3,48z M135.4,44.8v2.5h-2.9v10.1h-3v-21h3
	v8.4L135.4,44.8z"/>
<path class="st0" d="M137.1,48.9l-1.5-2.3c2.9-0.8,5-3.5,5.1-6.5h-4.2v-2.4h11.4V40h-4.2c0.1,2.8,2.1,5.3,4.8,6l-1.5,2.3
	c-2.1-0.7-3.9-2.2-4.8-4.2C141.3,46.4,139.4,48.1,137.1,48.9z M153.5,53.4c0,2.5-2.7,4-7.2,4s-7.2-1.5-7.2-4s2.7-4,7.2-4
	S153.5,50.8,153.5,53.4z M150.6,53.4c0-1.2-1.5-1.8-4.3-1.8s-4.3,0.6-4.3,1.8s1.5,1.8,4.3,1.8S150.6,54.5,150.6,53.4L150.6,53.4z
	 M147.2,41.5h3.3v-5.1h2.9v12.5h-2.9v-5h-3.3V41.5z"/>
<path class="st0" d="M173.3,48.4c-4.3,0.7-8.6,1-12.9,0.9l-0.3-2.3c1.2,0,2.5,0,3.9,0v-4.1h2.9v4c2.1-0.1,4.2-0.3,6.2-0.5
	L173.3,48.4z M168.8,45.1c0.3-1.6,0.5-3.2,0.5-4.8h-7.9v-2.4h10.8v1.3c0,2.1-0.1,4.1-0.5,6.1L168.8,45.1z M166.2,50.7v3.9H178V57
	h-14.8v-6.3H166.2z M177.3,42.8h2.5v2.5h-2.5v6.9h-3V36.4h3V42.8z"/>
<path class="st0" d="M184.4,50.1c3,0,6-0.2,9-0.7l0.2,2.4c-3.4,0.6-6.9,0.8-10.4,0.7h-1.9v-8.6h6.9v-3.4h-7v-2.4h10v8.1h-6.9V50.1z
	 M194.9,36.4h2.9v21h-2.9V36.4z"/>
<path class="st0" d="M208.2,41.1c0,3.9,1.7,7.7,5.3,9.2l-1.7,2.4c-2.4-1.2-4.2-3.3-5-5.8c-0.8,2.7-2.7,5-5.2,6.3l-1.8-2.4
	c3.7-1.5,5.4-5.6,5.5-9.6V38h3L208.2,41.1z M214.7,36.4h3v21h-3V36.4z"/>
<path class="st0" d="M219.9,52.4h19.2v2.4h-19.2V52.4z M221.7,48.8l-1.3-2.4c4.7-0.8,7.4-4.1,7.4-7.2v-1.5h3.1v1.5
	c0,3.1,2.7,6.4,7.5,7.2l-1.3,2.4c-3.3-0.5-6.1-2.5-7.7-5.5C227.8,46.2,224.9,48.2,221.7,48.8z"/>
<path class="st0" d="M249.6,47.6c-2.5,0.4-5,0.6-7.6,0.5h-1.4V37.6h8V40h-5.2v1.7h4.4v2.2h-4.4v1.8c2,0,3.9-0.1,5.9-0.5L249.6,47.6z
	 M243.4,57.1v-7.4h14.3v7.4H243.4z M246.4,52v2.7h8.5V52H246.4z M250.8,48.8v-5h-2.1v-2.4h2.1v-4.7h2.8v12H250.8z M255,36.4h2.8
	v12.5H255V36.4z"/>
</svg>
