<?xml version="1.0" encoding="utf-8"?>
<!-- Generator: Adobe Illustrator 25.2.1, SVG Export Plug-In . SVG Version: 6.00 Build 0)  -->
<svg version="1.1" id="레이어_1" xmlns="http://www.w3.org/2000/svg" xmlns:xlink="http://www.w3.org/1999/xlink" x="0px"
	 y="0px" viewBox="0 0 218.2 60.2" style="enable-background:new 0 0 218.2 60.2;" xml:space="preserve">
<style type="text/css">
	.st0{fill:#231815;}
	.st1{display:none;fill:#231815;enable-background:new    ;}
	.st2{font-family:'AppleSDGothicNeoB00';}
	.st3{font-size:17px;}
	.st4{enable-background:new    ;}
	.st5{fill:#009481;}
	.st6{fill:#FFFFFF;}
	.st7{fill:#1D2088;}
	.st8{fill:#E60012;}
</style>
<g id="레이어_2_1_">
	<path class="st0" d="M88.1,12.1H76.3v4.2h12v1.7H75.8c-0.7,0.1-1.4-0.2-2-0.6c-0.4-0.4-0.7-0.9-0.6-1.5v-5.4h14.9L88.1,12.1z
		 M89.7,21.7h-7.6V28h-3.1v-6.3H72L71.2,20h18.6L89.7,21.7z"/>
	<path class="st0" d="M107.1,18.3V9.9h3.1v14.5h-3.1V23h-3.4v-1.7h3.4V20h-6v3H98v3.2h12.4v1.7H97.6c-0.7,0.1-1.5-0.1-2.1-0.5
		c-0.4-0.4-0.7-0.9-0.6-1.5v-2.9H98v-3h-4.5l-0.8-1.7L107.1,18.3z"/>
	<path class="st0" d="M132.9,18.9h-17.8l-0.8-1.7h6.9V14h3.1v3.2h2.8c0.2-0.5,0.3-1,0.4-1.5c0.1-0.5,0.1-1.1,0.1-1.6v-1.9h-11
		l-0.8-1.7h14.9v1.9c0,0.9-0.1,1.7-0.1,2.6c-0.1,0.7-0.2,1.5-0.4,2.2h2.6L132.9,18.9z"/>
	<path class="st0" d="M147.7,10.8v3.1c0,1.3-0.1,2.6-0.2,4c-0.1,1.1-0.3,2.1-0.6,3.1l-3-0.6c0.3-0.9,0.5-1.8,0.6-2.6
		c0.1-1.2,0.2-2.4,0.2-3.5v-1.7h-7.3l-0.8-1.7H147.7z M149.6,9.9h3.1v6.9h2.5v1.8h-2.5V28h-3.1v-4.5h-13.2l-0.8-1.7h3.9v-5.6h3.1
		v5.6h7L149.6,9.9z"/>
	<path class="st0" d="M165.8,12.4h-4.4v9.3h5.9V9.9h2.9v6.7h1.5V9.9h3.1V28h-3.1v-9.3h-1.5V28h-2.9v-4.6h-6.3
		c-0.7,0.1-1.5-0.2-2.1-0.6c-0.4-0.4-0.6-1-0.6-1.7V10.8h7.5L165.8,12.4z"/>
	<path class="st0" d="M182.3,12.6h-2.8l-0.8-1.6h4.8V9.8h3.1V11h4.3v1.6h-3.2 M195.6,9.9v4.6h2.5v1.7h-2.5v3.9h-3V9.9L195.6,9.9z
		 M195.6,21.4V28h-3v-4.9h-11.3l-0.8-1.7H195.6z"/>
	<path class="st0" d="M93.9,14.2c0-2.4,2.6-4.3,5.9-4.3s5.8,1.9,5.8,4.3s-2.6,4.3-5.8,4.3S93.9,16.6,93.9,14.2z M99.8,16.7
		c1.4-0.1,2.4-1.3,2.3-2.7c-0.1-1.4-1.3-2.4-2.7-2.3c-1.3,0.1-2.3,1.2-2.3,2.5C97.1,15.6,98.3,16.8,99.8,16.7z"/>
	<path class="st0" d="M179.7,15.9c0-2.3,2.5-4.1,5.5-4.1s5.6,1.8,5.6,4.1s-2.5,4.1-5.6,4.1S179.7,18.1,179.7,15.9z M185.3,18.3
		c1.3-0.1,2.3-1.3,2.2-2.6c-0.1-1.3-1.3-2.3-2.6-2.2c-1.2,0.1-2.2,1.1-2.2,2.4C182.7,17.3,183.9,18.3,185.3,18.3z"/>
	<path class="st0" d="M117.3,23.9c0-2.4,3-4.3,6.3-4.3s6.3,1.9,6.3,4.3s-3,4.3-6.3,4.3S117.3,26.3,117.3,23.9z M123.6,26.5
		c1.5-0.3,2.4-1.6,2.2-3.1s-1.6-2.4-3.1-2.2c-1.3,0.2-2.2,1.3-2.2,2.6C120.6,25.5,122,26.6,123.6,26.5L123.6,26.5z"/>
	<path class="st0" d="M215,22.1h-2.8c0.4-1.4,0.6-2.9,0.6-4.4l0.1-5.3h-11.4l-0.8-1.7H216v7C216,19.3,215.6,20.8,215,22.1z
		 M199.3,23.7h4.2v-6.8h2.8v6.8h1.8v-6.8h2.8v6.8h6.5v1.7h-17.4L199.3,23.7z"/>
	<text transform="matrix(1 0 0 1 71.17 46.39)" class="st1 st2 st3">스마트교육행정시스템</text>
	<g class="st4">
		<path class="st0" d="M85.4,45.8H71.7v-1.6h13.7V45.8z M85.1,39.6l-1,1.5c-1.1-0.3-2.2-0.8-3.3-1.5s-1.8-1.6-2.2-2.5
			c-0.4,1-1.1,1.8-2.2,2.6c-1.1,0.8-2.2,1.3-3.4,1.5L72,39.6c0.9-0.1,1.7-0.4,2.5-0.8c0.8-0.4,1.5-1,2.1-1.8s0.9-1.6,0.9-2.4v-1h2.1
			v1c0,0.5,0.1,1,0.3,1.5c0.2,0.5,0.5,0.9,0.9,1.3c0.4,0.4,0.8,0.7,1.3,1c0.5,0.3,1,0.6,1.5,0.8C84.1,39.3,84.6,39.5,85.1,39.6z"/>
		<path class="st0" d="M94,34v9.8h-7.2V34H94z M92,42.2v-6.7h-3.2v6.7H92z M98.2,32.6v5.8h2.1V40h-2.1v7.7h-2V32.6H98.2z"/>
		<path class="st0" d="M114.8,44.3v1.6h-13.7v-1.6H114.8z M112.7,38.6h-7.9v1.6h8.4v1.6h-10.4v-8h10.2v1.6h-8.2V37h7.9V38.6z"/>
		<path class="st0" d="M129.5,45.6h-13.7V44h3.1v-4.6h2V44h1.6v-4.6h2V44h5V45.6z M128,34.1c0,3.6-0.2,6.3-0.7,8.2l-1.9-0.3
			c0.4-1.6,0.6-3.7,0.6-6.3h-8.6v-1.6H128z"/>
		<path class="st0" d="M132.1,42.6h1.8v-1.6h-3.4v-1.6h13.7v1.6h-3.5v1.6h1.7v5.1h-2v-3.5h-8.3V42.6z M132.1,35.8
			c0-0.9,0.5-1.6,1.4-2.1c0.9-0.5,2.2-0.8,3.9-0.8c1.7,0,3,0.3,3.9,0.8c0.9,0.5,1.4,1.2,1.4,2.1c0,0.9-0.5,1.6-1.4,2.1
			c-0.9,0.5-2.2,0.8-3.9,0.8c-1.7,0-2.9-0.3-3.9-0.8C132.5,37.4,132.1,36.7,132.1,35.8z M135,34.8c-0.6,0.3-0.9,0.6-0.9,1
			c0,0.4,0.3,0.8,0.9,1c0.6,0.3,1.4,0.4,2.4,0.4c1,0,1.8-0.1,2.4-0.4c0.6-0.3,0.9-0.6,0.9-1c0-0.4-0.3-0.8-0.9-1s-1.4-0.4-2.4-0.4
			C136.3,34.4,135.5,34.6,135,34.8z M135.9,41.1v1.6h2.8v-1.6H135.9z"/>
		<path class="st0" d="M145.2,36.9v-1.5h7.2v1.5H145.2z M151.3,38.1c0.6,0.4,0.9,1,0.9,1.8c0,0.7-0.3,1.3-0.9,1.8
			c-0.6,0.4-1.4,0.7-2.3,0.7s-1.8-0.2-2.3-0.7c-0.6-0.4-0.9-1-0.9-1.8c0-0.7,0.3-1.3,0.9-1.8c0.6-0.4,1.4-0.7,2.3-0.7
			S150.7,37.6,151.3,38.1z M147,34.7v-1.5h4v1.5H147z M158.2,45.1c0,0.8-0.5,1.5-1.4,2c-0.9,0.5-2.2,0.7-3.9,0.7
			c-1.7,0-3-0.2-3.9-0.7c-1-0.5-1.4-1.1-1.4-2c0-0.8,0.5-1.5,1.4-1.9c1-0.5,2.3-0.7,3.9-0.7c1.6,0,2.9,0.2,3.9,0.7
			C157.7,43.6,158.2,44.3,158.2,45.1z M150,40.5c0.2-0.2,0.4-0.4,0.4-0.7s-0.1-0.5-0.4-0.7s-0.6-0.3-1-0.3s-0.8,0.1-1,0.3
			s-0.4,0.4-0.4,0.7s0.1,0.5,0.4,0.7c0.2,0.2,0.6,0.3,1,0.3S149.8,40.6,150,40.5z M155.3,45.9c0.6-0.2,0.9-0.5,0.9-0.8
			c0-0.4-0.3-0.6-0.9-0.8s-1.4-0.3-2.4-0.3c-1,0-1.8,0.1-2.4,0.3c-0.6,0.2-0.9,0.5-0.9,0.8c0,0.4,0.3,0.6,0.9,0.8s1.4,0.3,2.4,0.3
			C153.9,46.2,154.7,46.1,155.3,45.9z M158.1,42.4h-1.9v-3.9H155v3.4h-1.8v-9h1.8v4h1.2v-4.3h1.9V42.4z"/>
		<path class="st0" d="M160.4,35.3v-1.6h8v1.6h-2.9c0.1,1,0.4,1.8,1,2.6c0.6,0.7,1.4,1.2,2.3,1.5c-0.1,0.2-0.3,0.5-0.6,0.9
			c-0.3,0.4-0.4,0.6-0.5,0.7c-0.6-0.2-1.2-0.6-1.9-1.2c-0.6-0.5-1.1-1.1-1.4-1.8c-0.2,0.7-0.7,1.4-1.4,2c-0.7,0.6-1.4,1.1-2.2,1.4
			c-0.1-0.1-0.3-0.3-0.5-0.7c-0.3-0.4-0.5-0.6-0.7-0.8c1.1-0.4,1.9-1,2.6-1.8c0.6-0.8,1-1.7,1.1-2.8H160.4z M172.5,44.7
			c0,0.9-0.5,1.7-1.4,2.2c-0.9,0.5-2.2,0.8-3.9,0.8s-3-0.3-3.9-0.8c-0.9-0.5-1.4-1.3-1.4-2.2c0-1,0.5-1.7,1.4-2.2
			c0.9-0.5,2.2-0.8,3.9-0.8s3,0.3,3.9,0.8C172.1,43,172.5,43.8,172.5,44.7z M167.2,43.3c-1,0-1.8,0.1-2.4,0.4
			c-0.6,0.3-0.9,0.6-0.9,1.1c0,0.4,0.3,0.8,0.9,1c0.6,0.2,1.4,0.4,2.4,0.4c1,0,1.8-0.1,2.4-0.4c0.6-0.2,0.9-0.6,0.9-1
			c0-0.5-0.3-0.8-0.9-1.1S168.3,43.3,167.2,43.3z M168.2,37.8v-1.6h2.3v-3.6h2v9h-2v-3.8H168.2z"/>
		<path class="st0" d="M184,42.8l-1.2,1.5c-0.6-0.4-1.3-1-2-1.8c-0.7-0.8-1.1-1.6-1.4-2.4c-0.2,0.9-0.7,1.7-1.4,2.6
			c-0.7,0.9-1.4,1.5-2.2,1.9l-1.2-1.5c2.5-1.6,3.8-3.9,3.8-7v-2.3h2.1v2.2C180.5,39.1,181.7,41.3,184,42.8z M187.1,47.7h-2V32.6h2
			V47.7z"/>
		<path class="st0" d="M203,45.8h-13.7v-1.6H203V45.8z M202.7,39.6l-1,1.5c-1.1-0.3-2.2-0.8-3.3-1.5s-1.8-1.6-2.2-2.5
			c-0.4,1-1.1,1.8-2.2,2.6c-1.1,0.8-2.2,1.3-3.4,1.5l-0.9-1.6c0.9-0.1,1.7-0.4,2.5-0.8c0.8-0.4,1.5-1,2.1-1.8s0.9-1.6,0.9-2.4v-1
			h2.1v1c0,0.5,0.1,1,0.3,1.5c0.2,0.5,0.5,0.9,0.9,1.3c0.4,0.4,0.8,0.7,1.3,1s1,0.6,1.5,0.8C201.8,39.3,202.2,39.5,202.7,39.6z"/>
		<path class="st0" d="M206.6,39.5c0.5,0,1.2,0,2-0.1c0.8-0.1,1.5-0.1,2-0.3l0.2,1.5c-1.3,0.2-2.9,0.4-4.7,0.4c-0.3,0-0.8,0-1.4,0
			v-7.4h5.6v1.6h-3.6v1.3h3.2v1.5h-3.2V39.5z M216.9,47.5h-10.3V42h10.3V47.5z M214.9,46v-2.4h-6.3V46H214.9z M213.9,41.2H212v-3.1
			h-1.5v-1.5h1.5v-3.7h1.9V41.2z M216.9,41.3H215v-8.7h1.9V41.3z"/>
	</g>
</g>
<g id="레이어_3">
	<g id="심플">
		<path class="st5" d="M39.4,58.1c17.8-6.1,29.3-23.5,25.7-39S44.1-4,26.4,2.1s-29.3,23.5-25.7,39S21.6,64.1,39.4,58.1z"/>
		<path class="st6" d="M32.3,38.4l6.5-22.2c1.8-1.1,2.8-1.2,5.2-1.5c3.3,0.1,4.9,0.2,6.5,1.6l1-0.4c-1.1-0.5-1.4-5.8-13-2.6
			c-3.1,0.9-6.2,1.9-9.2,3.2l-0.6,2.7l-6.8,21.6L32.3,38.4z"/>
		<path class="st7" d="M60,15.4c-2.4-5-12.1-5.9-23.6-2.8c-3.6,0.8-13.2,4.7-13.2,4.7l3.4,0.4l-6.8,21.6c-6.9,1.1-12.3,0-13.8-3.2
			C5,34.4,5.6,32,7.3,29.5c-3.2,4-4.5,7.8-3.1,10.7c3.1,6.4,18,5.6,33.1-0.8C53,32.9,63,21.8,60,15.4z M32.2,35.2
			c-1.1,0.5-2.1,0.9-3.2,1.3l6.6-22.1c8.3-2.9,12.7-1.3,14.3,1.9C52.2,21.4,44.3,29.9,32.2,35.2z"/>
		<polygon class="st8" points="9.7,24.5 10.1,25.8 11.5,25.8 10.4,26.6 10.8,27.9 9.7,27.2 8.6,27.9 9,26.6 7.9,25.8 9.2,25.8 		"/>
		<path class="st6" d="M8.4,48.7l0.7-2.8l1,0.2c1,0.2,1.4,0.8,1.1,1.7c-0.1,0.4-0.3,0.7-0.7,0.9C10.2,49,9.8,49.1,9.4,49L8.4,48.7z
			 M9.6,46.6l-0.4,1.8l0.3,0.1c0.2,0.1,0.5,0,0.7-0.1c0.2-0.1,0.4-0.4,0.4-0.6c0.1-0.2,0-0.5-0.1-0.7c-0.1-0.2-0.3-0.4-0.6-0.4
			L9.6,46.6z"/>
		<path class="st6" d="M12.3,49.6c-0.6,0-1-0.4-1-1c0-0.1,0-0.1,0-0.2c0-0.3,0.2-0.6,0.4-0.8c0.2-0.2,0.6-0.2,0.9-0.2
			c0.3,0,0.6,0.2,0.8,0.4c0.2,0.2,0.2,0.5,0.2,0.8c0,0.3-0.2,0.6-0.4,0.8C12.9,49.5,12.5,49.6,12.3,49.6 M12.4,47.9
			c-0.1,0-0.3,0-0.4,0.1c-0.1,0.1-0.2,0.3-0.2,0.4c0,0.4,0.1,0.6,0.4,0.6s0.5-0.1,0.5-0.5S12.8,47.9,12.4,47.9"/>
		<path class="st6" d="M14.8,49.7c-0.3,0-0.6-0.1-0.8-0.3c-0.2-0.2-0.3-0.5-0.3-0.8c0-0.3,0.1-0.6,0.3-0.8c0.2-0.2,0.5-0.3,0.8-0.3
			c0.3,0,0.6,0.1,0.8,0.3c0.2,0.2,0.3,0.5,0.3,0.8c0,0.3-0.1,0.6-0.3,0.8C15.4,49.6,15.1,49.7,14.8,49.7 M14.8,48
			c-0.1,0-0.3,0-0.4,0.1c-0.1,0.1-0.1,0.3-0.1,0.4c0,0.4,0.1,0.6,0.5,0.6s0.5-0.2,0.5-0.6S15.1,48,14.8,48"/>
		<path class="st6" d="M19.2,47.4l-0.5,2.1H18l-0.4-1.2c0-0.1,0-0.2-0.1-0.3l0,0c0,0.1,0,0.2,0,0.2l-0.2,1.2h-0.7l-0.7-2h0.6
			l0.4,1.3c0,0.1,0,0.1,0,0.2l0,0c0-0.1,0-0.2,0-0.2l0.3-1.4h0.6l0.4,1.3c0,0.1,0,0.2,0,0.2l0,0c0-0.1,0-0.2,0-0.2l0.2-1.4
			L19.2,47.4z"/>
		<path class="st6" d="M20.5,49.4c-0.3,0.1-0.6,0-0.8-0.2c-0.2-0.2-0.4-0.4-0.4-0.7c-0.1-0.3,0-0.6,0.2-0.8c0.2-0.2,0.5-0.4,0.8-0.4
			c0.3-0.1,0.6,0,0.8,0.2c0.2,0.2,0.4,0.4,0.4,0.7c0.1,0.3,0,0.6-0.2,0.9C21.1,49.2,20.8,49.3,20.5,49.4 M20.3,47.7
			c-0.1,0-0.3,0.1-0.3,0.2c-0.1,0.1-0.1,0.3-0.1,0.5c0.1,0.4,0.2,0.6,0.6,0.5s0.4-0.3,0.4-0.7S20.6,47.7,20.3,47.7"/>
		<path class="st6" d="M24,48.7l-0.6,0.1l-0.2-1.1c-0.1-0.3-0.2-0.5-0.4-0.4c-0.1,0-0.2,0.1-0.2,0.2c0,0.1,0,0.2,0,0.3l0.2,1.1
			l-0.6,0.1l-0.4-2l0.6-0.1l0.1,0.3l0,0c0.1-0.3,0.3-0.4,0.6-0.5c0.4-0.1,0.7,0.1,0.8,0.7L24,48.7z"/>
		<polygon class="st6" points="27,45.8 26.2,46 26.7,48.3 26.1,48.5 25.6,46.2 24.8,46.3 24.6,45.8 26.9,45.3 		"/>
		<path class="st6" d="M29,46.8l-1.3,0.4c0.1,0.3,0.3,0.4,0.7,0.3c0.2,0,0.4-0.2,0.5-0.3l0.1,0.5c-0.2,0.2-0.4,0.3-0.7,0.3
			c-0.3,0.1-0.6,0.1-0.8-0.1c-0.2-0.2-0.4-0.4-0.5-0.7c-0.1-0.3-0.1-0.6,0.1-0.9c0.1-0.2,0.4-0.4,0.6-0.5c0.2-0.1,0.5,0,0.7,0.1
			c0.2,0.2,0.4,0.4,0.4,0.6L29,46.8z M28.4,46.6c-0.1-0.3-0.2-0.4-0.5-0.3c-0.1,0-0.2,0.1-0.2,0.2c0,0.1,0,0.2,0,0.3L28.4,46.6z"/>
		<path class="st6" d="M31.1,47c-0.2,0.1-0.4,0.2-0.6,0.3c-0.3,0.1-0.6,0.1-0.8-0.1c-0.2-0.1-0.4-0.4-0.5-0.6
			c-0.1-0.3-0.1-0.6,0.1-0.9c0.2-0.3,0.4-0.5,0.7-0.5c0.2-0.1,0.3-0.1,0.5-0.1l0.2,0.5c-0.2-0.1-0.3-0.1-0.5,0
			c-0.2,0-0.3,0.1-0.4,0.3c-0.1,0.2-0.1,0.3,0,0.5c0,0.2,0.1,0.3,0.3,0.4c0.1,0.1,0.3,0.1,0.4,0c0.2,0,0.3-0.1,0.4-0.3L31.1,47z"/>
		<path class="st6" d="M33.4,46.3l-0.6,0.2l-0.4-1.1c-0.1-0.3-0.2-0.4-0.5-0.3c-0.1,0-0.2,0.1-0.2,0.2c0,0.1,0,0.2,0,0.3l0.4,1.1
			L31.5,47l-1-2.9l0.6-0.2l0.4,1.3l0,0c0.1-0.3,0.2-0.5,0.5-0.5c0.4-0.1,0.8,0,0.9,0.6L33.4,46.3z"/>
		<path class="st6" d="M35.7,45.5l-0.6,0.2l-0.4-1.1c-0.1-0.3-0.3-0.4-0.5-0.3c-0.1,0-0.2,0.1-0.2,0.2c0,0.1,0,0.2,0,0.3l0.4,1.1
			l-0.6,0.2l-0.7-1.9l0.6-0.2l0.1,0.3l0,0c0-0.3,0.2-0.5,0.5-0.6c0.4-0.2,0.7,0,0.9,0.5L35.7,45.5z"/>
		<path class="st6" d="M35.6,42.9c-0.1,0-0.2,0-0.3,0c-0.1,0-0.2-0.1-0.2-0.2c0-0.1,0-0.2,0-0.3c0-0.1,0.1-0.1,0.2-0.2
			c0.1,0,0.2,0,0.3,0c0.1,0,0.2,0.1,0.2,0.2c0,0.1,0,0.2,0,0.3C35.7,42.8,35.7,42.9,35.6,42.9 M36.8,45l-0.6,0.2l-0.8-1.9l0.6-0.2
			L36.8,45z"/>
		<path class="st6" d="M38.7,44.1c-0.1,0.2-0.3,0.3-0.5,0.4c-0.3,0.1-0.6,0.1-0.8,0c-0.3-0.1-0.5-0.3-0.6-0.6
			c-0.1-0.3-0.1-0.6,0-0.9c0.1-0.3,0.4-0.5,0.7-0.6c0.2-0.1,0.3-0.1,0.5-0.1l0.2,0.5c-0.2,0-0.3,0-0.5,0c-0.2,0.1-0.3,0.2-0.3,0.3
			c-0.1,0.1-0.1,0.3,0,0.5c0,0.2,0.2,0.3,0.3,0.3c0.1,0.1,0.3,0.1,0.4,0c0.2-0.1,0.3-0.2,0.4-0.3L38.7,44.1z"/>
		<path class="st6" d="M40.6,43.3l-0.6,0.3L40,43.3l0,0c0,0.3-0.2,0.5-0.4,0.6c-0.3,0.2-0.6,0.1-0.8-0.2c0,0,0-0.1,0-0.1
			c-0.2-0.4,0-0.7,0.4-0.9l0.5-0.3c-0.1-0.2-0.2-0.3-0.5-0.1c-0.2,0.1-0.4,0.3-0.5,0.5l-0.2-0.4c0.2-0.2,0.4-0.4,0.6-0.5
			c0.4-0.2,0.8-0.1,1.1,0.2c0,0.1,0.1,0.1,0.1,0.2L40.6,43.3z M39.8,42.8l-0.1-0.1l-0.3,0.2c-0.2,0.1-0.2,0.2-0.2,0.4
			c0,0.1,0.1,0.1,0.1,0.1c0.1,0,0.1,0,0.2,0c0.1,0,0.2-0.1,0.2-0.2C39.8,43,39.8,42.9,39.8,42.8"/>
		<polygon class="st6" points="41.7,42.8 41.1,43.1 39.8,40.3 40.3,40.1 		"/>
		<path class="st6" d="M44.8,39.7c0.4,0.5,0.3,1.2-0.2,1.6c-0.1,0.1-0.2,0.1-0.3,0.2c-0.5,0.3-1.2,0.2-1.5-0.3
			c-0.1-0.1-0.1-0.2-0.1-0.3l-0.8-1.5l0.6-0.3l0.8,1.5c0.2,0.4,0.5,0.5,0.8,0.4s0.4-0.5,0.1-0.9l-0.8-1.5l0.6-0.3L44.8,39.7z"/>
		<path class="st6" d="M47.5,39.5L47,39.8l-0.6-1c-0.2-0.3-0.3-0.4-0.5-0.2c-0.1,0.1-0.2,0.1-0.2,0.2c0,0.1,0,0.2,0.1,0.3l0.6,1
			l-0.5,0.3l-1.1-1.8l0.6-0.3l0.2,0.3l0,0c0-0.3,0.1-0.5,0.4-0.7c0.4-0.2,0.7-0.1,1,0.4L47.5,39.5z"/>
		<path class="st6" d="M47,37c-0.1,0.1-0.2,0.1-0.3,0.1c-0.1,0-0.2-0.1-0.2-0.1c0-0.1,0-0.2,0-0.2c0-0.1,0.1-0.2,0.2-0.2
			c0.1-0.1,0.2-0.1,0.3-0.1c0.1,0,0.2,0.1,0.2,0.1c0,0.1,0,0.2,0,0.3C47.1,36.9,47.1,37,47,37 M48.5,38.9L48,39.2l-1.1-1.8l0.5-0.3
			L48.5,38.9z"/>
		<path class="st6" d="M49.5,35.8l0.5,2.1l-0.6,0.4L47.7,37l0.6-0.4l1,0.9c0.1,0.1,0.2,0.2,0.3,0.3l0,0c-0.1-0.1-0.1-0.2-0.1-0.3
			L49,36.2L49.5,35.8z"/>
		<path class="st6" d="M51.8,35.6l-1.1,0.8c0.2,0.2,0.5,0.3,0.7,0.1c0,0,0,0,0,0c0.2-0.1,0.3-0.3,0.4-0.5l0.3,0.4
			c-0.1,0.2-0.3,0.4-0.5,0.5c-0.4,0.3-1.1,0.3-1.4-0.2c0,0,0-0.1-0.1-0.1c-0.2-0.2-0.3-0.5-0.2-0.8c0-0.3,0.2-0.5,0.4-0.7
			c0.2-0.2,0.5-0.2,0.7-0.2c0.3,0.1,0.5,0.2,0.6,0.5L51.8,35.6z M51.1,35.6c-0.2-0.2-0.4-0.3-0.5-0.1c-0.1,0.1-0.1,0.1-0.1,0.2
			c0,0.1,0,0.2,0.1,0.3L51.1,35.6z"/>
		<path class="st6" d="M52.8,34.1c-0.1,0-0.2,0.1-0.2,0.1c-0.1,0.1-0.2,0.2-0.2,0.3c0,0.1,0.1,0.3,0.1,0.4l0.6,0.8l-0.5,0.4
			l-1.2-1.7l0.5-0.4l0.2,0.3l0,0c-0.1-0.2,0-0.5,0.2-0.7c0,0,0.1-0.1,0.1-0.1L52.8,34.1z"/>
		<path class="st6" d="M53.8,35.1l-0.3-0.4c0.1,0,0.2,0,0.3-0.1c0.1,0,0.2-0.1,0.3-0.1c0.1-0.1,0.1-0.1,0.2-0.2c0-0.1,0-0.1,0-0.2
			c0,0-0.1-0.1-0.1-0.1H54l-0.1,0l-0.2,0l-0.2,0.1h-0.2c-0.1,0-0.1,0-0.2-0.1c-0.1,0-0.1-0.1-0.2-0.2c-0.1-0.1-0.1-0.2-0.1-0.3
			c0-0.1,0-0.2,0-0.3c0-0.1,0.1-0.2,0.1-0.3c0.1-0.1,0.2-0.2,0.2-0.2c0.1-0.1,0.1-0.1,0.2-0.2c0.1,0,0.2-0.1,0.3-0.1l0.3,0.4
			c-0.1,0-0.2,0-0.3,0.1c-0.1,0-0.2,0.1-0.2,0.1c0,0-0.1,0.1-0.1,0.1c0,0-0.1,0.1-0.1,0.2c0,0,0,0,0,0.1c0,0,0.1,0.1,0.1,0.1h0.1
			h0.1l0.1,0l0.2-0.1h0.2l0.2,0.1c0.1,0,0.1,0.1,0.2,0.2c0.1,0.1,0.1,0.2,0.1,0.3c0,0.1,0,0.2,0,0.3c0,0.1-0.1,0.2-0.2,0.3
			c-0.1,0.1-0.2,0.2-0.3,0.2C54.2,35,54,35.1,53.8,35.1"/>
		<path class="st6" d="M54.1,31.9C54.1,32,54,32,53.9,32c-0.1,0-0.2,0-0.2-0.1c-0.1-0.1-0.1-0.2-0.1-0.2c0-0.1,0.1-0.2,0.1-0.2
			c0.1-0.1,0.2-0.1,0.3-0.1c0.1,0,0.2,0,0.2,0.1c0.1,0.1,0.1,0.2,0.1,0.2C54.3,31.8,54.2,31.9,54.1,31.9 M55.9,33.6L55.4,34
			l-1.3-1.6l0.5-0.4L55.9,33.6z"/>
		<path class="st6" d="M57.2,32.4c-0.1,0.1-0.2,0.2-0.3,0.3c-0.2,0.3-0.6,0.3-0.8,0.1c-0.1-0.1-0.1-0.1-0.2-0.2l-0.6-0.7l-0.3,0.2
			l-0.3-0.4l0.3-0.2l-0.3-0.3l0.4-0.5l0.4,0.5l0.4-0.3l0.3,0.4l-0.4,0.3l0.5,0.6c0.1,0.2,0.3,0.2,0.4,0.1c0.1,0,0.1-0.1,0.1-0.2
			L57.2,32.4z"/>
		<path class="st6" d="M57.6,29.4l0.9,2.2c0.2,0.4,0.2,0.9-0.1,1.2c-0.1,0.1-0.2,0.2-0.3,0.2l-0.3-0.4c0.1,0,0.2-0.1,0.2-0.1
			c0.1-0.1,0.2-0.3,0.1-0.4l-0.1-0.3l-2-1l0.5-0.5l1.1,0.7c0.1,0,0.2,0.1,0.2,0.2l0,0l-0.1-0.2l-0.6-1.2L57.6,29.4z"/>
	</g>
</g>
</svg>
